<svg width="20" height="20" viewBox="0 0 20 20" fill="none" xmlns="http://www.w3.org/2000/svg">
<g id="Icon / 20x20 / Academic">
<path id="Vector" d="M10.394 2.07991C10.2695 2.02654 10.1355 1.99902 10 1.99902C9.86455 1.99902 9.73051 2.02654 9.60601 2.07991L2.60601 5.07991C2.42562 5.15676 2.2718 5.28494 2.16368 5.44851C2.05557 5.61209 1.99792 5.80384 1.99792 5.99991C1.99792 6.19599 2.05557 6.38774 2.16368 6.55131C2.2718 6.71489 2.42562 6.84307 2.60601 6.91991L5.25001 8.05091C5.34815 7.93991 5.46975 7.85212 5.60601 7.79391L9.60601 6.07991C9.72705 6.02596 9.85761 5.99661 9.99009 5.99356C10.1226 5.99051 10.2544 6.01383 10.3777 6.06215C10.5011 6.11047 10.6137 6.18284 10.7089 6.27505C10.8041 6.36725 10.88 6.47746 10.9322 6.59926C10.9844 6.72106 11.0119 6.85202 11.0131 6.98454C11.0142 7.11705 10.989 7.24848 10.939 7.37117C10.8889 7.49387 10.8149 7.60539 10.7214 7.69925C10.6278 7.79311 10.5165 7.86744 10.394 7.91791L7.66701 9.08791L9.60701 9.91891C9.73137 9.97214 9.86523 9.99959 10.0005 9.99959C10.1358 9.99959 10.2696 9.97214 10.394 9.91891L17.394 6.91891C17.5738 6.84178 17.727 6.7136 17.8347 6.55025C17.9424 6.3869 17.9997 6.19556 17.9997 5.99991C17.9997 5.80427 17.9424 5.61293 17.8347 5.44958C17.727 5.28623 17.5738 5.15805 17.394 5.08091L10.394 2.08091V2.07991ZM3.31001 9.39691L5.00001 10.1199V14.2219C4.65376 14.1432 4.30314 14.0851 3.95001 14.0479C3.72215 14.024 3.50943 13.9225 3.34742 13.7605C3.18542 13.5985 3.08395 13.3858 3.06001 13.1579C2.9285 11.8988 3.01305 10.6265 3.31001 9.39591V9.39691ZM9.30001 16.5729C8.62402 15.9096 7.84786 15.3569 7.00001 14.9349V10.9779L8.81801 11.7579C9.1915 11.918 9.59364 12.0006 10 12.0006C10.4064 12.0006 10.8085 11.918 11.182 11.7579L16.69 9.39691C16.9887 10.6273 17.0733 11.8999 16.94 13.1589C16.9161 13.3868 16.8146 13.5995 16.6526 13.7615C16.4906 13.9235 16.2779 14.025 16.05 14.0489C14.0325 14.2609 12.1465 15.1507 10.7 16.5729C10.5131 16.7561 10.2618 16.8588 10 16.8588C9.73825 16.8588 9.48694 16.7561 9.30001 16.5729V16.5729ZM6.00001 17.9999C6.26522 17.9999 6.51958 17.8946 6.70711 17.707C6.89465 17.5195 7.00001 17.2651 7.00001 16.9999V14.9349C6.364 14.6189 5.6926 14.3799 5.00001 14.2229V16.9999C5.00001 17.2651 5.10536 17.5195 5.2929 17.707C5.48044 17.8946 5.73479 17.9999 6.00001 17.9999Z" fill="#9DA4AE"/>
</g>
</svg>
