<svg width="24" height="24" viewBox="0 0 24 24" fill="none" xmlns="http://www.w3.org/2000/svg">
<g id="Icon / 20x20 / Grid View 2">
<g id="Vector">
<mask id="path-1-inside-1_139_5259" fill="white">
<path d="M4.06863 4.06873C4.36869 3.76867 4.77565 3.6001 5.2 3.6001H6.8C7.22435 3.6001 7.63131 3.76867 7.93137 4.06873C8.23143 4.36878 8.4 4.77575 8.4 5.2001V6.8001C8.4 7.22444 8.23143 7.63141 7.93137 7.93147C7.63131 8.23153 7.22435 8.4001 6.8 8.4001H5.2C4.77565 8.4001 4.36869 8.23153 4.06863 7.93147C3.76857 7.63141 3.6 7.22444 3.6 6.8001V5.2001C3.6 4.77575 3.76857 4.36878 4.06863 4.06873Z"/>
<path d="M4.06863 10.0687C4.36869 9.76867 4.77565 9.6001 5.2 9.6001H6.8C7.22435 9.6001 7.63131 9.76867 7.93137 10.0687C8.23143 10.3688 8.4 10.7758 8.4 11.2001V12.8001C8.4 13.2244 8.23143 13.6314 7.93137 13.9315C7.63131 14.2315 7.22435 14.4001 6.8 14.4001H5.2C4.77565 14.4001 4.36869 14.2315 4.06863 13.9315C3.76857 13.6314 3.6 13.2244 3.6 12.8001V11.2001C3.6 10.7758 3.76857 10.3688 4.06863 10.0687Z"/>
<path d="M4.06863 16.0687C4.36869 15.7687 4.77565 15.6001 5.2 15.6001H6.8C7.22435 15.6001 7.63131 15.7687 7.93137 16.0687C8.23143 16.3688 8.4 16.7758 8.4 17.2001V18.8001C8.4 19.2244 8.23143 19.6314 7.93137 19.9315C7.63131 20.2315 7.22435 20.4001 6.8 20.4001H5.2C4.77565 20.4001 4.36869 20.2315 4.06863 19.9315C3.76857 19.6314 3.6 19.2244 3.6 18.8001V17.2001C3.6 16.7758 3.76857 16.3688 4.06863 16.0687Z"/>
<path d="M10.0686 4.06873C10.3687 3.76867 10.7757 3.6001 11.2 3.6001H12.8C13.2243 3.6001 13.6313 3.76867 13.9314 4.06873C14.2314 4.36878 14.4 4.77575 14.4 5.2001V6.8001C14.4 7.22444 14.2314 7.63141 13.9314 7.93147C13.6313 8.23153 13.2243 8.4001 12.8 8.4001H11.2C10.7757 8.4001 10.3687 8.23153 10.0686 7.93147C9.76857 7.63141 9.6 7.22444 9.6 6.8001V5.2001C9.6 4.77575 9.76857 4.36878 10.0686 4.06873Z"/>
<path d="M10.0686 10.0687C10.3687 9.76867 10.7757 9.6001 11.2 9.6001H12.8C13.2243 9.6001 13.6313 9.76867 13.9314 10.0687C14.2314 10.3688 14.4 10.7758 14.4 11.2001V12.8001C14.4 13.2244 14.2314 13.6314 13.9314 13.9315C13.6313 14.2315 13.2243 14.4001 12.8 14.4001H11.2C10.7757 14.4001 10.3687 14.2315 10.0686 13.9315C9.76857 13.6314 9.6 13.2244 9.6 12.8001V11.2001C9.6 10.7758 9.76857 10.3688 10.0686 10.0687Z"/>
<path d="M10.0686 16.0687C10.3687 15.7687 10.7757 15.6001 11.2 15.6001H12.8C13.2243 15.6001 13.6313 15.7687 13.9314 16.0687C14.2314 16.3688 14.4 16.7758 14.4 17.2001V18.8001C14.4 19.2244 14.2314 19.6314 13.9314 19.9315C13.6313 20.2315 13.2243 20.4001 12.8 20.4001H11.2C10.7757 20.4001 10.3687 20.2315 10.0686 19.9315C9.76857 19.6314 9.6 19.2244 9.6 18.8001V17.2001C9.6 16.7758 9.76857 16.3688 10.0686 16.0687Z"/>
<path d="M16.0686 4.06873C16.3687 3.76867 16.7757 3.6001 17.2 3.6001H18.8C19.2243 3.6001 19.6313 3.76867 19.9314 4.06873C20.2314 4.36878 20.4 4.77575 20.4 5.2001V6.8001C20.4 7.22444 20.2314 7.63141 19.9314 7.93147C19.6313 8.23153 19.2243 8.4001 18.8 8.4001H17.2C16.7757 8.4001 16.3687 8.23153 16.0686 7.93147C15.7686 7.63141 15.6 7.22444 15.6 6.8001V5.2001C15.6 4.77575 15.7686 4.36878 16.0686 4.06873Z"/>
<path d="M16.0686 10.0687C16.3687 9.76867 16.7757 9.6001 17.2 9.6001H18.8C19.2243 9.6001 19.6313 9.76867 19.9314 10.0687C20.2314 10.3688 20.4 10.7758 20.4 11.2001V12.8001C20.4 13.2244 20.2314 13.6314 19.9314 13.9315C19.6313 14.2315 19.2243 14.4001 18.8 14.4001H17.2C16.7757 14.4001 16.3687 14.2315 16.0686 13.9315C15.7686 13.6314 15.6 13.2244 15.6 12.8001V11.2001C15.6 10.7758 15.7686 10.3688 16.0686 10.0687Z"/>
<path d="M16.0686 16.0687C16.3687 15.7687 16.7757 15.6001 17.2 15.6001H18.8C19.2243 15.6001 19.6313 15.7687 19.9314 16.0687C20.2314 16.3688 20.4 16.7758 20.4 17.2001V18.8001C20.4 19.2244 20.2314 19.6314 19.9314 19.9315C19.6313 20.2315 19.2243 20.4001 18.8 20.4001H17.2C16.7757 20.4001 16.3687 20.2315 16.0686 19.9315C15.7686 19.6314 15.6 19.2244 15.6 18.8001V17.2001C15.6 16.7758 15.7686 16.3688 16.0686 16.0687Z"/>
</mask>
<path d="M4.06863 4.06873C4.36869 3.76867 4.77565 3.6001 5.2 3.6001H6.8C7.22435 3.6001 7.63131 3.76867 7.93137 4.06873C8.23143 4.36878 8.4 4.77575 8.4 5.2001V6.8001C8.4 7.22444 8.23143 7.63141 7.93137 7.93147C7.63131 8.23153 7.22435 8.4001 6.8 8.4001H5.2C4.77565 8.4001 4.36869 8.23153 4.06863 7.93147C3.76857 7.63141 3.6 7.22444 3.6 6.8001V5.2001C3.6 4.77575 3.76857 4.36878 4.06863 4.06873Z" fill="#9DA4AE"/>
<path d="M4.06863 10.0687C4.36869 9.76867 4.77565 9.6001 5.2 9.6001H6.8C7.22435 9.6001 7.63131 9.76867 7.93137 10.0687C8.23143 10.3688 8.4 10.7758 8.4 11.2001V12.8001C8.4 13.2244 8.23143 13.6314 7.93137 13.9315C7.63131 14.2315 7.22435 14.4001 6.8 14.4001H5.2C4.77565 14.4001 4.36869 14.2315 4.06863 13.9315C3.76857 13.6314 3.6 13.2244 3.6 12.8001V11.2001C3.6 10.7758 3.76857 10.3688 4.06863 10.0687Z" fill="#9DA4AE"/>
<path d="M4.06863 16.0687C4.36869 15.7687 4.77565 15.6001 5.2 15.6001H6.8C7.22435 15.6001 7.63131 15.7687 7.93137 16.0687C8.23143 16.3688 8.4 16.7758 8.4 17.2001V18.8001C8.4 19.2244 8.23143 19.6314 7.93137 19.9315C7.63131 20.2315 7.22435 20.4001 6.8 20.4001H5.2C4.77565 20.4001 4.36869 20.2315 4.06863 19.9315C3.76857 19.6314 3.6 19.2244 3.6 18.8001V17.2001C3.6 16.7758 3.76857 16.3688 4.06863 16.0687Z" fill="#9DA4AE"/>
<path d="M10.0686 4.06873C10.3687 3.76867 10.7757 3.6001 11.2 3.6001H12.8C13.2243 3.6001 13.6313 3.76867 13.9314 4.06873C14.2314 4.36878 14.4 4.77575 14.4 5.2001V6.8001C14.4 7.22444 14.2314 7.63141 13.9314 7.93147C13.6313 8.23153 13.2243 8.4001 12.8 8.4001H11.2C10.7757 8.4001 10.3687 8.23153 10.0686 7.93147C9.76857 7.63141 9.6 7.22444 9.6 6.8001V5.2001C9.6 4.77575 9.76857 4.36878 10.0686 4.06873Z" fill="#9DA4AE"/>
<path d="M10.0686 10.0687C10.3687 9.76867 10.7757 9.6001 11.2 9.6001H12.8C13.2243 9.6001 13.6313 9.76867 13.9314 10.0687C14.2314 10.3688 14.4 10.7758 14.4 11.2001V12.8001C14.4 13.2244 14.2314 13.6314 13.9314 13.9315C13.6313 14.2315 13.2243 14.4001 12.8 14.4001H11.2C10.7757 14.4001 10.3687 14.2315 10.0686 13.9315C9.76857 13.6314 9.6 13.2244 9.6 12.8001V11.2001C9.6 10.7758 9.76857 10.3688 10.0686 10.0687Z" fill="#9DA4AE"/>
<path d="M10.0686 16.0687C10.3687 15.7687 10.7757 15.6001 11.2 15.6001H12.8C13.2243 15.6001 13.6313 15.7687 13.9314 16.0687C14.2314 16.3688 14.4 16.7758 14.4 17.2001V18.8001C14.4 19.2244 14.2314 19.6314 13.9314 19.9315C13.6313 20.2315 13.2243 20.4001 12.8 20.4001H11.2C10.7757 20.4001 10.3687 20.2315 10.0686 19.9315C9.76857 19.6314 9.6 19.2244 9.6 18.8001V17.2001C9.6 16.7758 9.76857 16.3688 10.0686 16.0687Z" fill="#9DA4AE"/>
<path d="M16.0686 4.06873C16.3687 3.76867 16.7757 3.6001 17.2 3.6001H18.8C19.2243 3.6001 19.6313 3.76867 19.9314 4.06873C20.2314 4.36878 20.4 4.77575 20.4 5.2001V6.8001C20.4 7.22444 20.2314 7.63141 19.9314 7.93147C19.6313 8.23153 19.2243 8.4001 18.8 8.4001H17.2C16.7757 8.4001 16.3687 8.23153 16.0686 7.93147C15.7686 7.63141 15.6 7.22444 15.6 6.8001V5.2001C15.6 4.77575 15.7686 4.36878 16.0686 4.06873Z" fill="#9DA4AE"/>
<path d="M16.0686 10.0687C16.3687 9.76867 16.7757 9.6001 17.2 9.6001H18.8C19.2243 9.6001 19.6313 9.76867 19.9314 10.0687C20.2314 10.3688 20.4 10.7758 20.4 11.2001V12.8001C20.4 13.2244 20.2314 13.6314 19.9314 13.9315C19.6313 14.2315 19.2243 14.4001 18.8 14.4001H17.2C16.7757 14.4001 16.3687 14.2315 16.0686 13.9315C15.7686 13.6314 15.6 13.2244 15.6 12.8001V11.2001C15.6 10.7758 15.7686 10.3688 16.0686 10.0687Z" fill="#9DA4AE"/>
<path d="M16.0686 16.0687C16.3687 15.7687 16.7757 15.6001 17.2 15.6001H18.8C19.2243 15.6001 19.6313 15.7687 19.9314 16.0687C20.2314 16.3688 20.4 16.7758 20.4 17.2001V18.8001C20.4 19.2244 20.2314 19.6314 19.9314 19.9315C19.6313 20.2315 19.2243 20.4001 18.8 20.4001H17.2C16.7757 20.4001 16.3687 20.2315 16.0686 19.9315C15.7686 19.6314 15.6 19.2244 15.6 18.8001V17.2001C15.6 16.7758 15.7686 16.3688 16.0686 16.0687Z" fill="#9DA4AE"/>
<path d="M4.06863 4.06873C4.36869 3.76867 4.77565 3.6001 5.2 3.6001H6.8C7.22435 3.6001 7.63131 3.76867 7.93137 4.06873C8.23143 4.36878 8.4 4.77575 8.4 5.2001V6.8001C8.4 7.22444 8.23143 7.63141 7.93137 7.93147C7.63131 8.23153 7.22435 8.4001 6.8 8.4001H5.2C4.77565 8.4001 4.36869 8.23153 4.06863 7.93147C3.76857 7.63141 3.6 7.22444 3.6 6.8001V5.2001C3.6 4.77575 3.76857 4.36878 4.06863 4.06873Z" stroke="#9DA4AE" stroke-width="2" mask="url(#path-1-inside-1_139_5259)"/>
<path d="M4.06863 10.0687C4.36869 9.76867 4.77565 9.6001 5.2 9.6001H6.8C7.22435 9.6001 7.63131 9.76867 7.93137 10.0687C8.23143 10.3688 8.4 10.7758 8.4 11.2001V12.8001C8.4 13.2244 8.23143 13.6314 7.93137 13.9315C7.63131 14.2315 7.22435 14.4001 6.8 14.4001H5.2C4.77565 14.4001 4.36869 14.2315 4.06863 13.9315C3.76857 13.6314 3.6 13.2244 3.6 12.8001V11.2001C3.6 10.7758 3.76857 10.3688 4.06863 10.0687Z" stroke="#9DA4AE" stroke-width="2" mask="url(#path-1-inside-1_139_5259)"/>
<path d="M4.06863 16.0687C4.36869 15.7687 4.77565 15.6001 5.2 15.6001H6.8C7.22435 15.6001 7.63131 15.7687 7.93137 16.0687C8.23143 16.3688 8.4 16.7758 8.4 17.2001V18.8001C8.4 19.2244 8.23143 19.6314 7.93137 19.9315C7.63131 20.2315 7.22435 20.4001 6.8 20.4001H5.2C4.77565 20.4001 4.36869 20.2315 4.06863 19.9315C3.76857 19.6314 3.6 19.2244 3.6 18.8001V17.2001C3.6 16.7758 3.76857 16.3688 4.06863 16.0687Z" stroke="#9DA4AE" stroke-width="2" mask="url(#path-1-inside-1_139_5259)"/>
<path d="M10.0686 4.06873C10.3687 3.76867 10.7757 3.6001 11.2 3.6001H12.8C13.2243 3.6001 13.6313 3.76867 13.9314 4.06873C14.2314 4.36878 14.4 4.77575 14.4 5.2001V6.8001C14.4 7.22444 14.2314 7.63141 13.9314 7.93147C13.6313 8.23153 13.2243 8.4001 12.8 8.4001H11.2C10.7757 8.4001 10.3687 8.23153 10.0686 7.93147C9.76857 7.63141 9.6 7.22444 9.6 6.8001V5.2001C9.6 4.77575 9.76857 4.36878 10.0686 4.06873Z" stroke="#9DA4AE" stroke-width="2" mask="url(#path-1-inside-1_139_5259)"/>
<path d="M10.0686 10.0687C10.3687 9.76867 10.7757 9.6001 11.2 9.6001H12.8C13.2243 9.6001 13.6313 9.76867 13.9314 10.0687C14.2314 10.3688 14.4 10.7758 14.4 11.2001V12.8001C14.4 13.2244 14.2314 13.6314 13.9314 13.9315C13.6313 14.2315 13.2243 14.4001 12.8 14.4001H11.2C10.7757 14.4001 10.3687 14.2315 10.0686 13.9315C9.76857 13.6314 9.6 13.2244 9.6 12.8001V11.2001C9.6 10.7758 9.76857 10.3688 10.0686 10.0687Z" stroke="#9DA4AE" stroke-width="2" mask="url(#path-1-inside-1_139_5259)"/>
<path d="M10.0686 16.0687C10.3687 15.7687 10.7757 15.6001 11.2 15.6001H12.8C13.2243 15.6001 13.6313 15.7687 13.9314 16.0687C14.2314 16.3688 14.4 16.7758 14.4 17.2001V18.8001C14.4 19.2244 14.2314 19.6314 13.9314 19.9315C13.6313 20.2315 13.2243 20.4001 12.8 20.4001H11.2C10.7757 20.4001 10.3687 20.2315 10.0686 19.9315C9.76857 19.6314 9.6 19.2244 9.6 18.8001V17.2001C9.6 16.7758 9.76857 16.3688 10.0686 16.0687Z" stroke="#9DA4AE" stroke-width="2" mask="url(#path-1-inside-1_139_5259)"/>
<path d="M16.0686 4.06873C16.3687 3.76867 16.7757 3.6001 17.2 3.6001H18.8C19.2243 3.6001 19.6313 3.76867 19.9314 4.06873C20.2314 4.36878 20.4 4.77575 20.4 5.2001V6.8001C20.4 7.22444 20.2314 7.63141 19.9314 7.93147C19.6313 8.23153 19.2243 8.4001 18.8 8.4001H17.2C16.7757 8.4001 16.3687 8.23153 16.0686 7.93147C15.7686 7.63141 15.6 7.22444 15.6 6.8001V5.2001C15.6 4.77575 15.7686 4.36878 16.0686 4.06873Z" stroke="#9DA4AE" stroke-width="2" mask="url(#path-1-inside-1_139_5259)"/>
<path d="M16.0686 10.0687C16.3687 9.76867 16.7757 9.6001 17.2 9.6001H18.8C19.2243 9.6001 19.6313 9.76867 19.9314 10.0687C20.2314 10.3688 20.4 10.7758 20.4 11.2001V12.8001C20.4 13.2244 20.2314 13.6314 19.9314 13.9315C19.6313 14.2315 19.2243 14.4001 18.8 14.4001H17.2C16.7757 14.4001 16.3687 14.2315 16.0686 13.9315C15.7686 13.6314 15.6 13.2244 15.6 12.8001V11.2001C15.6 10.7758 15.7686 10.3688 16.0686 10.0687Z" stroke="#9DA4AE" stroke-width="2" mask="url(#path-1-inside-1_139_5259)"/>
<path d="M16.0686 16.0687C16.3687 15.7687 16.7757 15.6001 17.2 15.6001H18.8C19.2243 15.6001 19.6313 15.7687 19.9314 16.0687C20.2314 16.3688 20.4 16.7758 20.4 17.2001V18.8001C20.4 19.2244 20.2314 19.6314 19.9314 19.9315C19.6313 20.2315 19.2243 20.4001 18.8 20.4001H17.2C16.7757 20.4001 16.3687 20.2315 16.0686 19.9315C15.7686 19.6314 15.6 19.2244 15.6 18.8001V17.2001C15.6 16.7758 15.7686 16.3688 16.0686 16.0687Z" stroke="#9DA4AE" stroke-width="2" mask="url(#path-1-inside-1_139_5259)"/>
</g>
</g>
</svg>
