<svg width="50" height="50" viewBox="0 0 50 50" fill="none" xmlns="http://www.w3.org/2000/svg">
<g id="Options-03">
<path id="Vector" fill-rule="evenodd" clip-rule="evenodd" d="M25 42.5C29.641 42.5 34.093 40.656 37.374 37.375C40.656 34.094 42.5 29.642 42.5 25C42.5 20.358 40.656 15.907 37.374 12.625C34.092 9.344 29.641 7.5 25 7.5C20.359 7.5 15.907 9.344 12.626 12.625C9.344 15.906 7.5 20.358 7.5 25C7.5 29.642 9.344 34.093 12.626 37.375C15.908 40.656 20.359 42.5 25 42.5ZM33.109 22.172C33.508 21.759 33.728 21.207 33.723 20.634C33.718 20.059 33.488 19.512 33.082 19.105C32.676 18.7 32.128 18.471 31.554 18.464C30.98 18.46 30.428 18.681 30.015 19.079L22.812 26.282L19.984 23.454C19.571 23.056 19.019 22.835 18.445 22.839C17.871 22.846 17.323 23.075 16.917 23.48C16.511 23.887 16.281 24.434 16.276 25.009C16.271 25.582 16.491 26.133 16.89 26.547L21.265 30.922C21.675 31.331 22.231 31.563 22.812 31.563C23.393 31.563 23.948 31.331 24.359 30.922L33.109 22.172Z" fill="#049769"/>
</g>
</svg>
