<svg width="50" height="50" viewBox="0 0 50 50" fill="none" xmlns="http://www.w3.org/2000/svg">
<g id="Options-02">
<path id="Vector" fill-rule="evenodd" clip-rule="evenodd" d="M25 42.5C29.641 42.5 34.093 40.656 37.374 37.375C40.656 34.094 42.5 29.642 42.5 25C42.5 20.358 40.656 15.907 37.374 12.625C34.092 9.344 29.641 7.5 25 7.5C20.359 7.5 15.907 9.344 12.626 12.625C9.344 15.906 7.5 20.358 7.5 25C7.5 29.642 9.344 34.093 12.626 37.375C15.908 40.656 20.359 42.5 25 42.5ZM22.172 19.078C21.759 18.68 21.207 18.459 20.633 18.463C20.059 18.47 19.511 18.699 19.105 19.104C18.699 19.511 18.469 20.058 18.464 20.633C18.459 21.206 18.679 21.757 19.078 22.171L21.906 24.999L19.078 27.827C18.869 28.028 18.702 28.271 18.588 28.538C18.473 28.805 18.413 29.091 18.41 29.382C18.408 29.671 18.463 29.96 18.573 30.229C18.683 30.498 18.845 30.743 19.051 30.947C19.256 31.153 19.501 31.317 19.769 31.426C20.038 31.535 20.326 31.59 20.616 31.588C20.906 31.586 21.193 31.527 21.46 31.411C21.727 31.297 21.968 31.131 22.17 30.921L24.998 28.093L27.826 30.921C28.239 31.319 28.791 31.54 29.365 31.536C29.939 31.529 30.487 31.3 30.893 30.895C31.299 30.488 31.529 29.941 31.534 29.366C31.539 28.793 31.319 28.242 30.92 27.828L28.092 25L30.92 22.172C31.319 21.759 31.539 21.207 31.534 20.634C31.529 20.059 31.299 19.512 30.893 19.105C30.487 18.7 29.939 18.471 29.365 18.464C28.791 18.46 28.239 18.681 27.826 19.079L24.998 21.907L22.17 19.079L22.172 19.078Z" fill="#F43F5E"/>
</g>
</svg>
