<svg
    width="15"
    height="16"
    viewBox="0 0 15 16"
    fill="none"
    xmlns="http://www.w3.org/2000/svg"
>
<g id="Frame" clip-path="url(#clip0_1126_13458)">
<g id="Vector">
<path
                d="M10.3226 13.9355V14.9677C10.3226 15.4839 9.80645 16 9.29032 16H2.06452C0.929032 16 0 15.071 0 13.9355V4.64516C0 4.02581 0.516129 3.6129 1.03226 3.6129H2.16774V11.3548C2.16774 12.8 3.30323 13.9355 4.74839 13.9355H10.3226Z"
                fill="#9DA4AE"
            />
<path
                fill-rule="evenodd"
                clip-rule="evenodd"
                d="M3.71582 1.03226C3.71582 0.412903 4.23195 0 4.74808 0H13.0061C13.5223 0 14.0384 0.412903 14.0384 1.03226V11.3548C14.0384 11.9742 13.6255 12.3871 13.0061 12.3871H4.74808C4.12872 12.3871 3.71582 11.9742 3.71582 11.3548V1.03226ZM6.19328 3.92259H11.561C11.9739 3.92259 12.3868 3.71614 12.3868 3.20001C12.3868 2.68388 11.9739 2.37421 11.561 2.37421H6.19328C5.78038 2.37421 5.4707 2.68388 5.4707 3.09679C5.4707 3.50969 5.78038 3.92259 6.19328 3.92259ZM6.19328 7.01937H11.561C11.9739 7.01937 12.3868 6.70969 12.3868 6.19356C12.3868 5.67743 12.0772 5.36775 11.561 5.36775H6.19328C5.78038 5.47098 5.4707 5.78066 5.4707 6.19356C5.4707 6.60646 5.78038 7.01937 6.19328 7.01937ZM8.56748 10.1161H6.19328C5.78038 10.1161 5.4707 9.70324 5.4707 9.29033C5.4707 8.87743 5.78038 8.56775 6.19328 8.56775H8.56748C8.98038 8.56775 9.29006 8.87743 9.29006 9.29033C9.29006 9.70324 8.98038 10.1161 8.56748 10.1161Z"
                fill="#9DA4AE"
            />
</g>
</g>
<defs>
<clipPath id="clip0_1126_13458">
<rect width="14.0387" height="16" fill="white" />
</clipPath>
</defs>
</svg>
