<svg width="50" height="50" viewBox="0 0 50 50" fill="none" xmlns="http://www.w3.org/2000/svg">
<g id="Options-04">
<g id="Group">
<g id="Group_2">
<path id="Vector" d="M17.427 37.2209L17.796 21.0459C17.796 21.0459 21.818 20.2649 25.402 14.7979C27.774 11.1799 26.899 7.34691 27.355 5.75891C27.634 4.78791 29.923 4.98291 30.926 5.09991C31.877 5.20991 33.448 5.73991 34.108 7.24291C35.331 10.0309 33.619 16.6999 33.619 16.6999C33.619 16.6999 32.872 18.0579 34.774 18.0579H41.557C42.436 18.0579 43.302 18.3469 43.969 18.9199C44.555 19.4229 45.051 20.1889 44.962 21.3179C44.758 23.8989 43.4 25.0529 43.4 25.5969C43.4 26.1409 44.147 27.0909 43.604 28.6529C43.061 30.2149 42.721 30.0789 42.721 30.8259C42.721 31.5729 42.585 33.4749 42.11 34.6289C41.635 35.7839 41.091 36.3269 41.091 36.3269C41.091 36.3269 41.295 38.7719 40.616 40.1979C39.937 41.6239 37.084 42.3709 36.134 42.3709C35.184 42.3709 28.392 41.0129 26.49 40.5369C25.001 40.1649 21.387 38.9589 19.008 38.8769C18.115 38.8459 17.407 38.1149 17.427 37.2209Z" fill="#60D1C6"/>
<path id="Vector_2" d="M14.955 37.438V22.226C14.955 21.568 15.346 20.967 15.954 20.716C17.372 20.131 20.072 18.595 22.561 14.798C24.933 11.18 26.002 8.258 26.458 6.669C26.737 5.698 27.666 5.041 28.669 5.158C29.62 5.268 30.763 5.642 31.423 7.145C32.646 9.933 30.778 16.699 30.778 16.699C30.778 16.699 30.031 18.057 31.933 18.057H38.716C39.595 18.057 40.461 18.346 41.128 18.919C41.714 19.422 42.21 20.188 42.121 21.317C41.917 23.898 40.559 25.052 40.559 25.596C40.559 26.14 41.306 27.09 40.763 28.652C40.22 30.214 39.88 30.078 39.88 30.825C39.88 31.572 39.744 33.474 39.269 34.628C38.794 35.782 38.25 36.326 38.25 36.326C38.25 36.326 38.454 38.771 37.775 40.197C37.096 41.623 34.243 42.37 33.293 42.37C32.343 42.37 25.551 41.012 23.649 40.536C22.17 40.166 18.842 39.098 16.573 39.057C15.679 39.041 14.956 38.331 14.956 37.437L14.955 37.438Z" fill="#CEF1ED"/>
</g>
<g id="Group_3">
<path id="Vector_3" d="M6.914 22.0878V39.3938H12.44C13.244 39.3938 13.895 38.7428 13.895 37.9388V22.0878C13.895 21.2838 13.244 20.6328 12.44 20.6328H8.369C7.565 20.6328 6.914 21.2838 6.914 22.0878Z" fill="#00909E"/>
<path id="Vector_4" d="M5.02802 22.0878V37.9388C5.02802 38.7428 5.67902 39.3938 6.48302 39.3938H10.73C11.437 39.3938 12.009 38.8208 12.009 38.1148V21.9128C12.009 21.2058 11.436 20.6338 10.73 20.6338H6.48302C5.67902 20.6338 5.02802 21.2848 5.02802 22.0888V22.0878Z" fill="#09B8A7"/>
</g>
</g>
<g id="Group_4">
<path id="Vector_5" fill-rule="evenodd" clip-rule="evenodd" d="M42.775 32.2301C41.369 30.8241 39.46 30.0361 37.473 30.0361C35.486 30.0361 33.577 30.8231 32.17 32.2301C30.763 33.6371 29.973 35.5451 29.973 37.5361C29.973 39.5271 30.764 41.4321 32.17 42.8381C33.576 44.2441 35.481 45.0361 37.473 45.0361C39.465 45.0361 41.369 44.2451 42.775 42.8381C44.181 41.4311 44.973 39.5231 44.973 37.5361C44.973 35.5491 44.182 33.6361 42.775 32.2301ZM40.949 36.3211L37.199 40.0711C37.023 40.2471 36.783 40.3491 36.535 40.3491C36.284 40.3491 36.048 40.2481 35.871 40.0711L33.996 38.1961C33.823 38.0201 33.73 37.7841 33.733 37.5401C33.733 37.2931 33.834 37.0561 34.007 36.8841C34.18 36.7121 34.416 36.6101 34.663 36.6101C34.907 36.6061 35.143 36.7001 35.323 36.8731L36.534 38.0841L39.62 34.9981C39.796 34.8251 40.032 34.7321 40.28 34.7351C40.524 34.7351 40.76 34.8361 40.932 35.0091C41.108 35.1821 41.206 35.4181 41.209 35.6651C41.209 35.9091 41.115 36.1451 40.946 36.3211H40.949Z" fill="#049769"/>
<path id="Vector_6" fill-rule="evenodd" clip-rule="evenodd" d="M41.211 35.6654C41.211 35.9094 41.117 36.1454 40.948 36.3214L37.198 40.0714C37.022 40.2474 36.782 40.3494 36.534 40.3494C36.283 40.3494 36.047 40.2484 35.87 40.0714L33.995 38.1964C33.822 38.0204 33.729 37.7844 33.732 37.5404C33.732 37.2934 33.833 37.0564 34.006 36.8844C34.179 36.7124 34.415 36.6104 34.662 36.6104C34.906 36.6064 35.142 36.7004 35.322 36.8734L36.533 38.0844L39.619 34.9984C39.795 34.8254 40.031 34.7324 40.279 34.7354C40.523 34.7354 40.759 34.8364 40.931 35.0094C41.107 35.1824 41.205 35.4184 41.208 35.6654H41.211Z" fill="white"/>
</g>
</g>
</svg>
