<svg width="50" height="50" viewBox="0 0 50 50" fill="none" xmlns="http://www.w3.org/2000/svg">
<g id="Options-01">
<g id="Group">
<g id="Group_2">
<path id="Vector" d="M17.427 11.4645L17.796 27.6395C17.796 27.6395 21.818 28.4205 25.402 33.8875C27.774 37.5055 26.899 41.3385 27.355 42.9265C27.634 43.8975 29.923 43.7025 30.926 43.5855C31.877 43.4755 33.448 42.9455 34.108 41.4425C35.331 38.6545 33.619 31.9855 33.619 31.9855C33.619 31.9855 32.872 30.6275 34.774 30.6275H41.557C42.436 30.6275 43.302 30.3385 43.969 29.7655C44.555 29.2625 45.051 28.4965 44.962 27.3675C44.758 24.7865 43.4 23.6325 43.4 23.0885C43.4 22.5445 44.147 21.5945 43.604 20.0325C43.061 18.4705 42.721 18.6065 42.721 17.8595C42.721 17.1125 42.585 15.2105 42.11 14.0565C41.635 12.9015 41.091 12.3585 41.091 12.3585C41.091 12.3585 41.295 9.91345 40.616 8.48745C39.937 7.06145 37.084 6.31445 36.134 6.31445C35.184 6.31445 28.392 7.67245 26.49 8.14845C25.001 8.52045 21.387 9.72645 19.008 9.80845C18.115 9.83945 17.407 10.5705 17.427 11.4645Z" fill="#E49032"/>
<path id="Vector_2" d="M14.955 11.2484V26.4604C14.955 27.1184 15.346 27.7194 15.954 27.9704C17.372 28.5554 20.072 30.0914 22.561 33.8884C24.933 37.5064 26.002 40.4284 26.458 42.0174C26.737 42.9884 27.666 43.6454 28.669 43.5284C29.62 43.4184 30.763 43.0444 31.423 41.5414C32.646 38.7534 30.778 31.9874 30.778 31.9874C30.778 31.9874 30.031 30.6294 31.933 30.6294H38.716C39.595 30.6294 40.461 30.3404 41.128 29.7674C41.714 29.2644 42.21 28.4984 42.121 27.3694C41.917 24.7884 40.559 23.6344 40.559 23.0904C40.559 22.5464 41.306 21.5964 40.763 20.0344C40.22 18.4724 39.88 18.6084 39.88 17.8614C39.88 17.1144 39.744 15.2124 39.269 14.0584C38.794 12.9044 38.25 12.3604 38.25 12.3604C38.25 12.3604 38.454 9.91541 37.775 8.48941C37.096 7.06341 34.243 6.31641 33.293 6.31641C32.343 6.31641 25.551 7.67441 23.649 8.15041C22.17 8.52041 18.842 9.58841 16.573 9.62941C15.679 9.64541 14.956 10.3554 14.956 11.2494L14.955 11.2484Z" fill="#FFCCA1"/>
</g>
<g id="Group_3">
<path id="Vector_3" d="M6.914 26.597V9.29102H12.44C13.244 9.29102 13.895 9.94202 13.895 10.746V26.597C13.895 27.401 13.244 28.052 12.44 28.052H8.369C7.565 28.052 6.914 27.401 6.914 26.597Z" fill="#DE0C00"/>
<path id="Vector_4" d="M5.028 26.597V10.746C5.028 9.94202 5.679 9.29102 6.483 9.29102H10.73C11.437 9.29102 12.009 9.86401 12.009 10.57V26.772C12.009 27.479 11.436 28.051 10.73 28.051H6.483C5.679 28.051 5.028 27.401 5.028 26.597Z" fill="#FF3600"/>
</g>
</g>
<g id="Group_4">
<path id="Vector_5" fill-rule="evenodd" clip-rule="evenodd" d="M17.828 30.8746C16.428 29.4746 14.518 28.6846 12.528 28.6846C10.538 28.6846 8.628 29.4746 7.228 30.8746C5.818 32.2846 5.028 34.1946 5.028 36.1846C5.028 38.1746 5.818 40.0846 7.228 41.4846C8.628 42.8946 10.538 43.6846 12.528 43.6846C14.518 43.6846 16.428 42.8946 17.828 41.4846C19.238 40.0846 20.028 38.1746 20.028 36.1846C20.028 34.1946 19.238 32.2846 17.828 30.8746ZM15.068 37.3946C15.238 37.5746 15.328 37.8046 15.328 38.0546C15.328 38.3046 15.228 38.5346 15.058 38.7046C14.878 38.8846 14.648 38.9846 14.398 38.9846C14.158 38.9846 13.918 38.8946 13.738 38.7246L12.528 37.5046L11.318 38.7246C11.228 38.8146 11.128 38.8846 11.008 38.9346C10.898 38.9846 10.778 39.0046 10.648 39.0046C10.528 39.0046 10.398 38.9846 10.288 38.9346C10.168 38.8946 10.068 38.8246 9.978 38.7346C9.888 38.6446 9.818 38.5346 9.778 38.4246C9.728 38.3046 9.698 38.1846 9.708 38.0646C9.708 37.9346 9.728 37.8146 9.778 37.6946C9.828 37.5846 9.898 37.4846 9.988 37.3946L11.198 36.1846L9.988 34.9746C9.818 34.7946 9.728 34.5546 9.728 34.3146C9.728 34.0646 9.828 33.8346 9.998 33.6546C10.178 33.4846 10.408 33.3846 10.658 33.3846C10.898 33.3746 11.138 33.4746 11.318 33.6446L12.528 34.8546L13.738 33.6446C13.918 33.4746 14.158 33.3746 14.398 33.3846C14.648 33.3846 14.878 33.4846 15.058 33.6546C15.228 33.8346 15.328 34.0646 15.328 34.3146C15.328 34.5546 15.238 34.7946 15.068 34.9746L13.848 36.1846L15.068 37.3946Z" fill="#F43F5E"/>
<path id="Vector_6" fill-rule="evenodd" clip-rule="evenodd" d="M15.068 37.3945C15.238 37.5745 15.328 37.8045 15.328 38.0545C15.328 38.3045 15.228 38.5345 15.058 38.7045C14.878 38.8845 14.648 38.9845 14.398 38.9845C14.158 38.9845 13.918 38.8945 13.738 38.7245L12.528 37.5045L11.318 38.7245C11.228 38.8145 11.128 38.8845 11.008 38.9345C10.898 38.9845 10.778 39.0045 10.648 39.0045C10.528 39.0045 10.398 38.9845 10.288 38.9345C10.168 38.8945 10.068 38.8245 9.978 38.7345C9.888 38.6445 9.818 38.5345 9.778 38.4245C9.728 38.3045 9.698 38.1845 9.708 38.0645C9.708 37.9345 9.728 37.8145 9.778 37.6945C9.828 37.5845 9.898 37.4845 9.988 37.3945L11.198 36.1845L9.988 34.9745C9.818 34.7945 9.728 34.5545 9.728 34.3145C9.728 34.0645 9.828 33.8345 9.998 33.6545C10.178 33.4845 10.408 33.3845 10.658 33.3845C10.898 33.3745 11.138 33.4745 11.318 33.6445L12.528 34.8545L13.738 33.6445C13.918 33.4745 14.158 33.3745 14.398 33.3845C14.648 33.3845 14.878 33.4845 15.058 33.6545C15.228 33.8345 15.328 34.0645 15.328 34.3145C15.328 34.5545 15.238 34.7945 15.068 34.9745L13.848 36.1845L15.068 37.3945Z" fill="white"/>
</g>
</g>
</svg>
