<svg width="14" height="18" viewBox="0 0 14 18" fill="none" xmlns="http://www.w3.org/2000/svg">
<g id="Frame" clip-path="url(#clip0_1126_13475)">
<g id="Group">
<g id="Group_2">
<path id="Vector" d="M11.4375 11.1562C11.1562 11.3437 10.7812 11.5313 10.4062 11.5313L9.09374 11.625H8.99999L7.96874 12.4688C7.59374 12.75 7.12499 12.9375 6.65624 12.9375C6.18749 12.9375 5.71874 12.75 5.34374 12.4688L4.31249 11.625C4.31249 11.625 4.31249 11.625 4.21874 11.625L2.90624 11.5313C2.53124 11.5313 2.15624 11.3437 1.87499 11.1562L-1.11908e-05 15.4688C-0.187511 15.75 0.0937388 16.125 0.468739 16.0313L2.43749 15.4688C2.71874 15.375 3.09374 15.5625 3.18749 15.8437L4.12499 17.7187C4.31249 18 4.68749 18 4.87499 17.7187L6.37499 14.625C6.56249 14.3438 6.93749 14.3438 7.12499 14.625L8.62499 17.7187C8.81249 18 9.18749 18 9.37499 17.7187L10.3125 15.8437C10.4062 15.5625 10.7812 15.375 11.0625 15.4688L13.0312 16.0313C13.3125 16.125 13.5937 15.75 13.5 15.4688L11.4375 11.1562Z" fill="#9DA4AE"/>
</g>
<path id="Vector_2" d="M12.4688 5.34375L11.625 4.3125C11.4375 4.125 11.4375 3.9375 11.3438 3.75L11.25 2.4375C11.25 1.875 10.7812 1.5 10.3125 1.5L9 1.3125C8.8125 1.3125 8.625 1.21875 8.4375 1.125L7.40625 0.28125C7.03125 -0.09375 6.46875 -0.09375 6 0.28125L5.0625 1.125C4.875 1.21875 4.6875 1.3125 4.40625 1.3125L3.1875 1.40625C2.625 1.40625 2.25 1.875 2.25 2.34375L2.0625 3.75C2.0625 3.9375 1.96875 4.21875 1.78125 4.3125L0.9375 5.34375C0.5625 5.71875 0.5625 6.28125 0.9375 6.75L1.78125 7.78125C1.96875 7.96875 1.96875 8.15625 2.0625 8.34375L2.15625 9.65625C2.15625 10.2188 2.625 10.5937 3.09375 10.5937L4.40625 10.6875C4.59375 10.6875 4.875 10.7812 4.96875 10.9687L6 11.8125C6.375 12.1875 6.9375 12.1875 7.40625 11.8125L8.4375 10.9687C8.625 10.7812 8.8125 10.7812 9 10.6875L10.3125 10.5937C10.875 10.5937 11.25 10.125 11.25 9.65625L11.3438 8.34375C11.3438 8.15625 11.4375 7.875 11.625 7.78125L12.4688 6.75C12.8438 6.28125 12.8438 5.71875 12.4688 5.34375ZM6.75 8.4375C5.4375 8.4375 4.3125 7.3125 4.3125 6C4.3125 4.6875 5.4375 3.5625 6.75 3.5625C8.0625 3.5625 9.1875 4.6875 9.1875 6C9.1875 7.3125 8.0625 8.4375 6.75 8.4375Z" fill="#9DA4AE"/>
</g>
</g>
<defs>
<clipPath id="clip0_1126_13475">
<rect width="13.5" height="18" fill="white"/>
</clipPath>
</defs>
</svg>
