<svg width="20" height="20" viewBox="0 0 20 20" fill="none" xmlns="http://www.w3.org/2000/svg">
<g id="Icon / 20x20 / Home">
<path id="Vector" d="M10.707 2.29303C10.5195 2.10556 10.2652 2.00024 10 2.00024C9.73483 2.00024 9.48053 2.10556 9.293 2.29303L2.293 9.29303C2.11084 9.48163 2.01005 9.73423 2.01232 9.99643C2.0146 10.2586 2.11977 10.5094 2.30518 10.6948C2.49059 10.8803 2.7414 10.9854 3.0036 10.9877C3.26579 10.99 3.5184 10.8892 3.707 10.707L4 10.414V17C4 17.2652 4.10536 17.5196 4.29289 17.7071C4.48043 17.8947 4.73478 18 5 18H7C7.26522 18 7.51957 17.8947 7.70711 17.7071C7.89464 17.5196 8 17.2652 8 17V15C8 14.7348 8.10536 14.4805 8.29289 14.2929C8.48043 14.1054 8.73478 14 9 14H11C11.2652 14 11.5196 14.1054 11.7071 14.2929C11.8946 14.4805 12 14.7348 12 15V17C12 17.2652 12.1054 17.5196 12.2929 17.7071C12.4804 17.8947 12.7348 18 13 18H15C15.2652 18 15.5196 17.8947 15.7071 17.7071C15.8946 17.5196 16 17.2652 16 17V10.414L16.293 10.707C16.4816 10.8892 16.7342 10.99 16.9964 10.9877C17.2586 10.9854 17.5094 10.8803 17.6948 10.6948C17.8802 10.5094 17.9854 10.2586 17.9877 9.99643C17.99 9.73423 17.8892 9.48163 17.707 9.29303L10.707 2.29303V2.29303Z" fill="#9DA4AE"/>
</g>
</svg>
