<svg
    width="18"
    height="15"
    viewBox="0 0 18 15"
    fill="none"
    xmlns="http://www.w3.org/2000/svg"
>
<g id="Frame" clip-path="url(#clip0_1126_13463)">
<g id="Vector">
<path
                d="M8.77795 5.06024C10.1491 5.06024 11.2607 3.92747 11.2607 2.53012C11.2607 1.13277 10.1491 0 8.77795 0C7.40676 0 6.29519 1.13277 6.29519 2.53012C6.29519 3.92747 7.40676 5.06024 8.77795 5.06024Z"
                fill="#9DA4AE"
            />
<path
                fill-rule="evenodd"
                clip-rule="evenodd"
                d="M15.7833 13.6175V7.13857C15.7833 6.5964 15.4286 6.23495 14.8966 6.23495H3.1035C2.57148 6.23495 2.2168 6.5964 2.2168 7.13857V13.6175H0.708984C0.294771 13.6175 -0.0410156 13.9532 -0.0410156 14.3675C-0.0410156 14.7817 0.294771 15.1175 0.708984 15.1175H17.2903C17.7045 15.1175 18.0403 14.7817 18.0403 14.3675C18.0403 13.9532 17.7045 13.6175 17.2903 13.6175H15.7833ZM8.95505 11.8373C9.68962 11.8373 10.2851 11.2305 10.2851 10.4819C10.2851 9.73334 9.68962 9.1265 8.95505 9.1265C8.22048 9.1265 7.625 9.73334 7.625 10.4819C7.625 11.2305 8.22048 11.8373 8.95505 11.8373Z"
                fill="#9DA4AE"
            />
</g>
</g>
<defs>
<clipPath id="clip0_1126_13463">
<rect width="18" height="15" fill="white" />
</clipPath>
</defs>
</svg>
