<svg width="24" height="24" viewBox="0 0 24 24" fill="none" xmlns="http://www.w3.org/2000/svg">
<g id="Icon / 20x20 / Search">
<path id="Vector" d="M15.0605 13.4813L14.8156 13.8258L15.1145 14.1246L20.8914 19.9015C21.0173 20.0332 21.0868 20.2089 21.0853 20.3912C21.0837 20.5747 21.01 20.7503 20.8803 20.8801C20.7505 21.0099 20.5749 21.0835 20.3914 21.0851C20.2091 21.0867 20.0334 21.0171 19.9017 20.8912L14.126 15.1155L13.8271 14.8166L13.4827 15.0616C12.4803 15.7743 11.3011 16.1974 10.0742 16.2844C8.8474 16.3715 7.62025 16.1192 6.52729 15.5551C5.43433 14.991 4.51772 14.137 3.87792 13.0866C3.23811 12.0361 2.89979 10.8299 2.90002 9.59994L2.40002 9.59985L2.90002 9.59978C2.89989 8.54532 3.14864 7.50571 3.62605 6.56551C4.10346 5.62531 4.79604 4.81107 5.64747 4.189C6.49889 3.56694 7.48513 3.15462 8.52595 2.98558C9.56678 2.81654 10.6328 2.89555 11.6373 3.21619C12.6419 3.53683 13.5565 4.09004 14.307 4.83083C15.0574 5.57162 15.6223 6.47907 15.9559 7.47938C16.2895 8.47969 16.3823 9.54461 16.2267 10.5875C16.0711 11.6305 15.6715 12.6219 15.0605 13.4813ZM9.60002 4.29985C8.19438 4.29985 6.8463 4.85824 5.85236 5.85218C4.85842 6.84612 4.30002 8.1942 4.30002 9.59985C4.30002 11.0055 4.85842 12.3536 5.85236 13.3475C6.8463 14.3415 8.19438 14.8998 9.60002 14.8998C11.0057 14.8998 12.3537 14.3415 13.3477 13.3475C14.3416 12.3536 14.9 11.0055 14.9 9.59985C14.9 8.1942 14.3416 6.84612 13.3477 5.85218C12.3537 4.85824 11.0057 4.29985 9.60002 4.29985Z" fill="#111826" stroke="#111826"/>
</g>
</svg>
