<svg width="127" height="24" viewBox="0 0 127 24" fill="none" xmlns="http://www.w3.org/2000/svg">
<g clip-path="url(#clip0_1973_123559)">
<path d="M11.9858 15.021C13.6521 15.021 15.003 13.6686 15.003 12.0002C15.003 10.3319 13.6521 8.97949 11.9858 8.97949C10.3195 8.97949 8.96863 10.3319 8.96863 12.0002C8.96863 13.6686 10.3195 15.021 11.9858 15.021Z" fill="#09B8A7"/>
<path d="M19.9466 3.28966C19.9466 3.72153 19.8614 4.14915 19.6959 4.54793C19.5303 4.94671 19.2876 5.30878 18.9817 5.61331L17.8213 6.77514C17.4893 7.10779 17.074 7.34494 16.619 7.46174C16.164 7.57854 15.6861 7.5707 15.2351 7.43904C14.509 7.22659 13.5939 6.97099 12.6987 6.68551C11.6358 6.35687 10.4863 6.46062 9.49918 6.97431C9.42195 7.01718 9.33283 7.03358 9.24542 7.02099C9.15802 7.0084 9.07713 6.96753 9.0151 6.9046L8.99852 6.888C8.96073 6.85037 8.93074 6.80563 8.91027 6.75635C8.88981 6.70707 8.87927 6.65423 8.87927 6.60087C8.87927 6.5475 8.88981 6.49466 8.91027 6.44538C8.93074 6.3961 8.96073 6.35136 8.99852 6.31373L10.6331 4.67389L13.6171 1.68634L14.3134 0.995886C14.7697 0.528104 15.3548 0.207064 15.9942 0.0737479C16.6335 -0.0595684 17.2981 0.000887329 17.9029 0.247398C18.5078 0.493908 19.0256 0.915289 19.3902 1.45775C19.7548 2.00021 19.9496 2.63914 19.9499 3.29298L19.9466 3.28966Z" fill="#09B8A7"/>
<path d="M20.6891 19.9701C20.2577 19.9709 19.8303 19.8859 19.4319 19.7201C19.0335 19.5543 18.672 19.3109 18.3682 19.0041L17.042 17.6763C16.7603 17.3933 16.5597 17.0398 16.4611 16.6526C16.3626 16.2655 16.3697 15.8589 16.4817 15.4755C16.7038 14.7186 16.9989 13.7128 17.3006 12.7136C17.6264 11.6488 17.5216 10.4986 17.0088 9.51032C16.9676 9.43259 16.9521 9.34374 16.9646 9.25662C16.9772 9.1695 17.017 9.08862 17.0785 9.02568V9.00908C17.1163 8.97114 17.1613 8.94104 17.2108 8.92051C17.2603 8.89997 17.3134 8.8894 17.3669 8.8894C17.4205 8.8894 17.4736 8.89997 17.523 8.92051C17.5725 8.94104 17.6175 8.97114 17.6554 9.00908L19.29 10.6456L22.274 13.6331L22.9703 14.3302C23.4375 14.7871 23.7581 15.3729 23.8913 16.013C24.0245 16.6531 23.9641 17.3184 23.7179 17.924C23.4716 18.5296 23.0508 19.048 22.5089 19.413C21.9671 19.778 21.3289 19.9731 20.6759 19.9734L20.6891 19.9701Z" fill="#09B8A7"/>
<path d="M4.02844 20.7138C4.02793 20.2821 4.11261 19.8546 4.27762 19.4559C4.44262 19.0571 4.68471 18.6949 4.98996 18.3901L6.08078 17.298C6.43509 16.9446 6.87781 16.6931 7.36256 16.5699C7.84731 16.4466 8.35624 16.4562 8.83603 16.5976C9.54556 16.8067 10.4142 17.0623 11.2763 17.3245C12.3399 17.6504 13.4887 17.5455 14.4758 17.0324C14.553 16.9914 14.6412 16.9761 14.7276 16.9886C14.814 17.0011 14.8942 17.0409 14.9566 17.1021C14.9945 17.1401 15.0245 17.1851 15.0451 17.2346C15.0656 17.2842 15.0761 17.3373 15.0761 17.3909C15.0761 17.4446 15.0656 17.4977 15.0451 17.5472C15.0245 17.5968 14.9945 17.6418 14.9566 17.6797L13.322 19.3163L10.338 22.3038L9.64503 23.0009C9.35814 23.2922 9.02121 23.5295 8.65036 23.7013C8.15057 23.928 7.60203 24.0258 7.05479 23.9858C6.50755 23.9458 5.97904 23.7692 5.51748 23.4721C5.05593 23.175 4.67603 22.767 4.41246 22.2852C4.14888 21.8033 4.01002 21.2631 4.00854 20.7138H4.02844Z" fill="#09B8A7"/>
<path d="M3.28566 4.03335C4.15619 4.03341 4.99104 4.37969 5.60657 4.996L7.08532 6.47982C7.32102 6.7154 7.4891 7.01011 7.57194 7.33308C7.65477 7.65605 7.64931 7.99538 7.55613 8.31551C7.33067 9.09227 7.00574 10.1943 6.6775 11.3031C6.35222 12.3628 6.45458 13.508 6.96264 14.4931C7.0052 14.5699 7.02144 14.6586 7.00886 14.7455C6.99629 14.8324 6.95559 14.9129 6.89301 14.9744H6.87643C6.83885 15.0123 6.79416 15.0423 6.74494 15.0628C6.69572 15.0833 6.64294 15.0938 6.58964 15.0938C6.53633 15.0938 6.48356 15.0833 6.43434 15.0628C6.38512 15.0423 6.34043 15.0123 6.30284 14.9744L4.66494 13.3379L1.68092 10.3504L0.994595 9.67318C0.701518 9.38699 0.463285 9.04947 0.291691 8.67733C0.0661408 8.17689 -0.0308487 7.62792 0.00954672 7.08038C0.0499421 6.53284 0.22644 6.0041 0.522984 5.54226C0.819528 5.08042 1.2267 4.70015 1.70747 4.43604C2.18824 4.17193 2.72733 4.03236 3.27571 4.03003L3.28566 4.03335Z" fill="#09B8A7"/>
<path d="M65.7878 8.09651C65.417 7.42386 64.8566 6.87544 64.1764 6.51975C63.388 6.12129 62.5128 5.92618 61.63 5.95212H58.2813C57.9296 5.95212 57.5922 6.09201 57.3435 6.34102C57.0948 6.59003 56.9551 6.92776 56.9551 7.27992V17.7131C56.9551 18.0849 57.1024 18.4416 57.3647 18.7048C57.627 18.9681 57.9829 19.1164 58.3543 19.1173C58.7192 19.1173 59.0692 18.9721 59.3272 18.7138C59.5853 18.4554 59.7302 18.105 59.7302 17.7397V15.6019C59.7302 15.3985 59.8109 15.2035 59.9545 15.0597C60.0982 14.9159 60.293 14.8351 60.4961 14.8351H61.5505C62.4449 14.8611 63.3322 14.6698 64.1366 14.2774C64.8226 13.9277 65.3909 13.3841 65.7712 12.7139C66.1583 12.0019 66.3526 11.2008 66.3349 10.3903C66.349 9.5917 66.1608 8.80255 65.7878 8.09651ZM63.2182 11.5621C63.0436 11.8956 62.7703 12.1669 62.4357 12.3388C62.0229 12.5384 61.5676 12.6341 61.1095 12.6177H60.2806C60.2094 12.6181 60.1387 12.6044 60.0728 12.5774C60.0068 12.5504 59.9468 12.5107 59.8963 12.4604C59.8458 12.4101 59.8057 12.3503 59.7783 12.2844C59.7509 12.2186 59.7368 12.1479 59.7369 12.0766V8.6044C59.7369 8.50403 59.7767 8.40778 59.8476 8.33681C59.9184 8.26584 60.0146 8.22597 60.1148 8.22597H61.1095C61.5671 8.21151 62.0216 8.30593 62.4357 8.50149C62.7711 8.66721 63.046 8.9343 63.2215 9.26498C63.4003 9.62086 63.4891 10.0153 63.4801 10.4135C63.4867 10.8119 63.3968 11.206 63.2182 11.5621Z" fill="#111826"/>
<path d="M38.1723 14.9378C38.1723 17.7062 36.7731 19.0871 33.242 19.0871C31.4582 19.0871 30.4901 18.8183 29.6446 18.2805C29.1591 17.9724 28.7751 17.5279 28.5405 17.0025C28.454 16.7995 28.4193 16.5781 28.4397 16.3583C28.4601 16.1386 28.5349 15.9274 28.6574 15.7438C28.7798 15.5603 28.946 15.4102 29.141 15.3071C29.3359 15.204 29.5534 15.1513 29.7739 15.1535H29.9861C30.2286 15.1613 30.465 15.2321 30.6719 15.359C30.8788 15.4859 31.0493 15.6644 31.1664 15.8772C31.4284 16.3187 32.0152 16.5411 33.1558 16.5411C33.6748 16.584 34.1961 16.4901 34.6677 16.2689C34.8861 16.1762 35.0702 16.0177 35.1944 15.8155C35.3186 15.6132 35.3767 15.3771 35.3606 15.1402C35.3606 14.5095 35.1286 14.1178 34.6677 13.9685C34.4721 13.8855 34.1902 13.8158 33.0895 13.7527C31.3388 13.6398 30.5 13.4207 29.88 13.122C28.8124 12.5776 28.2786 11.5231 28.2786 9.9585C28.2786 8.45809 28.7284 7.40138 29.628 6.78838C30.4337 6.23734 31.3687 5.9751 33.1193 5.9751C34.8699 5.9751 35.8281 6.25062 36.6736 6.80165C37.1485 7.10716 37.526 7.54263 37.7611 8.05643C37.8483 8.25932 37.8835 8.48077 37.8636 8.70073C37.8437 8.92069 37.7693 9.1322 37.6472 9.31612C37.525 9.50003 37.359 9.65054 37.1641 9.75402C36.9692 9.85749 36.7516 9.91066 36.531 9.90871H36.4117C36.1683 9.91389 35.9282 9.85189 35.7176 9.72952C35.5071 9.60715 35.3343 9.42911 35.2181 9.21493C34.9694 8.70705 34.3494 8.45477 33.0828 8.45477C32.1379 8.45477 31.8329 8.57759 31.4847 8.81991C31.3418 8.93624 31.2299 9.08634 31.1593 9.25671C31.0887 9.42707 31.0615 9.61235 31.0802 9.79584C31.054 10.0285 31.1086 10.263 31.2348 10.4601C31.361 10.6572 31.5511 10.8047 31.7732 10.878C32.249 11.0234 32.7446 11.0928 33.242 11.0838C35.0722 11.1768 35.9243 11.3726 36.5244 11.6647C37.6252 12.1892 38.1745 13.2802 38.1723 14.9378Z" fill="#111826"/>
<path d="M41.0735 19.0307C40.886 19.0311 40.7003 18.9945 40.5269 18.923C40.3536 18.8514 40.196 18.7464 40.0633 18.6138C39.9305 18.4812 39.8252 18.3237 39.7534 18.1503C39.6815 17.9769 39.6445 17.791 39.6445 17.6033V7.40578C39.6454 7.02691 39.7964 6.66385 40.0643 6.39626C40.3321 6.12867 40.6951 5.97839 41.0735 5.97839C41.4517 5.97839 41.8143 6.12878 42.0817 6.39647C42.349 6.66415 42.4992 7.02721 42.4992 7.40578V17.5933C42.501 17.7817 42.4654 17.9686 42.3945 18.1431C42.3236 18.3177 42.2188 18.4764 42.0862 18.6101C41.9536 18.7438 41.7958 18.8498 41.622 18.922C41.4481 18.9942 41.2617 19.0311 41.0735 19.0307Z" fill="#111826"/>
<path d="M54.6472 15.1469L51.6897 7.32283C51.5397 6.92537 51.272 6.58329 50.9223 6.34242C50.5727 6.10155 50.1579 5.97339 49.7335 5.97511C49.3133 5.97433 48.9026 6.10069 48.5553 6.33763C48.208 6.57457 47.9403 6.91103 47.7873 7.30292L46.4975 10.6988L45.5029 13.3046L44.0639 17.132C43.9834 17.3439 43.9555 17.5723 43.9826 17.7974C44.0097 18.0226 44.0909 18.2378 44.2194 18.4245C44.3479 18.6113 44.5198 18.764 44.7202 18.8696C44.9207 18.9752 45.1437 19.0305 45.3702 19.0307C45.6605 19.0318 45.944 18.9426 46.1816 18.7755C46.4191 18.6085 46.599 18.3717 46.6965 18.0979L47.2734 16.4647C47.3153 16.3461 47.393 16.2433 47.4958 16.1708C47.5985 16.0982 47.7212 16.0594 47.847 16.0598H51.6069C51.7321 16.0596 51.8544 16.0986 51.9565 16.1711C52.0587 16.2437 52.1358 16.3463 52.1771 16.4647L52.3694 16.9992L52.754 18.0913C52.8508 18.366 53.0304 18.604 53.2679 18.7722C53.5054 18.9405 53.7893 19.0308 54.0803 19.0307C54.3089 19.032 54.5343 18.9776 54.7372 18.8721C54.9401 18.7667 55.1143 18.6135 55.2448 18.4256C55.3754 18.2377 55.4583 18.0209 55.4865 17.7938C55.5146 17.5667 55.4872 17.3361 55.4065 17.122L54.6472 15.1469ZM48.7787 13.5735C48.7217 13.5781 48.6646 13.5679 48.6128 13.5439C48.5609 13.5199 48.5162 13.4829 48.4828 13.4364C48.4495 13.39 48.4286 13.3358 48.4224 13.2789C48.4161 13.2221 48.4246 13.1646 48.4471 13.112L48.7787 12.1394L49.465 10.1876C49.4819 10.1376 49.514 10.0941 49.5568 10.0634C49.5996 10.0326 49.651 10.016 49.7037 10.016C49.7564 10.016 49.8078 10.0326 49.8506 10.0634C49.8934 10.0941 49.9256 10.1376 49.9424 10.1876L50.9669 13.112C50.9894 13.1646 50.9979 13.2221 50.9917 13.2789C50.9854 13.3358 50.9646 13.39 50.9312 13.4364C50.8979 13.4829 50.8531 13.5199 50.8013 13.5439C50.7495 13.5679 50.6923 13.5781 50.6354 13.5735H48.7787Z" fill="#111826"/>
<path d="M68.606 19.0307V5.8656H70.1212V19.0307H68.606ZM70.0184 15.4324L69.9919 13.5536H70.2903L74.6005 9.15523H76.4738L71.8751 13.8025H71.7491L70.0184 15.4324ZM74.8724 19.0307L71.0197 14.1444L72.0973 13.0888L76.7988 19.0307H74.8724Z" fill="#111826"/>
<path d="M81.769 19.2533C80.9039 19.2681 80.0523 19.038 79.3121 18.5894C78.6235 18.1647 78.0729 17.5489 77.7273 16.8168C77.3407 15.9861 77.1501 15.0774 77.1703 14.1612C77.1514 13.2376 77.3419 12.3217 77.7273 11.4823C78.067 10.7451 78.6056 10.1174 79.2823 9.66989C79.9736 9.22423 80.7811 8.99324 81.6032 9.00599C82.1214 9.00665 82.6358 9.09417 83.1251 9.26492C83.6345 9.44209 84.1002 9.72616 84.4911 10.0981C84.934 10.5224 85.2743 11.0424 85.4857 11.6184C85.7472 12.3644 85.8708 13.1518 85.8505 13.9421V14.606H78.2478V13.2782H84.3087C84.318 12.7621 84.2044 12.2511 83.9772 11.7877C83.7681 11.3619 83.4442 11.0032 83.0422 10.7521C82.6113 10.4929 82.1157 10.3617 81.6132 10.3736C81.058 10.3593 80.5118 10.5157 80.0482 10.8218C79.6153 11.1122 79.2664 11.5118 79.037 11.9803C78.8023 12.456 78.682 12.98 78.6855 13.5106V14.3869C78.6662 15.0392 78.799 15.6871 79.0734 16.279C79.308 16.7703 79.6846 17.1796 80.1543 17.4541C80.6459 17.7299 81.2023 17.8686 81.7657 17.8558C82.134 17.8605 82.5005 17.8032 82.8499 17.6865C83.1627 17.5785 83.448 17.4028 83.6854 17.172C83.9287 16.9304 84.1155 16.6379 84.2325 16.3155L85.698 16.7272C85.5451 17.2186 85.2781 17.6669 84.9188 18.035C84.5407 18.426 84.081 18.7287 83.5727 18.9213C82.9976 19.1443 82.3857 19.257 81.769 19.2533Z" fill="#111826"/>
<path d="M87.7667 19.0307V9.15515H89.2322V10.6489H89.335C89.5179 10.1539 89.8611 9.73434 90.3098 9.45723C90.7856 9.15299 91.34 8.99489 91.9046 9.00246C92.014 9.00246 92.1532 9.00246 92.319 9.00246C92.4848 9.00246 92.6141 9.00246 92.7003 9.01905V10.5626C92.6473 10.5626 92.5312 10.5294 92.3489 10.5029C92.1591 10.473 91.9673 10.4586 91.7753 10.4597C91.3295 10.4515 90.8886 10.5542 90.4921 10.7585C90.1284 10.9481 89.8226 11.2325 89.6069 11.5817C89.3859 11.9407 89.271 12.355 89.2753 12.7767V19.0307H87.7667Z" fill="#111826"/>
<path d="M94.0995 9.15531H95.6147V19.7512C95.6283 20.2944 95.5219 20.834 95.303 21.3312C95.1065 21.7664 94.7782 22.1288 94.3647 22.3669C93.8821 22.6286 93.3382 22.7559 92.7898 22.7354H92.4814V21.3213H92.7633C92.9525 21.338 93.1431 21.3097 93.3194 21.2388C93.4957 21.1678 93.6528 21.0562 93.7778 20.913C94.0164 20.5744 94.1333 20.1648 94.1094 19.7512L94.0995 9.15531ZM94.8455 7.49556C94.7047 7.49802 94.5649 7.4726 94.434 7.42076C94.3032 7.36892 94.1838 7.29168 94.0829 7.19349C93.984 7.10037 93.9052 6.98799 93.8514 6.86325C93.7976 6.73852 93.7698 6.60406 93.7698 6.46818C93.7698 6.33229 93.7976 6.19784 93.8514 6.0731C93.9052 5.94836 93.984 5.83598 94.0829 5.74286C94.2889 5.54891 94.561 5.44092 94.8438 5.44092C95.1266 5.44092 95.3987 5.54891 95.6047 5.74286C95.7036 5.83598 95.7824 5.94836 95.8362 6.0731C95.8901 6.19784 95.9178 6.33229 95.9178 6.46818C95.9178 6.60406 95.8901 6.73852 95.8362 6.86325C95.7824 6.98799 95.7036 7.10037 95.6047 7.19349C95.5056 7.29412 95.3873 7.37387 95.2569 7.42803C95.1265 7.48219 94.9866 7.50967 94.8455 7.50884V7.49556Z" fill="#111826"/>
<path d="M100.893 19.2529C100.309 19.2687 99.7281 19.1554 99.1924 18.9209C98.6974 18.6988 98.2764 18.3394 97.9789 17.8853C97.6672 17.3965 97.51 16.825 97.528 16.2454C97.5063 15.763 97.6213 15.2844 97.8595 14.8645C98.0799 14.5142 98.3872 14.2272 98.7514 14.0313C99.1413 13.8253 99.5573 13.6734 99.9881 13.5799C100.439 13.4803 100.893 13.3973 101.354 13.3375C101.951 13.2612 102.438 13.2014 102.813 13.1616C103.098 13.1462 103.377 13.0751 103.635 12.9525C103.723 12.8999 103.794 12.8238 103.84 12.7329C103.886 12.6419 103.906 12.5397 103.897 12.438V12.3882C103.914 12.1194 103.876 11.85 103.788 11.5957C103.699 11.3415 103.56 11.1076 103.38 10.9077C103.168 10.7186 102.92 10.5744 102.651 10.4837C102.382 10.393 102.098 10.3577 101.815 10.3799C101.218 10.3438 100.626 10.506 100.131 10.8413C99.7637 11.1049 99.4657 11.4534 99.262 11.857L97.8098 11.3425C98.0296 10.7948 98.3843 10.3118 98.8409 9.93838C99.2582 9.60728 99.739 9.3655 100.253 9.228C100.748 9.09661 101.257 9.02857 101.769 9.02551C102.136 9.03185 102.502 9.06961 102.863 9.13838C103.287 9.21905 103.694 9.37533 104.063 9.59979C104.473 9.85574 104.807 10.2182 105.028 10.6487C105.312 11.2314 105.446 11.8764 105.416 12.5243V19.0305H103.901V17.7027H103.821C103.689 17.9596 103.515 18.1929 103.307 18.3931C103.032 18.6604 102.708 18.8713 102.352 19.0139C101.887 19.1918 101.391 19.2731 100.893 19.2529ZM101.125 17.8886C101.654 17.906 102.177 17.7847 102.644 17.5367C103.033 17.3228 103.357 17.0074 103.582 16.6239C103.795 16.2672 103.909 15.8606 103.914 15.4454V14.0678C103.794 14.1729 103.649 14.245 103.493 14.277C103.248 14.346 102.999 14.3993 102.747 14.4363C102.465 14.4828 102.193 14.5193 101.931 14.5525L101.291 14.6322C100.917 14.6812 100.549 14.7645 100.19 14.8811C99.8776 14.9777 99.5947 15.1525 99.3681 15.389C99.151 15.6433 99.0395 15.9711 99.0565 16.3052C99.0415 16.5382 99.0881 16.7711 99.1917 16.9804C99.2954 17.1896 99.4523 17.3678 99.6466 17.4969C100.088 17.7776 100.603 17.9177 101.125 17.8985V17.8886Z" fill="#111826"/>
<path d="M112.504 7.38904H111.672C111.229 7.38904 110.87 7.7487 110.87 8.19236V19.5583C110.87 20.002 111.229 20.3617 111.672 20.3617H112.504C112.948 20.3617 113.307 20.002 113.307 19.5583V8.19236C113.307 7.7487 112.948 7.38904 112.504 7.38904Z" fill="#09B8A7"/>
<path d="M112.508 7.47215C112.698 7.47215 112.881 7.54758 113.015 7.68196C113.15 7.81633 113.226 7.9987 113.227 8.18916V19.5585C113.226 19.7489 113.15 19.9313 113.015 20.0657C112.881 20.2 112.698 20.2755 112.508 20.2755H111.672C111.482 20.2755 111.299 20.2 111.165 20.0657C111.03 19.9313 110.954 19.7489 110.953 19.5585V8.18916C110.954 7.9987 111.03 7.81633 111.165 7.68196C111.299 7.54758 111.482 7.47215 111.672 7.47215H112.508ZM112.508 7.30618H111.672C111.438 7.30617 111.213 7.3991 111.047 7.56459C110.882 7.73009 110.788 7.95468 110.787 8.18916V19.5585C110.788 19.7929 110.882 20.0175 111.047 20.183C111.213 20.3485 111.438 20.4414 111.672 20.4414H112.508C112.742 20.4414 112.967 20.3485 113.133 20.183C113.298 20.0175 113.392 19.7929 113.393 19.5585V8.18916C113.393 7.9541 113.3 7.72866 113.134 7.56245C112.968 7.39623 112.743 7.30286 112.508 7.30286V7.30618Z" fill="#09B8A7"/>
<path d="M116.868 20.3583C116.557 20.3583 116.259 20.235 116.039 20.0153C115.819 19.7956 115.695 19.4976 115.694 19.1865V8.56412C115.695 8.25304 115.819 7.955 116.039 7.73534C116.259 7.51568 116.557 7.39233 116.868 7.39233H120.479C124.278 7.39233 126.835 9.99814 126.835 13.8786C126.835 17.7591 124.278 20.3616 120.479 20.3616L116.868 20.3583ZM119.149 9.7359C118.88 9.7359 118.622 9.84292 118.432 10.0334C118.241 10.2239 118.135 10.4823 118.135 10.7517V16.9625C118.135 17.0959 118.161 17.2279 118.212 17.3512C118.263 17.4744 118.338 17.5864 118.432 17.6807C118.526 17.775 118.638 17.8499 118.761 17.9009C118.884 17.952 119.016 17.9782 119.149 17.9782H120.475C121.541 17.9805 122.566 17.5729 123.34 16.8396C124.056 16.1193 124.418 15.1201 124.408 13.872C124.408 12.4479 123.569 9.74918 120.492 9.74918L119.149 9.7359Z" fill="#09B8A7"/>
<path d="M120.479 7.47215C124.229 7.47215 126.752 10.0448 126.752 13.8755C126.752 17.7062 124.229 20.2755 120.479 20.2755H116.868C116.725 20.2759 116.583 20.2481 116.451 20.1935C116.319 20.139 116.198 20.0589 116.097 19.9577C115.996 19.8566 115.915 19.7364 115.86 19.6041C115.805 19.4718 115.777 19.3299 115.777 19.1867V8.56427C115.777 8.421 115.805 8.27915 115.86 8.14683C115.915 8.01452 115.996 7.89434 116.097 7.7932C116.198 7.69205 116.319 7.61192 116.451 7.5574C116.583 7.50287 116.725 7.47503 116.868 7.47547H120.479M119.152 18.0647H120.479C121.56 18.0626 122.601 17.647 123.386 16.9029C124.119 16.1626 124.487 15.1468 124.477 13.8755C124.457 10.556 121.851 9.66966 120.479 9.66966H119.152C119.008 9.66966 118.866 9.69808 118.733 9.7533C118.599 9.80852 118.478 9.88945 118.376 9.99148C118.275 10.0935 118.194 10.2146 118.139 10.3479C118.083 10.4812 118.055 10.6241 118.055 10.7684V16.9626C118.055 17.1069 118.083 17.2498 118.139 17.3831C118.194 17.5164 118.275 17.6375 118.376 17.7395C118.478 17.8416 118.599 17.9225 118.733 17.9777C118.866 18.0329 119.008 18.0614 119.152 18.0614M120.479 7.30618H116.868C116.535 7.30617 116.216 7.43827 115.981 7.67349C115.745 7.90871 115.612 8.22786 115.611 8.56095V19.1834C115.612 19.5164 115.745 19.8356 115.981 20.0708C116.216 20.306 116.535 20.4381 116.868 20.4381H120.479C124.312 20.4381 126.918 17.7825 126.918 13.8722C126.918 9.96178 124.312 7.30286 120.479 7.30286V7.30618ZM119.152 17.8954C119.03 17.8954 118.909 17.8713 118.796 17.8244C118.683 17.7775 118.58 17.7088 118.494 17.6222C118.407 17.5356 118.339 17.4327 118.292 17.3196C118.245 17.2064 118.221 17.0851 118.221 16.9626V10.7651C118.221 10.6426 118.245 10.5213 118.292 10.4081C118.339 10.295 118.407 10.1921 118.494 10.1055C118.58 10.0189 118.683 9.9502 118.796 9.90332C118.909 9.85644 119.03 9.83232 119.152 9.83232H120.479C121.768 9.83232 124.292 10.619 124.312 13.8755C124.331 17.1319 121.768 17.8954 120.479 17.8954H119.152Z" fill="#09B8A7"/>
</g>
<defs>
<clipPath id="clip0_1973_123559">
<rect width="127" height="24" fill="white"/>
</clipPath>
</defs>
</svg>
