<svg
    width="83"
    height="130"
    viewBox="0 0 83 130"
    fill="none"
    xmlns="http://www.w3.org/2000/svg"
>
<path d="M71.534 -28H10.5493V76.4185H71.534V-28Z" fill="#B0FCF4" />
<path
        d="M71.534 40.1752V76.4597H10.5493V40.1752C14.3989 35.9054 19.1023 32.4916 24.355 30.1549C29.6077 27.8183 35.2927 26.6108 41.0417 26.6108C46.7907 26.6108 52.4756 27.8183 57.7283 30.1549C62.981 32.4916 67.6845 35.9054 71.534 40.1752Z"
        fill="#96F1E8"
    />
<path
        d="M82.0834 79.8035V91.0516C82.156 98.2436 80.1703 105.306 76.3605 111.407C72.5508 117.507 67.0758 122.391 60.5815 125.482C54.5061 128.413 47.8409 129.916 41.0955 129.876C18.3841 129.876 0.0134277 113.723 0.0134277 91.0516V80.4082V79.8035H1.58575C4.03114 71.2437 9.19339 63.7111 16.294 58.3416C23.3946 52.9722 32.0486 50.057 40.9508 50.0358C49.853 50.0145 58.5207 52.8884 65.6469 58.2239C72.773 63.5594 77.9711 71.0673 80.4573 79.6153C80.4573 79.6153 80.4573 79.7363 80.4573 79.8035H82.0834Z"
        fill="#379299"
    />
<path
        d="M52.6521 121.586V128.399C55.3549 127.692 57.9797 126.715 60.4869 125.483V117.514L52.6521 121.586Z"
        fill="#58A4AA"
    />
<path
        d="M82.0834 76.417V91.0517C82.156 98.2436 80.1703 105.306 76.3605 111.407C72.5508 117.507 67.0758 122.391 60.5815 125.482V117.512L80.5111 79.6154L82.0834 76.417Z"
        fill="#147F87"
    />
<path
        d="M41.0551 123.253C63.7219 123.253 82.0969 104.878 82.0969 82.2116C82.0969 59.5449 63.7219 41.1699 41.0551 41.1699C18.3884 41.1699 0.0134277 59.5449 0.0134277 82.2116C0.0134277 104.878 18.3884 123.253 41.0551 123.253Z"
        fill="#09B8A7"
    />
<path
        d="M10.5493 82.1978C10.5493 82.1978 16.2742 56.503 41.0551 56.503C65.836 56.503 71.5475 82.1978 71.5475 82.1978V57.3631L41.0551 50.1196L11.0465 57.4571L10.5493 82.1978Z"
        fill="#379299"
    />
<path
        d="M56.8188 72.3603H25.2916C24.7983 72.3531 24.3084 72.4442 23.8506 72.628C23.3927 72.8119 22.976 73.085 22.6246 73.4314C22.2732 73.7777 21.9942 74.1905 21.8038 74.6457C21.6134 75.1009 21.5153 75.5894 21.5154 76.0828V77.2519C21.5297 77.789 21.7265 78.3053 22.0734 78.7156C22.4202 79.126 22.8964 79.406 23.4237 79.5096L27.8719 80.4503C30.5771 81.0246 33.216 81.8757 35.7469 82.9902C35.9491 82.7434 36.2033 82.5443 36.4914 82.4072C36.7795 82.2702 37.0943 82.1985 37.4133 82.1974H44.6971C45.0153 82.2002 45.3288 82.2741 45.6148 82.4136C45.9007 82.5531 46.152 82.7547 46.3501 83.0037C48.8851 81.8786 51.5345 81.0315 54.252 80.4772L58.6733 79.5365C59.1876 79.4133 59.6457 79.1214 59.9746 78.7072C60.3035 78.2931 60.4841 77.7807 60.4875 77.2519V76.0828C60.4876 75.1047 60.1028 74.166 59.4163 73.4694C58.7298 72.7728 57.7967 72.3744 56.8188 72.3603Z"
        fill="white"
    />
<path
        d="M56.8188 99.2792C57.7967 99.2651 58.7298 98.8667 59.4163 98.1701C60.1028 97.4735 60.4876 96.5348 60.4875 95.5567V82.8438L54.9508 84.0129C52.1344 84.5643 49.3983 85.4673 46.807 86.7006V89.3212C46.807 89.895 46.579 90.4453 46.1733 90.8511C45.7675 91.2569 45.2172 91.4848 44.6433 91.4848H37.4133C36.8383 91.4848 36.2865 91.2573 35.8786 90.8519C35.4708 90.4466 35.2398 89.8963 35.2363 89.3212V86.7678C32.6638 85.5574 29.9573 84.6552 27.1731 84.0801L21.5154 82.8438V95.5567C21.5154 96.0467 21.6121 96.5319 21.8 96.9844C21.9879 97.4369 22.2633 97.8479 22.6104 98.1937C22.9575 98.5396 23.3695 98.8135 23.8227 98.9998C24.2759 99.186 24.7614 99.281 25.2513 99.2792H56.8188Z"
        fill="white"
    />
<path
        d="M48.3927 62.7368H33.6101C33.2137 62.7351 32.8208 62.8116 32.454 62.9621C32.0872 63.1126 31.7538 63.3341 31.4729 63.6138C31.1919 63.8935 30.969 64.2259 30.8168 64.592C30.6647 64.9581 30.5864 65.3507 30.5864 65.7471V68.7574H33.9058V67.2522C33.9058 66.935 34.0318 66.6308 34.2561 66.4065C34.4804 66.1822 34.7846 66.0562 35.1018 66.0562H46.8472C47.1644 66.0562 47.4687 66.1822 47.693 66.4065C47.9173 66.6308 48.0433 66.935 48.0433 67.2522V68.7574H51.3626V65.7471C51.3627 64.9557 51.0511 64.1961 50.4952 63.6327C49.9394 63.0693 49.184 62.7474 48.3927 62.7368Z"
        fill="white"
    />
<path
        d="M41.0552 46.5454C48.1099 46.5454 55.0061 48.6375 60.8717 52.5572C66.7373 56.4768 71.3087 62.0479 74.0078 68.5659C76.7069 75.0838 77.4124 82.2558 76.0351 89.1747C74.6578 96.0937 71.2596 102.449 66.2703 107.436C61.2809 112.424 54.9245 115.82 48.0051 117.194C41.0856 118.569 33.9139 117.861 27.397 115.159C20.8801 112.458 15.3107 107.884 11.3932 102.017C7.4758 96.1499 5.38627 89.2529 5.38893 82.1982C5.40315 72.7445 9.16583 63.6823 15.8519 56.9988C22.5379 50.3153 31.6015 46.5561 41.0552 46.5454ZM41.0552 41.1699C32.9367 41.1673 24.9999 43.5724 18.2486 48.0811C11.4972 52.5898 6.23472 58.9995 3.1267 66.4994C0.0186885 73.9994 -0.795207 82.2526 0.787968 90.2152C2.37114 98.1777 6.28026 105.492 12.0209 111.233C17.7615 116.973 25.0756 120.882 33.0382 122.465C41.0008 124.049 49.254 123.235 56.7539 120.127C64.2539 117.019 70.6636 111.756 75.1723 105.005C79.681 98.2535 82.0861 90.3166 82.0835 82.1982C82.0799 71.3179 77.7561 60.8843 70.0626 53.1908C62.3691 45.4972 51.9355 41.1735 41.0552 41.1699Z"
        fill="#82DBD2"
    />
<path
        d="M41.0541 51.7185C47.0849 51.7212 52.9795 53.5121 57.9925 56.8649C63.0055 60.2176 66.9117 64.9816 69.2171 70.5543C71.5225 76.1271 72.1237 82.2584 70.9445 88.1728C69.7654 94.0872 66.8588 99.5191 62.5925 103.782C58.3262 108.044 52.8917 110.946 46.9763 112.12C41.0608 113.294 34.9301 112.687 29.3593 110.377C23.7886 108.067 19.0281 104.156 15.6798 99.1403C12.3314 94.1244 10.5457 88.2282 10.5483 82.1974C10.559 74.1113 13.7769 66.3596 19.4959 60.6431C25.2149 54.9266 32.968 51.7122 41.0541 51.7051M41.0541 46.3296C33.9601 46.3296 27.0255 48.4332 21.127 52.3744C15.2286 56.3156 10.6313 61.9174 7.91657 68.4714C5.20182 75.0254 4.49152 82.2372 5.87549 89.1949C7.25945 96.1526 10.6755 102.544 15.6917 107.56C20.7079 112.576 27.099 115.992 34.0567 117.376C41.0143 118.76 48.2262 118.05 54.7802 115.335C61.3341 112.62 66.9359 108.023 70.8771 102.125C74.8183 96.2261 76.922 89.2914 76.922 82.1974C76.9184 72.687 73.1379 63.5673 66.4118 56.8437C59.6856 50.1201 50.5645 46.343 41.0541 46.343V46.3296Z"
        fill="#39C6B7"
    />
</svg>
