<svg
    width="20"
    height="16"
    viewBox="0 0 20 16"
    fill="none"
    xmlns="http://www.w3.org/2000/svg"
>
<path
        fill-rule="evenodd"
        clip-rule="evenodd"
        d="M2.80002 0.800049C2.1635 0.800049 1.55306 1.05291 1.10297 1.50299C0.652881 1.95308 0.400024 2.56353 0.400024 3.20005V8.00005C0.400024 8.63657 0.652881 9.24702 1.10297 9.69711C1.55306 10.1472 2.1635 10.4 2.80002 10.4V3.20005H14.8C14.8 2.56353 14.5472 1.95308 14.0971 1.50299C13.647 1.05291 13.0365 0.800049 12.4 0.800049H2.80002ZM5.20002 8.00005C5.20002 7.36353 5.45288 6.75308 5.90297 6.30299C6.35306 5.85291 6.96351 5.60005 7.60002 5.60005H17.2C17.8365 5.60005 18.447 5.85291 18.8971 6.30299C19.3472 6.75308 19.6 7.36353 19.6 8.00005V12.8C19.6 13.4366 19.3472 14.047 18.8971 14.4971C18.447 14.9472 17.8365 15.2 17.2 15.2H7.60002C6.96351 15.2 6.35306 14.9472 5.90297 14.4971C5.45288 14.047 5.20002 13.4366 5.20002 12.8V8.00005ZM12.4 12.8C13.0365 12.8 13.647 12.5472 14.0971 12.0971C14.5472 11.647 14.8 11.0366 14.8 10.4C14.8 9.76353 14.5472 9.15308 14.0971 8.70299C13.647 8.25291 13.0365 8.00005 12.4 8.00005C11.7635 8.00005 11.1531 8.25291 10.703 8.70299C10.2529 9.15308 10 9.76353 10 10.4C10 11.0366 10.2529 11.647 10.703 12.0971C11.1531 12.5472 11.7635 12.8 12.4 12.8Z"
        fill="#009A6A"
    />
</svg>
