<svg
    width="24"
    height="24"
    viewBox="0 0 24 24"
    fill="none"
    xmlns="http://www.w3.org/2000/svg"
>
<path
        fill-rule="evenodd"
        clip-rule="evenodd"
        d="M3.60002 3.59998C3.28176 3.59998 2.97654 3.7264 2.7515 3.95145C2.52645 4.17649 2.40002 4.48172 2.40002 4.79998C2.40002 5.11824 2.52645 5.42346 2.7515 5.6485C2.97654 5.87355 3.28176 5.99998 3.60002 5.99998V15.6C3.60002 16.2365 3.85288 16.8469 4.30297 17.297C4.75306 17.7471 5.3635 18 6.00002 18H9.10322L7.55162 19.5516C7.43701 19.6623 7.34559 19.7947 7.2827 19.9411C7.21981 20.0875 7.18671 20.245 7.18532 20.4043C7.18394 20.5636 7.2143 20.7216 7.27464 20.8691C7.33498 21.0166 7.42408 21.1506 7.53675 21.2632C7.64942 21.3759 7.7834 21.465 7.93088 21.5254C8.07836 21.5857 8.23637 21.6161 8.39571 21.6147C8.55504 21.6133 8.7125 21.5802 8.85891 21.5173C9.00531 21.4544 9.13773 21.363 9.24842 21.2484L12 18.4968L14.7516 21.2484C14.9779 21.467 15.2811 21.5879 15.5957 21.5852C15.9103 21.5825 16.2113 21.4562 16.4338 21.2338C16.6563 21.0113 16.7825 20.7103 16.7852 20.3957C16.788 20.081 16.667 19.7779 16.4484 19.5516L14.8968 18H18C18.6365 18 19.247 17.7471 19.6971 17.297C20.1472 16.8469 20.4 16.2365 20.4 15.6V5.99998C20.7183 5.99998 21.0235 5.87355 21.2486 5.6485C21.4736 5.42346 21.6 5.11824 21.6 4.79998C21.6 4.48172 21.4736 4.17649 21.2486 3.95145C21.0235 3.7264 20.7183 3.59998 20.4 3.59998H3.60002ZM17.6484 9.24837C17.867 9.02205 17.988 8.71893 17.9852 8.40429C17.9825 8.08966 17.8563 7.78868 17.6338 7.56619C17.4113 7.3437 17.1103 7.2175 16.7957 7.21477C16.4811 7.21203 16.1779 7.33299 15.9516 7.55158L12 11.5032L10.4484 9.95158C10.2234 9.72661 9.91822 9.60023 9.60002 9.60023C9.28183 9.60023 8.97666 9.72661 8.75163 9.95158L6.35162 12.3516C6.23701 12.4623 6.14559 12.5947 6.0827 12.7411C6.01981 12.8875 5.98671 13.045 5.98532 13.2043C5.98394 13.3636 6.0143 13.5216 6.07464 13.6691C6.13498 13.8166 6.22408 13.9506 6.33675 14.0632C6.44942 14.1759 6.5834 14.265 6.73088 14.3254C6.87836 14.3857 7.03637 14.4161 7.19571 14.4147C7.35504 14.4133 7.51251 14.3802 7.65891 14.3173C7.80531 14.2544 7.93773 14.163 8.04842 14.0484L9.60002 12.4968L11.1516 14.0484C11.3767 14.2733 11.6818 14.3997 12 14.3997C12.3182 14.3997 12.6234 14.2733 12.8484 14.0484L17.6484 9.24837Z"
        fill="#2662EB"
    />
</svg>
