<svg
    width="20"
    height="20"
    viewBox="0 0 20 20"
    fill="none"
    xmlns="http://www.w3.org/2000/svg"
>
<path
        fill-rule="evenodd"
        clip-rule="evenodd"
        d="M16.707 5.29279C16.8945 5.48031 16.9998 5.73462 16.9998 5.99979C16.9998 6.26495 16.8945 6.51926 16.707 6.70679L8.70704 14.7068C8.51951 14.8943 8.26521 14.9996 8.00004 14.9996C7.73488 14.9996 7.48057 14.8943 7.29304 14.7068L3.29304 10.7068C3.11088 10.5182 3.01009 10.2656 3.01237 10.0034C3.01465 9.74119 3.11981 9.49038 3.30522 9.30497C3.49063 9.11956 3.74144 9.01439 4.00364 9.01211C4.26584 9.00983 4.51844 9.11063 4.70704 9.29279L8.00004 12.5858L15.293 5.29279C15.4806 5.10532 15.7349 5 16 5C16.2652 5 16.5195 5.10532 16.707 5.29279Z"
        fill="#09B8A7"
    />
</svg>
