<svg
    width="24"
    height="24"
    viewBox="0 0 24 24"
    fill="none"
    xmlns="http://www.w3.org/2000/svg"
>
<path
        fill-rule="evenodd"
        clip-rule="evenodd"
        d="M14.7791 3.66116C14.9287 3.71092 15.067 3.78967 15.1861 3.8929C15.3053 3.99613 15.4029 4.12182 15.4734 4.26279C15.544 4.40376 15.586 4.55724 15.5972 4.71447C15.6085 4.87171 15.5886 5.02961 15.5387 5.17916L10.7387 19.5792C10.6382 19.8812 10.4217 20.1309 10.1371 20.2733C9.85238 20.4158 9.52277 20.4393 9.22074 20.3388C8.91871 20.2382 8.669 20.0218 8.52655 19.7371C8.3841 19.4524 8.36057 19.1228 8.46114 18.8208L13.2611 4.42076C13.3109 4.27119 13.3897 4.13289 13.4929 4.01376C13.5961 3.89463 13.7218 3.79701 13.8628 3.72647C14.0037 3.65593 14.1572 3.61385 14.3145 3.60265C14.4717 3.59144 14.6296 3.61132 14.7791 3.66116ZM6.84834 7.55156C7.0733 7.77659 7.19968 8.08176 7.19968 8.39996C7.19968 8.71815 7.0733 9.02332 6.84834 9.24836L4.09674 12L6.84834 14.7516C6.96295 14.8623 7.05437 14.9947 7.11726 15.1411C7.18015 15.2875 7.21325 15.4449 7.21464 15.6043C7.21602 15.7636 7.18566 15.9216 7.12533 16.0691C7.06499 16.2166 6.97588 16.3506 6.86321 16.4632C6.75054 16.5759 6.61656 16.665 6.46908 16.7253C6.32161 16.7857 6.16359 16.816 6.00426 16.8147C5.84492 16.8133 5.68746 16.7802 5.54105 16.7173C5.39465 16.6544 5.26224 16.563 5.15154 16.4484L1.55154 12.8484C1.32657 12.6233 1.2002 12.3182 1.2002 12C1.2002 11.6818 1.32657 11.3766 1.55154 11.1516L5.15154 7.55156C5.37657 7.32659 5.68174 7.20021 5.99994 7.20021C6.31814 7.20021 6.62331 7.32659 6.84834 7.55156ZM17.1515 7.55156C17.3766 7.32659 17.6817 7.20021 17.9999 7.20021C18.3181 7.20021 18.6233 7.32659 18.8483 7.55156L22.4483 11.1516C22.6733 11.3766 22.7997 11.6818 22.7997 12C22.7997 12.3182 22.6733 12.6233 22.4483 12.8484L18.8483 16.4484C18.7376 16.563 18.6052 16.6544 18.4588 16.7173C18.3124 16.7802 18.155 16.8133 17.9956 16.8147C17.8363 16.816 17.6783 16.7857 17.5308 16.7253C17.3833 16.665 17.2493 16.5759 17.1367 16.4632C17.024 16.3506 16.9349 16.2166 16.8746 16.0691C16.8142 15.9216 16.7839 15.7636 16.7852 15.6043C16.7866 15.4449 16.8197 15.2875 16.8826 15.1411C16.9455 14.9947 17.0369 14.8623 17.1515 14.7516L19.9031 12L17.1515 9.24836C16.9266 9.02332 16.8002 8.71815 16.8002 8.39996C16.8002 8.08176 16.9266 7.77659 17.1515 7.55156Z"
        fill="#2662EB"
    />
</svg>
