<svg
    width="24"
    height="24"
    viewBox="0 0 24 24"
    fill="none"
    xmlns="http://www.w3.org/2000/svg"
>
<path
        fill-rule="evenodd"
        clip-rule="evenodd"
        d="M8.12803 9.15502C7.53179 9.86811 6.69201 10.3344 5.7715 10.4636C4.85099 10.5927 3.91532 10.3754 3.14588 9.85392C2.37645 9.3324 1.82805 8.54377 1.60701 7.64091C1.38597 6.73805 1.50803 5.78528 1.94953 4.9673C2.39103 4.14932 3.12052 3.5244 3.99657 3.21369C4.87263 2.90298 5.83284 2.92861 6.69107 3.28562C7.5493 3.64262 8.24441 4.30557 8.64164 5.14594C9.03887 5.98631 9.10993 6.94424 8.84103 7.83402L9.97703 8.49002C10.0693 8.54325 10.1492 8.61554 10.2114 8.70207C10.2736 8.7886 10.3166 8.88738 10.3376 8.99184C10.3586 9.09629 10.3571 9.20403 10.3332 9.30786C10.3093 9.41169 10.2636 9.50925 10.199 9.59402L10.193 9.60102C10.0751 9.75611 9.90145 9.85922 9.70883 9.88852C9.51621 9.91783 9.31975 9.87102 9.16103 9.75802C9.12452 9.73226 9.08681 9.70823 9.04803 9.68602L8.12803 9.15502ZM3.30103 5.62502C3.5899 5.12323 4.06109 4.75211 4.61659 4.58885C5.1721 4.42559 5.76916 4.48277 6.28358 4.74848C6.79801 5.0142 7.1902 5.46799 7.37859 6.01549C7.56697 6.56298 7.53705 7.16203 7.29503 7.68802C7.24137 7.75705 7.20009 7.83487 7.17303 7.91802C6.86896 8.43148 6.37338 8.80312 5.7953 8.95118C5.21721 9.09924 4.60399 9.01159 4.09053 8.70752C3.57708 8.40345 3.20544 7.90786 3.05738 7.32978C2.90932 6.7517 2.99696 6.13848 3.30103 5.62502ZM13.348 8.27202C12.5193 8.52483 11.7692 8.98567 11.1691 9.6106C10.569 10.2355 10.139 11.0038 9.92003 11.842C9.81903 12.229 9.76203 12.632 9.75503 13.044C9.75085 13.2882 9.68353 13.5271 9.55964 13.7376C9.43575 13.9481 9.2595 14.1229 9.04803 14.245L8.08803 14.799C7.4804 14.0956 6.63322 13.6428 5.71074 13.5285C4.78826 13.4142 3.85618 13.6464 3.09522 14.1803C2.33426 14.7141 1.79861 15.5115 1.59213 16.4178C1.38565 17.3241 1.52305 18.2748 1.97767 19.0856C2.4323 19.8964 3.17178 20.5095 4.05275 20.806C4.93372 21.1026 5.89341 21.0614 6.74579 20.6906C7.59816 20.3198 8.28249 19.6457 8.6661 18.799C9.04971 17.9523 9.10528 16.9934 8.82203 16.108L22.551 8.18202C22.6795 8.10785 22.7831 7.99724 22.8487 7.86419C22.9143 7.73114 22.939 7.58162 22.9196 7.43454C22.9002 7.28747 22.8377 7.14944 22.7399 7.03792C22.642 6.9264 22.5133 6.84639 22.37 6.80802L21.567 6.59302C20.6167 6.33818 19.614 6.35551 18.673 6.64302L13.348 8.27202ZM4.12503 15.302C3.86708 15.4487 3.64069 15.6449 3.45888 15.8794C3.27708 16.1139 3.14346 16.3821 3.06571 16.6685C2.98797 16.9548 2.96763 17.2537 3.00588 17.548C3.04412 17.8422 3.1402 18.126 3.28857 18.383C3.43693 18.64 3.63467 18.8651 3.87038 19.0453C4.10609 19.2256 4.37513 19.3574 4.66201 19.4332C4.94888 19.5091 5.24792 19.5274 5.54192 19.4872C5.83591 19.447 6.11905 19.3491 6.37503 19.199C6.8876 18.8985 7.2605 18.4075 7.41237 17.8331C7.56424 17.2587 7.48273 16.6475 7.18565 16.133C6.88857 15.6184 6.40002 15.2423 5.82663 15.0866C5.25323 14.9309 4.64154 15.0084 4.12503 15.302ZM12 12.75C12.1989 12.75 12.3897 12.671 12.5304 12.5303C12.671 12.3897 12.75 12.1989 12.75 12C12.75 11.8011 12.671 11.6103 12.5304 11.4697C12.3897 11.329 12.1989 11.25 12 11.25C11.8011 11.25 11.6104 11.329 11.4697 11.4697C11.3291 11.6103 11.25 11.8011 11.25 12C11.25 12.1989 11.3291 12.3897 11.4697 12.5303C11.6104 12.671 11.8011 12.75 12 12.75Z"
        fill="#009A6A"
    />
<path
        d="M16.372 12.615C16.4861 12.5492 16.6154 12.5145 16.747 12.5145C16.8787 12.5145 17.008 12.5492 17.122 12.615L22.552 15.75C22.6805 15.8243 22.7841 15.9349 22.8496 16.0681C22.9151 16.2012 22.9397 16.3507 22.9202 16.4978C22.9008 16.6449 22.8381 16.7829 22.7401 16.8944C22.6422 17.0059 22.5134 17.0858 22.37 17.124L21.568 17.339C20.6177 17.5935 19.6149 17.5758 18.674 17.288L13.527 15.714C13.3872 15.6714 13.2629 15.5888 13.1694 15.4765C13.0759 15.3641 13.0173 15.2269 13.0007 15.0817C12.9841 14.9364 13.0103 14.7895 13.0761 14.659C13.1419 14.5285 13.2444 14.4201 13.371 14.347L16.372 12.615Z"
        fill="#009A6A"
    />
</svg>
