<svg
    width="24"
    height="24"
    viewBox="0 0 24 24"
    fill="none"
    xmlns="http://www.w3.org/2000/svg"
>
<path
        d="M14.3796 2.28838C14.421 2.0944 14.3971 1.89218 14.3117 1.71316C14.2263 1.53415 14.0841 1.38836 13.9073 1.29845C13.7305 1.20855 13.529 1.17956 13.334 1.21601C13.1391 1.25245 12.9616 1.35228 12.8292 1.49998L2.6292 12.9C2.51338 13.0295 2.43751 13.1897 2.41076 13.3614C2.38401 13.5331 2.40751 13.7088 2.47844 13.8674C2.54936 14.026 2.66468 14.1607 2.81046 14.2552C2.95625 14.3497 3.12627 14.4 3.3 14.4H11.1864L9.6204 21.7116C9.57904 21.9056 9.60291 22.1078 9.68832 22.2868C9.77372 22.4658 9.91587 22.6116 10.0927 22.7015C10.2695 22.7914 10.471 22.8204 10.666 22.784C10.8609 22.7475 11.0384 22.6477 11.1708 22.5L21.3708 11.1C21.4866 10.9705 21.5625 10.8102 21.5892 10.6386C21.616 10.4669 21.5925 10.2912 21.5216 10.1326C21.4506 9.97397 21.3353 9.83929 21.1895 9.74478C21.0438 9.65028 20.8737 9.59998 20.7 9.59998H12.8136L14.3796 2.28838Z"
        fill="#6336DB"
    />
</svg>
