<svg
    width="360"
    height="246"
    viewBox="0 0 360 246"
    fill="none"
    xmlns="http://www.w3.org/2000/svg"
>
<g clip-path="url(#clip0_1514_70457)">
<path
            d="M381.74 47.5698L380.42 47.0298L372.81 43.8898L367.69 41.7798L360.08 38.6497L358.75 38.1098C358.394 37.9624 358.013 37.8866 357.628 37.8867C357.242 37.8869 356.861 37.963 356.505 38.1106C356.15 38.2583 355.826 38.4747 355.554 38.7474C355.282 39.02 355.067 39.3437 354.92 39.6998L354.57 40.5498C354.409 40.942 354.388 41.3775 354.51 41.7834C354.632 42.1893 354.89 42.541 355.24 42.7798L358.24 44.7798C360.048 46.0104 361.723 47.4246 363.24 48.9998C363.458 48.8728 363.702 48.7977 363.953 48.7803C364.205 48.763 364.457 48.8039 364.69 48.8997L370.01 51.0798C370.247 51.1762 370.459 51.324 370.632 51.5125C370.805 51.701 370.934 51.9254 371.01 52.1698C373.196 52.1049 375.382 52.2793 377.53 52.6898L381.04 53.3398C381.451 53.4032 381.871 53.3275 382.233 53.1245C382.595 52.9215 382.88 52.603 383.04 52.2198L383.39 51.3698C383.672 50.6468 383.657 49.8416 383.348 49.1298C383.039 48.4179 382.461 47.8572 381.74 47.5698Z"
            fill="#14BEAD"
        />
<path
            d="M373.66 67.1899C374.016 67.3386 374.397 67.4155 374.783 67.416C375.168 67.4165 375.55 67.3407 375.906 67.1928C376.262 67.045 376.586 66.8282 376.857 66.5547C377.129 66.2813 377.344 65.9568 377.49 65.5999L381.31 56.3299L376.92 55.5199C374.694 55.0878 372.423 54.9366 370.16 55.0699L369.39 56.9399C369.217 57.3587 368.885 57.6918 368.467 57.8661C368.049 58.0405 367.579 58.0418 367.16 57.8699L361.85 55.6799C361.431 55.5072 361.098 55.1753 360.924 54.7572C360.749 54.3392 360.748 53.869 360.92 53.4499L361.69 51.5899C360.17 49.9175 358.459 48.4305 356.59 47.1599L352.89 44.6299L349.08 53.8999C348.933 54.2557 348.857 54.6371 348.857 55.0223C348.857 55.4075 348.933 55.7888 349.081 56.1445C349.229 56.5003 349.445 56.8234 349.718 57.0954C349.99 57.3675 350.314 57.583 350.67 57.7299L373.66 67.1899Z"
            fill="#14BEAD"
        />
<path
            d="M291.903 27.3138L280.888 30.2156C280.29 30.3732 279.933 30.9859 280.091 31.584L280.287 32.3286C280.445 32.9268 281.057 33.2839 281.655 33.1263L292.669 30.2245C293.268 30.0669 293.625 29.4542 293.467 28.8561L293.271 28.1115C293.113 27.5134 292.501 27.1562 291.903 27.3138Z"
            fill="#14BEAD"
        />
<path
            d="M297.7 31.2801L277.82 36.5201C277.08 36.7174 276.448 37.1992 276.062 37.8605C275.677 38.5218 275.568 39.3089 275.76 40.0501L283 67.3301C283.197 68.0699 283.679 68.7017 284.34 69.0876C285.002 69.4736 285.789 69.5823 286.53 69.3901L306.41 64.1501C307.15 63.9528 307.782 63.471 308.168 62.8097C308.553 62.1484 308.662 61.3613 308.47 60.6201L301.28 33.3401C301.184 32.9676 301.014 32.618 300.781 32.3119C300.548 32.0058 300.257 31.7493 299.923 31.5575C299.59 31.3656 299.221 31.2422 298.84 31.1946C298.458 31.147 298.07 31.176 297.7 31.2801ZM290.7 54.6901C290.748 54.8218 290.767 54.962 290.757 55.1017C290.747 55.2413 290.707 55.3773 290.641 55.5008C290.575 55.6243 290.484 55.7325 290.374 55.8185C290.263 55.9045 290.136 55.9664 290 56.0001L284.59 57.4201C284.459 57.459 284.321 57.4706 284.185 57.454C284.049 57.4374 283.918 57.393 283.799 57.3236C283.681 57.2542 283.579 57.1613 283.498 57.0506C283.417 56.9399 283.36 56.8138 283.33 56.6801L281.91 51.2801C281.871 51.1494 281.859 51.0121 281.875 50.8767C281.891 50.7412 281.935 50.6104 282.003 50.4924C282.071 50.3744 282.163 50.2716 282.273 50.1904C282.382 50.1092 282.507 50.0512 282.64 50.0201L288.05 48.6001C288.181 48.561 288.318 48.5491 288.453 48.5651C288.589 48.5811 288.72 48.6246 288.838 48.6929C288.956 48.7613 289.059 48.8531 289.14 48.9627C289.221 49.0723 289.279 49.1973 289.31 49.3301L290.7 54.6901ZM288 44.2901C288.073 44.5712 288.032 44.8698 287.886 45.1209C287.74 45.3719 287.501 45.555 287.22 45.6301L281.92 47.0001C281.639 47.0734 281.34 47.0325 281.089 46.8863C280.838 46.7402 280.655 46.5007 280.58 46.2201L279.19 41.0001C279.117 40.719 279.158 40.4203 279.304 40.1693C279.45 39.9183 279.689 39.7352 279.97 39.6601L285.25 38.2701C285.531 38.1968 285.83 38.2377 286.081 38.3839C286.332 38.53 286.515 38.7695 286.59 39.0501L288 44.2901ZM299 36.8701C299.027 36.9745 299.033 37.0832 299.018 37.19C299.003 37.2968 298.967 37.3996 298.912 37.4925C298.858 37.5854 298.785 37.6666 298.699 37.7314C298.613 37.7961 298.514 37.8433 298.41 37.8701L289.59 40.2001C289.381 40.2551 289.158 40.225 288.97 40.1163C288.783 40.0076 288.646 39.8292 288.59 39.6201L288.24 38.2901C288.211 38.1863 288.204 38.0779 288.218 37.9712C288.231 37.8644 288.266 37.7615 288.32 37.6684C288.374 37.5753 288.446 37.4939 288.532 37.4289C288.618 37.364 288.716 37.3168 288.82 37.2901L297.65 34.9601C297.861 34.9082 298.083 34.9409 298.27 35.0511C298.457 35.1614 298.594 35.3405 298.65 35.5501L299 36.8701Z"
            fill="#14BEAD"
        />
<path
            d="M228.22 47.5699L226.89 47.0299L219.29 43.8899L214.16 41.7799L206.56 38.6499L205.23 38.1099C204.874 37.9612 204.493 37.8843 204.107 37.8838C203.722 37.8833 203.34 37.9591 202.984 38.107C202.628 38.2548 202.304 38.4716 202.033 38.745C201.761 39.0185 201.546 39.343 201.4 39.6999L201.05 40.5499C200.886 40.9408 200.863 41.3761 200.983 41.7824C201.103 42.1887 201.36 42.541 201.71 42.7799L204.71 44.7799C206.516 46.0132 208.191 47.4271 209.71 48.9999C209.928 48.8729 210.172 48.7978 210.423 48.7805C210.675 48.7632 210.927 48.804 211.16 48.8999L216.47 51.0799C216.708 51.1745 216.922 51.3217 217.095 51.5104C217.268 51.6992 217.396 51.9246 217.47 52.1699C219.659 52.1044 221.849 52.2787 224 52.6899L227.51 53.3399C227.921 53.4052 228.341 53.3302 228.704 53.127C229.067 52.9238 229.351 52.6042 229.51 52.2199L229.86 51.3699C230.143 50.6482 230.129 49.8441 229.822 49.1324C229.515 48.4208 228.939 47.8592 228.22 47.5699Z"
            fill="#14BEAD"
        />
<path
            d="M220.14 67.1899C220.498 67.3419 220.882 67.4214 221.27 67.4236C221.659 67.4258 222.044 67.3508 222.403 67.2028C222.762 67.0549 223.088 66.8369 223.362 66.5618C223.637 66.2866 223.853 65.9596 224 65.5999L227.81 56.3299L223.42 55.5199C221.198 55.0882 218.93 54.937 216.67 55.0699L215.9 56.9399C215.727 57.3587 215.395 57.6918 214.977 57.8661C214.559 58.0405 214.089 58.0418 213.67 57.8699L208.36 55.6799C208.152 55.5954 207.962 55.4706 207.803 55.3125C207.643 55.1544 207.516 54.9662 207.43 54.7589C207.343 54.5515 207.299 54.329 207.299 54.1044C207.299 53.8797 207.344 53.6572 207.43 53.4499L208.19 51.5899C206.674 49.9177 204.965 48.4307 203.1 47.1599L199.4 44.6299L195.58 53.8999C195.286 54.6201 195.289 55.4276 195.589 56.1455C195.889 56.8634 196.461 57.4331 197.18 57.7299L220.14 67.1899Z"
            fill="#14BEAD"
        />
<path
            d="M225 37.9999L214.25 33.5799C213.961 33.4603 213.651 33.3988 213.339 33.3989C213.026 33.399 212.717 33.4607 212.428 33.5805C212.139 33.7003 211.877 33.8759 211.656 34.0971C211.435 34.3183 211.259 34.581 211.14 34.8699L210.24 37.0599L212.67 38.0599L213.12 36.9699C213.166 36.8559 213.234 36.7522 213.321 36.6647C213.407 36.5772 213.51 36.5078 213.624 36.4603C213.737 36.4129 213.859 36.3885 213.982 36.3884C214.105 36.3883 214.227 36.4126 214.34 36.4599L222.9 39.9999C223.014 40.046 223.118 40.1142 223.205 40.2007C223.293 40.2871 223.362 40.39 223.41 40.5035C223.457 40.617 223.481 40.7387 223.482 40.8617C223.482 40.9847 223.457 41.1064 223.41 41.2199L222.96 42.3199L225.38 43.3199L226.28 41.1299C226.403 40.8406 226.467 40.5297 226.47 40.2153C226.472 39.9008 226.412 39.5891 226.293 39.2981C226.174 39.007 225.998 38.7425 225.776 38.5197C225.554 38.2969 225.291 38.1202 225 37.9999Z"
            fill="#14BEAD"
        />
<path
            d="M138.379 27.2962L127.364 30.1981C126.766 30.3556 126.409 30.9683 126.567 31.5665L126.763 32.311C126.92 32.9092 127.533 33.2663 128.131 33.1087L139.145 30.2069C139.744 30.0493 140.101 29.4367 139.943 28.8385L139.747 28.0939C139.589 27.4958 138.977 27.1386 138.379 27.2962Z"
            fill="#14BEAD"
        />
<path
            d="M144.17 31.2799L124.29 36.5199C123.551 36.717 122.919 37.1993 122.535 37.861C122.151 38.5228 122.045 39.31 122.24 40.0499L129.43 67.3299C129.625 68.069 130.105 68.7007 130.765 69.0867C131.424 69.4728 132.21 69.5818 132.95 69.3899L152.83 64.1499C153.197 64.0534 153.541 63.8855 153.844 63.6559C154.146 63.4262 154.4 63.1393 154.591 62.8115C154.782 62.4837 154.907 62.1215 154.959 61.7454C155.01 61.3694 154.987 60.9869 154.89 60.6199L147.7 33.3399C147.605 32.9721 147.438 32.6269 147.208 32.324C146.979 32.0212 146.692 31.7667 146.364 31.5752C146.036 31.3837 145.673 31.259 145.296 31.2084C144.92 31.1577 144.537 31.182 144.17 31.2799ZM137.17 54.6899C137.211 54.8219 137.223 54.9608 137.207 55.098C137.192 55.2352 137.148 55.3676 137.078 55.4869C137.009 55.6062 136.915 55.7098 136.804 55.7912C136.692 55.8726 136.565 55.9301 136.43 55.9599L131.03 57.3799C130.899 57.4188 130.761 57.4304 130.625 57.4138C130.489 57.3972 130.357 57.3528 130.239 57.2834C130.121 57.214 130.019 57.1211 129.938 57.0104C129.857 56.8997 129.8 56.7736 129.77 56.6399L128.34 51.2399C128.301 51.1085 128.29 50.9705 128.306 50.8345C128.323 50.6985 128.367 50.5674 128.436 50.4492C128.506 50.3311 128.599 50.2285 128.709 50.1477C128.82 50.067 128.946 50.0099 129.08 49.9799L134.48 48.5599C134.611 48.5208 134.748 48.5089 134.883 48.5249C135.019 48.5408 135.15 48.5844 135.268 48.6527C135.386 48.7211 135.488 48.8129 135.57 48.9225C135.651 49.032 135.709 49.1571 135.74 49.2899L137.17 54.6899ZM134.42 44.2899C134.458 44.4291 134.467 44.5744 134.448 44.7174C134.429 44.8603 134.382 44.9981 134.31 45.1228C134.237 45.2474 134.141 45.3564 134.026 45.4435C133.911 45.5305 133.78 45.5939 133.64 45.6299L128.4 46.9999C128.118 47.0707 127.819 47.0289 127.567 46.8834C127.315 46.7378 127.13 46.4998 127.05 46.2199L125.66 40.9999C125.59 40.7176 125.633 40.419 125.781 40.1684C125.929 39.9177 126.169 39.7352 126.45 39.6599L131.72 38.2699C132.001 38.1966 132.3 38.2375 132.551 38.3837C132.802 38.5298 132.985 38.7693 133.06 39.0499L134.42 44.2899ZM145.42 36.8699C145.449 36.9736 145.456 37.0821 145.442 37.1888C145.429 37.2955 145.394 37.3985 145.34 37.4916C145.286 37.5847 145.214 37.6661 145.128 37.731C145.042 37.796 144.944 37.8432 144.84 37.8699L136.01 40.1999C135.801 40.2522 135.579 40.2209 135.392 40.1126C135.206 40.0043 135.069 39.8276 135.01 39.6199L134.66 38.2899C134.633 38.1855 134.627 38.0768 134.642 37.97C134.657 37.8632 134.693 37.7604 134.748 37.6675C134.802 37.5746 134.875 37.4934 134.961 37.4286C135.047 37.3638 135.146 37.3167 135.25 37.2899L144.07 34.9599C144.174 34.9328 144.283 34.9266 144.39 34.9417C144.497 34.9567 144.6 34.9926 144.692 35.0474C144.785 35.1022 144.866 35.1748 144.931 35.261C144.996 35.3473 145.043 35.4454 145.07 35.5499L145.42 36.8699Z"
            fill="#14BEAD"
        />
<path
            d="M74.69 47.5698L73.37 47.0298L65.76 43.8898L60.64 41.7798L53 38.6497L51.67 38.1098C51.3142 37.9624 50.9328 37.8866 50.5476 37.8867C50.1624 37.8869 49.7811 37.963 49.4253 38.1106C49.0696 38.2583 48.7465 38.4747 48.4745 38.7474C48.2025 39.02 47.9868 39.3437 47.84 39.6998L47.49 40.5498C47.3293 40.942 47.3082 41.3775 47.4302 41.7834C47.5521 42.1893 47.8098 42.541 48.16 42.7798L51.16 44.7798C52.9676 46.0104 54.6432 47.4246 56.16 48.9998C56.3778 48.8728 56.6219 48.7977 56.8733 48.7803C57.1248 48.763 57.3769 48.8039 57.61 48.8997L62.93 51.0798C63.1669 51.1762 63.3795 51.324 63.5524 51.5125C63.7253 51.701 63.8543 51.9254 63.93 52.1698C66.1158 52.1049 68.3021 52.2793 70.45 52.6898L73.96 53.3398C74.3783 53.4154 74.8098 53.3455 75.1828 53.1417C75.5557 52.9379 75.8477 52.6126 76.01 52.2198L76.36 51.3698C76.6411 50.6443 76.6232 49.837 76.3101 49.1247C75.9971 48.4124 75.4145 47.8533 74.69 47.5698Z"
            fill="#14BEAD"
        />
<path
            d="M66.61 67.1899C66.9657 67.3386 67.3473 67.4155 67.7328 67.416C68.1184 67.4165 68.5002 67.3407 68.8563 67.1928C69.2123 67.045 69.5356 66.8282 69.8074 66.5547C70.0793 66.2813 70.2943 65.9568 70.44 65.5999L74.26 56.3299L69.87 55.5199C67.6443 55.0878 65.3733 54.9366 63.11 55.0699L62.34 56.9399C62.1673 57.3587 61.8355 57.6918 61.4174 57.8661C60.9993 58.0405 60.5291 58.0418 60.11 57.8699L54.8 55.6799C54.3812 55.5072 54.0481 55.1753 53.8737 54.7572C53.6994 54.3392 53.698 53.869 53.87 53.4499L54.64 51.5899C53.1205 49.9175 51.4086 48.4305 49.54 47.1599L45.84 44.6299L42 53.8999C41.8526 54.2557 41.7768 54.6371 41.777 55.0223C41.7771 55.4075 41.8532 55.7888 42.0009 56.1445C42.1486 56.5003 42.3649 56.8234 42.6376 57.0954C42.9103 57.3675 43.2339 57.583 43.59 57.7299L66.61 67.1899Z"
            fill="#14BEAD"
        />
<path
            d="M71.46 37.9999L60.72 33.5799C60.4311 33.4603 60.1215 33.3988 59.8088 33.3989C59.4961 33.399 59.1865 33.4607 58.8977 33.5805C58.6089 33.7003 58.3465 33.8759 58.1255 34.0971C57.9046 34.3183 57.7294 34.581 57.61 34.8699L56.71 37.0599L59.13 38.0599L59.58 36.9699C59.6271 36.8556 59.6963 36.7516 59.7837 36.664C59.871 36.5765 59.9748 36.507 60.0891 36.4596C60.2034 36.4122 60.3259 36.3879 60.4496 36.3879C60.5733 36.388 60.6957 36.4125 60.81 36.4599L69.38 39.9899C69.494 40.036 69.5977 40.1042 69.6852 40.1907C69.7727 40.2771 69.8422 40.38 69.8896 40.4935C69.937 40.607 69.9614 40.7287 69.9615 40.8517C69.9616 40.9747 69.9373 41.0964 69.89 41.2099L69.44 42.3099L71.86 43.3099L72.76 41.1199C72.8808 40.8299 72.9431 40.5187 72.9431 40.2045C72.9431 39.8903 72.8809 39.5792 72.76 39.2891C72.6391 38.999 72.4621 38.7358 72.2389 38.5145C72.0158 38.2932 71.751 38.1184 71.46 37.9999Z"
            fill="#14BEAD"
        />
<path
            d="M-9.34996 31.2801L-29.23 36.5201C-29.9698 36.7174 -30.6016 37.1992 -30.9875 37.8605C-31.3734 38.5218 -31.4822 39.3089 -31.29 40.0501L-24.1 67.3301C-23.9027 68.0699 -23.4208 68.7017 -22.7595 69.0876C-22.0982 69.4736 -21.3111 69.5823 -20.57 69.3901L-0.68996 64.1501C0.0498695 63.9528 0.68166 63.471 1.06758 62.8097C1.4535 62.1484 1.56222 61.3613 1.37004 60.6201L-5.81997 33.3401C-5.91648 32.973 -6.08435 32.6286 -6.31398 32.3264C-6.54362 32.0243 -6.83052 31.7703 -7.15831 31.579C-7.4861 31.3877 -7.84837 31.2629 -8.22441 31.2116C-8.60046 31.1603 -8.98292 31.1836 -9.34996 31.2801ZM-16.35 54.6901C-16.3093 54.8214 -16.2962 54.9597 -16.3114 55.0963C-16.3266 55.2329 -16.3697 55.365 -16.4383 55.4841C-16.5068 55.6033 -16.5991 55.7071 -16.7095 55.789C-16.8199 55.8709 -16.946 55.9291 -17.0799 55.9601L-22.4899 57.3801C-22.6213 57.419 -22.7593 57.4306 -22.8953 57.414C-23.0313 57.3974 -23.1624 57.353 -23.2806 57.2836C-23.3987 57.2142 -23.5014 57.1213 -23.5821 57.0106C-23.6629 56.8999 -23.72 56.7738 -23.75 56.6401L-25.17 51.2401C-25.209 51.1094 -25.2209 50.9721 -25.205 50.8367C-25.189 50.7012 -25.1455 50.5704 -25.0771 50.4524C-25.0087 50.3344 -24.9169 50.2316 -24.8074 50.1504C-24.6978 50.0692 -24.5728 50.0112 -24.44 49.9801L-19.03 48.5601C-18.8993 48.521 -18.762 48.5091 -18.6265 48.5251C-18.4911 48.5411 -18.3603 48.5846 -18.2423 48.6529C-18.1243 48.7213 -18.0215 48.8131 -17.9403 48.9227C-17.859 49.0323 -17.8011 49.1573 -17.7699 49.2901L-16.35 54.6901ZM-19.09 44.2901C-19.0167 44.5712 -19.0576 44.8698 -19.2037 45.1209C-19.3499 45.3719 -19.5894 45.555 -19.87 45.6301L-25.13 47.0001C-25.4111 47.0734 -25.7097 47.0325 -25.9607 46.8863C-26.2118 46.7402 -26.3948 46.5007 -26.47 46.2201L-27.8599 41.0001C-27.9332 40.719 -27.8923 40.4203 -27.7462 40.1693C-27.6 39.9183 -27.3605 39.7352 -27.0799 39.6601L-21.7999 38.2701C-21.5189 38.1968 -21.2202 38.2377 -20.9692 38.3839C-20.7181 38.53 -20.5351 38.7695 -20.4599 39.0501L-19.09 44.2901ZM-8.08995 36.8701C-8.0629 36.9745 -8.05672 37.0832 -8.07174 37.19C-8.08676 37.2968 -8.12267 37.3996 -8.17748 37.4925C-8.23228 37.5854 -8.30488 37.6666 -8.3911 37.7314C-8.47732 37.7962 -8.57548 37.8433 -8.67995 37.8701L-17.5 40.2001C-17.7095 40.2551 -17.9322 40.225 -18.1196 40.1163C-18.3069 40.0076 -18.4437 39.8292 -18.5 39.6201L-18.85 38.2901C-18.8786 38.1863 -18.8862 38.0779 -18.8725 37.9712C-18.8587 37.8644 -18.8238 37.7615 -18.7698 37.6684C-18.7158 37.5753 -18.6438 37.4939 -18.5579 37.4289C-18.4721 37.364 -18.3742 37.3168 -18.2699 37.2901L-9.39995 35.0001C-9.18922 34.9482 -8.96654 34.9809 -8.77962 35.0911C-8.5927 35.2014 -8.45641 35.3805 -8.39995 35.5901L-8.08995 36.8701Z"
            fill="#14BEAD"
        />
<path
            d="M344.47 130.19L343.14 129.65L335.54 126.52L330.42 124.41L322.81 121.27L321.48 120.73C321.124 120.582 320.743 120.507 320.358 120.507C319.972 120.507 319.591 120.583 319.235 120.731C318.88 120.878 318.557 121.095 318.284 121.367C318.012 121.64 317.797 121.964 317.65 122.32L317.3 123.17C317.137 123.562 317.115 123.998 317.237 124.404C317.359 124.811 317.618 125.162 317.97 125.4L320.97 127.4C322.778 128.631 324.453 130.045 325.97 131.62C326.188 131.493 326.432 131.418 326.683 131.4C326.935 131.383 327.187 131.424 327.42 131.52L332.73 133.71C332.968 133.801 333.183 133.946 333.356 134.133C333.53 134.32 333.658 134.545 333.73 134.79C335.919 134.73 338.108 134.904 340.26 135.31L343.77 135.96C344.188 136.035 344.62 135.966 344.993 135.762C345.366 135.558 345.658 135.233 345.82 134.84L346.16 133.99C346.3 133.63 346.367 133.245 346.358 132.859C346.349 132.472 346.263 132.091 346.106 131.738C345.949 131.385 345.724 131.066 345.443 130.8C345.162 130.535 344.831 130.327 344.47 130.19Z"
            fill="#14BEAD"
        />
<path
            d="M336.39 149.82C337.11 150.114 337.918 150.111 338.636 149.811C339.353 149.511 339.923 148.939 340.22 148.22L344 139L339.6 138.19C337.378 137.756 335.11 137.608 332.85 137.75L332.08 139.61C331.996 139.818 331.871 140.007 331.713 140.167C331.555 140.327 331.366 140.453 331.159 140.54C330.952 140.626 330.729 140.671 330.504 140.671C330.28 140.671 330.057 140.626 329.85 140.54L324.54 138.36C324.121 138.187 323.788 137.855 323.614 137.437C323.439 137.019 323.438 136.549 323.61 136.13L324.38 134.26C322.858 132.59 321.147 131.103 319.28 129.83L315.58 127.3L311.76 136.57C311.466 137.29 311.469 138.098 311.769 138.815C312.069 139.533 312.641 140.103 313.36 140.4L336.39 149.82Z"
            fill="#14BEAD"
        />
<path
            d="M341.24 120.66L330.49 116.23C329.908 115.992 329.255 115.994 328.674 116.235C328.093 116.477 327.631 116.939 327.39 117.52L326.49 119.71L328.91 120.71L329.36 119.61C329.407 119.496 329.476 119.392 329.564 119.304C329.651 119.217 329.755 119.147 329.869 119.1C329.983 119.053 330.106 119.028 330.23 119.028C330.353 119.028 330.476 119.053 330.59 119.1L339.15 122.63C339.373 122.735 339.549 122.919 339.645 123.146C339.741 123.373 339.75 123.627 339.67 123.86L339.21 124.95L341.64 125.95L342.54 123.76C342.659 123.471 342.72 123.162 342.719 122.85C342.718 122.537 342.656 122.228 342.535 121.94C342.414 121.652 342.237 121.39 342.015 121.171C341.793 120.951 341.529 120.778 341.24 120.66Z"
            fill="#14BEAD"
        />
<path
            d="M255.199 113.481L244.151 116.328C243.551 116.483 243.19 117.095 243.344 117.695L243.537 118.442C243.691 119.042 244.303 119.403 244.903 119.248L255.952 116.401C256.552 116.246 256.913 115.634 256.758 115.034L256.565 114.287C256.411 113.687 255.799 113.326 255.199 113.481Z"
            fill="#14BEAD"
        />
<path
            d="M260.43 113.9L240.55 119.14C240.183 119.236 239.838 119.404 239.536 119.634C239.234 119.864 238.98 120.15 238.789 120.478C238.598 120.806 238.473 121.168 238.421 121.544C238.37 121.92 238.393 122.303 238.49 122.67L245.68 150C245.777 150.367 245.944 150.711 246.174 151.014C246.404 151.316 246.691 151.57 247.018 151.761C247.346 151.952 247.708 152.077 248.084 152.128C248.461 152.18 248.843 152.156 249.21 152.06L269.09 146.82C269.82 146.612 270.439 146.125 270.814 145.465C271.188 144.804 271.287 144.023 271.09 143.29L264 116C263.908 115.625 263.742 115.272 263.512 114.962C263.281 114.653 262.991 114.392 262.658 114.196C262.325 114.001 261.957 113.874 261.574 113.823C261.191 113.772 260.802 113.798 260.43 113.9ZM253.43 137.32C253.469 137.451 253.48 137.589 253.464 137.725C253.447 137.861 253.403 137.992 253.334 138.111C253.264 138.229 253.171 138.331 253.061 138.412C252.95 138.493 252.824 138.55 252.69 138.58L247.29 140C247.159 140.039 247.022 140.051 246.887 140.035C246.751 140.019 246.62 139.975 246.502 139.907C246.384 139.839 246.282 139.747 246.2 139.637C246.119 139.528 246.061 139.403 246.03 139.27L244.61 133.86C244.571 133.729 244.559 133.592 244.575 133.456C244.591 133.321 244.635 133.19 244.703 133.072C244.771 132.954 244.863 132.851 244.973 132.77C245.082 132.689 245.207 132.631 245.34 132.6L250.74 131.18C250.871 131.139 251.01 131.126 251.146 131.141C251.283 131.156 251.415 131.2 251.534 131.268C251.653 131.337 251.757 131.429 251.839 131.539C251.921 131.65 251.979 131.776 252.01 131.91L253.43 137.32ZM250.69 126.91C250.763 127.192 250.721 127.492 250.573 127.743C250.424 127.995 250.182 128.177 249.9 128.25L244.63 129.64C244.491 129.679 244.345 129.69 244.202 129.671C244.058 129.653 243.92 129.606 243.795 129.533C243.67 129.461 243.561 129.364 243.474 129.248C243.387 129.132 243.325 129 243.29 128.86L241.9 123.58C241.862 123.441 241.853 123.295 241.872 123.152C241.891 123.009 241.938 122.872 242.01 122.747C242.083 122.622 242.179 122.513 242.294 122.426C242.409 122.339 242.54 122.276 242.68 122.24L247.95 120.85C248.232 120.779 248.531 120.821 248.783 120.966C249.035 121.112 249.22 121.35 249.3 121.63L250.69 126.91ZM261.69 119.49C261.719 119.594 261.726 119.702 261.712 119.809C261.699 119.916 261.664 120.018 261.61 120.112C261.556 120.205 261.484 120.286 261.398 120.351C261.312 120.416 261.214 120.463 261.11 120.49L252.29 122.82C252.08 122.875 251.858 122.845 251.67 122.736C251.483 122.627 251.346 122.449 251.29 122.24L250.94 120.91C250.911 120.806 250.904 120.698 250.918 120.591C250.931 120.484 250.966 120.381 251.02 120.288C251.074 120.195 251.146 120.114 251.232 120.049C251.318 119.984 251.416 119.937 251.52 119.91L260.34 117.59C260.444 117.561 260.552 117.554 260.659 117.567C260.766 117.581 260.869 117.616 260.962 117.67C261.055 117.724 261.136 117.796 261.201 117.882C261.266 117.968 261.313 118.066 261.34 118.17L261.69 119.49Z"
            fill="#14BEAD"
        />
<path
            d="M190.94 130.19L189.62 129.65L182 126.52L176.88 124.41L169.28 121.27L167.95 120.73C167.23 120.432 166.421 120.432 165.701 120.73C164.981 121.028 164.409 121.6 164.11 122.32L163.76 123.17C163.599 123.562 163.578 123.998 163.7 124.403C163.822 124.809 164.08 125.161 164.43 125.4L167.43 127.4C169.24 128.628 170.915 130.042 172.43 131.62C172.65 131.493 172.895 131.418 173.148 131.4C173.401 131.383 173.655 131.424 173.89 131.52L179.2 133.71C179.437 133.803 179.651 133.948 179.824 134.135C179.997 134.322 180.126 134.546 180.2 134.79C182.386 134.73 184.571 134.904 186.72 135.31L190.23 135.96C190.648 136.037 191.081 135.968 191.454 135.764C191.828 135.56 192.119 135.234 192.28 134.84L192.63 133.99C192.769 133.629 192.835 133.245 192.825 132.859C192.815 132.473 192.729 132.093 192.572 131.74C192.415 131.387 192.19 131.068 191.91 130.802C191.63 130.536 191.301 130.328 190.94 130.19Z"
            fill="#14BEAD"
        />
<path
            d="M182.86 149.82C183.583 150.101 184.386 150.092 185.102 149.794C185.818 149.495 186.391 148.931 186.7 148.22L190.51 138.95L186.12 138.14C183.895 137.706 181.623 137.558 179.36 137.7L178.6 139.56C178.516 139.768 178.391 139.958 178.233 140.117C178.075 140.277 177.886 140.404 177.679 140.49C177.472 140.577 177.249 140.621 177.025 140.621C176.8 140.621 176.577 140.577 176.37 140.49L171.05 138.31C170.631 138.137 170.298 137.805 170.124 137.387C169.949 136.969 169.948 136.499 170.12 136.08L170.89 134.21C169.374 132.538 167.665 131.051 165.8 129.78L162.09 127.25L158.28 136.52C158.133 136.876 158.058 137.258 158.058 137.644C158.059 138.03 158.136 138.411 158.285 138.767C158.434 139.123 158.651 139.446 158.925 139.718C159.198 139.989 159.523 140.204 159.88 140.35L182.86 149.82Z"
            fill="#14BEAD"
        />
<path
            d="M187.72 120.66L177 116.23C176.711 116.11 176.401 116.049 176.089 116.049C175.776 116.049 175.467 116.111 175.178 116.23C174.889 116.35 174.626 116.526 174.406 116.747C174.185 116.968 174.009 117.231 173.89 117.52L172.99 119.71L175.41 120.71L175.87 119.61C175.916 119.496 175.984 119.392 176.071 119.305C176.157 119.217 176.26 119.148 176.374 119.1C176.487 119.053 176.609 119.028 176.732 119.028C176.855 119.028 176.976 119.053 177.09 119.1L185.66 122.63C185.774 122.677 185.878 122.746 185.966 122.834C186.053 122.921 186.123 123.025 186.17 123.139C186.218 123.253 186.242 123.376 186.242 123.499C186.242 123.623 186.217 123.746 186.17 123.86L185.72 124.95L188.14 125.95L189.04 123.76C189.157 123.47 189.216 123.159 189.213 122.846C189.21 122.533 189.146 122.224 189.023 121.936C188.9 121.648 188.722 121.387 188.499 121.168C188.275 120.949 188.01 120.776 187.72 120.66Z"
            fill="#14BEAD"
        />
<path
            d="M101.098 109.915L90.0834 112.817C89.4853 112.974 89.1281 113.587 89.2857 114.185L89.4819 114.93C89.6395 115.528 90.2521 115.885 90.8503 115.727L101.864 112.826C102.463 112.668 102.82 112.055 102.662 111.457L102.466 110.713C102.308 110.114 101.696 109.757 101.098 109.915Z"
            fill="#14BEAD"
        />
<path
            d="M106.9 113.9L87 119.14C86.2602 119.337 85.6284 119.819 85.2425 120.48C84.8566 121.142 84.7478 121.929 84.94 122.67L92.15 150C92.3473 150.74 92.8291 151.372 93.4904 151.757C94.1517 152.143 94.9388 152.252 95.68 152.06L115.56 146.82C116.3 146.623 116.932 146.141 117.318 145.479C117.703 144.818 117.812 144.031 117.62 143.29L110.43 116C110.337 115.63 110.171 115.282 109.943 114.976C109.715 114.67 109.429 114.412 109.101 114.217C108.773 114.022 108.41 113.894 108.032 113.839C107.654 113.785 107.27 113.805 106.9 113.9ZM99.9 137.32C99.9391 137.451 99.951 137.588 99.935 137.723C99.919 137.859 99.8755 137.99 99.8072 138.108C99.7388 138.226 99.647 138.328 99.5374 138.41C99.4279 138.491 99.3028 138.549 99.17 138.58L93.77 140C93.6387 140.041 93.5004 140.054 93.3638 140.039C93.2272 140.023 93.0951 139.98 92.976 139.912C92.8568 139.843 92.753 139.751 92.6711 139.64C92.5892 139.53 92.531 139.404 92.5 139.27L91.08 133.86C91.0411 133.729 91.0295 133.591 91.0461 133.455C91.0627 133.319 91.1071 133.187 91.1765 133.069C91.2459 132.951 91.3388 132.848 91.4495 132.768C91.5602 132.687 91.6863 132.63 91.82 132.6L97.22 131.18C97.3507 131.141 97.488 131.129 97.6235 131.145C97.7589 131.161 97.8897 131.204 98.0077 131.273C98.1257 131.341 98.2285 131.433 98.3097 131.543C98.3909 131.652 98.4489 131.777 98.48 131.91L99.9 137.32ZM97.16 126.91C97.1991 127.049 97.2098 127.195 97.1915 127.338C97.1732 127.482 97.1263 127.62 97.0535 127.745C96.9808 127.87 96.8837 127.979 96.768 128.066C96.6523 128.153 96.5204 128.215 96.38 128.25L91.1 129.64C90.9608 129.678 90.8155 129.687 90.6725 129.668C90.5296 129.649 90.3918 129.602 90.2671 129.53C90.1425 129.457 90.0335 129.361 89.9465 129.246C89.8594 129.131 89.796 129 89.76 128.86L88.37 123.58C88.2994 123.299 88.3415 123.002 88.4873 122.751C88.633 122.501 88.8708 122.317 89.15 122.24L94.43 120.85C94.7111 120.777 95.0098 120.818 95.2608 120.964C95.5119 121.11 95.6949 121.349 95.77 121.63L97.16 126.91ZM108.16 119.49C108.215 119.699 108.185 119.922 108.076 120.109C107.968 120.297 107.789 120.434 107.58 120.49L98.75 122.82C98.5406 122.872 98.3191 122.841 98.1324 122.733C97.9457 122.624 97.8086 122.448 97.75 122.24L97.4 120.91C97.3477 120.701 97.379 120.479 97.4873 120.292C97.5956 120.106 97.7723 119.968 97.98 119.91L106.81 117.59C106.914 117.561 107.022 117.554 107.129 117.567C107.236 117.581 107.339 117.616 107.432 117.67C107.525 117.724 107.606 117.796 107.671 117.882C107.736 117.968 107.783 118.066 107.81 118.17L108.16 119.49Z"
            fill="#14BEAD"
        />
<path
            d="M37.42 130.19L36.09 129.65L28.49 126.52L23.37 124.41L15.76 121.27L14.43 120.73C14.0741 120.582 13.6927 120.507 13.3076 120.507C12.9224 120.507 12.5411 120.583 12.1853 120.731C11.8296 120.878 11.5065 121.095 11.2345 121.367C10.9624 121.64 10.7468 121.964 10.6 122.32L10.25 123.17C10.0874 123.562 10.0653 123.998 10.1874 124.404C10.3095 124.811 10.5683 125.162 10.92 125.4L13.92 127.4C15.7276 128.631 17.4032 130.045 18.92 131.62C19.1378 131.493 19.3818 131.418 19.6333 131.4C19.8848 131.383 20.1369 131.424 20.37 131.52L25.68 133.71C25.9185 133.801 26.1328 133.946 26.3062 134.133C26.4797 134.32 26.6076 134.545 26.68 134.79C28.869 134.73 31.0581 134.904 33.21 135.31L36.72 135.96C37.1382 136.035 37.5698 135.966 37.9427 135.762C38.3157 135.558 38.6077 135.233 38.77 134.84L39 134C39.292 133.285 39.2898 132.483 38.9939 131.77C38.6981 131.056 38.1324 130.488 37.42 130.19Z"
            fill="#14BEAD"
        />
<path
            d="M29.34 149.82C30.0602 150.114 30.8677 150.111 31.5856 149.811C32.3035 149.511 32.8733 148.939 33.17 148.22L37 139L32.6 138.19C30.3781 137.756 28.1096 137.608 25.85 137.75L25.08 139.61C24.9956 139.818 24.8707 140.007 24.7126 140.167C24.5545 140.327 24.3664 140.453 24.159 140.54C23.9516 140.626 23.7292 140.671 23.5045 140.671C23.2798 140.671 23.0574 140.626 22.85 140.54L17.54 138.36C17.1213 138.187 16.7881 137.855 16.6138 137.437C16.4394 137.019 16.438 136.549 16.61 136.13L17.38 134.26C15.8584 132.59 14.1468 131.103 12.28 129.83L8.58001 127.3L4.76004 136.57C4.46569 137.29 4.4688 138.098 4.7687 138.815C5.06861 139.533 5.64082 140.103 6.36001 140.4L29.34 149.82Z"
            fill="#14BEAD"
        />
<path
            d="M34.19 120.66L23.44 116.23C22.8577 115.992 22.2047 115.994 21.6237 116.235C21.0428 116.477 20.5812 116.939 20.34 117.52L19.44 119.71L21.86 120.71L22.31 119.61C22.3571 119.496 22.4263 119.392 22.5137 119.304C22.6011 119.217 22.7049 119.147 22.8191 119.1C22.9334 119.053 23.0559 119.028 23.1796 119.028C23.3033 119.028 23.4258 119.053 23.54 119.1L32.1 122.63C32.323 122.735 32.4994 122.919 32.5954 123.146C32.6914 123.373 32.7001 123.627 32.62 123.86L32.16 124.95L34.59 125.95L35.49 123.76C35.6091 123.471 35.67 123.162 35.6691 122.85C35.6682 122.537 35.6055 122.228 35.4847 121.94C35.3639 121.652 35.1873 121.39 34.9651 121.171C34.7429 120.951 34.4795 120.778 34.19 120.66Z"
            fill="#14BEAD"
        />
<path
            d="M307.2 212.81L305.87 212.27L298.27 209.14L293.14 207L285.54 203.87L284.21 203.32C283.854 203.173 283.472 203.098 283.086 203.099C282.7 203.099 282.319 203.176 281.963 203.325C281.607 203.474 281.284 203.691 281.012 203.965C280.741 204.239 280.526 204.563 280.38 204.92L280.03 205.76C279.866 206.153 279.842 206.59 279.962 206.998C280.082 207.405 280.339 207.76 280.69 208L283.69 210C285.497 211.231 287.173 212.645 288.69 214.22C288.909 214.095 289.152 214.022 289.404 214.004C289.655 213.987 289.906 214.027 290.14 214.12L295.45 216.31C295.688 216.401 295.903 216.546 296.076 216.733C296.25 216.921 296.378 217.145 296.45 217.39C298.639 217.329 300.829 217.507 302.98 217.92L306.49 218.56C306.901 218.627 307.322 218.553 307.686 218.35C308.049 218.146 308.332 217.826 308.49 217.44L308.84 216.6C309.104 215.879 309.081 215.083 308.776 214.378C308.471 213.673 307.907 213.112 307.2 212.81Z"
            fill="#14BEAD"
        />
<path
            d="M299.12 232.44C299.84 232.734 300.648 232.731 301.366 232.431C302.084 232.132 302.653 231.559 302.95 230.84L306.76 221.57L302.37 220.77C300.148 220.333 297.88 220.182 295.62 220.32L294.85 222.19C294.675 222.607 294.343 222.938 293.925 223.11C293.507 223.283 293.038 223.283 292.62 223.11L287.31 220.93C287.102 220.846 286.912 220.721 286.753 220.563C286.593 220.405 286.466 220.216 286.38 220.009C286.293 219.802 286.249 219.579 286.249 219.355C286.249 219.13 286.293 218.907 286.38 218.7L287.14 216.83C285.622 215.16 283.913 213.674 282.05 212.4L278.35 209.87L274.53 219.14C274.383 219.497 274.308 219.879 274.308 220.264C274.309 220.65 274.386 221.031 274.535 221.387C274.684 221.743 274.901 222.066 275.175 222.338C275.448 222.609 275.773 222.824 276.13 222.97L299.12 232.44Z"
            fill="#14BEAD"
        />
<path
            d="M304 203.28L293.25 198.85C292.96 198.731 292.65 198.67 292.337 198.67C292.024 198.671 291.714 198.734 291.425 198.855C291.136 198.975 290.874 199.152 290.654 199.374C290.433 199.596 290.258 199.86 290.14 200.15L289.24 202.33L291.67 203.33L292.12 202.23C292.166 202.116 292.234 202.012 292.321 201.925C292.407 201.837 292.51 201.768 292.624 201.72C292.737 201.673 292.859 201.648 292.982 201.648C293.105 201.648 293.227 201.673 293.34 201.72L301.91 205.25C302.024 205.297 302.128 205.366 302.216 205.454C302.303 205.541 302.373 205.645 302.42 205.759C302.468 205.873 302.492 205.996 302.492 206.12C302.492 206.243 302.467 206.366 302.42 206.48L301.97 207.57L304.39 208.57L305.29 206.38C305.528 205.798 305.527 205.145 305.285 204.564C305.043 203.983 304.581 203.521 304 203.28Z"
            fill="#14BEAD"
        />
<path
            d="M217.353 192.551L206.339 195.453C205.741 195.611 205.384 196.223 205.541 196.821L205.738 197.566C205.895 198.164 206.508 198.521 207.106 198.364L218.12 195.462C218.718 195.304 219.075 194.692 218.918 194.093L218.722 193.349C218.564 192.751 217.951 192.394 217.353 192.551Z"
            fill="#14BEAD"
        />
<path
            d="M223.15 196.52L203.27 201.76C202.54 201.968 201.921 202.454 201.546 203.115C201.172 203.775 201.073 204.557 201.27 205.29L208.46 232.57C208.555 232.937 208.722 233.281 208.951 233.583C209.18 233.885 209.466 234.139 209.793 234.33C210.12 234.522 210.481 234.647 210.856 234.698C211.232 234.749 211.614 234.726 211.98 234.63L231.86 229.39C232.227 229.293 232.571 229.125 232.874 228.896C233.176 228.666 233.43 228.379 233.621 228.051C233.812 227.724 233.937 227.361 233.989 226.985C234.04 226.609 234.016 226.227 233.92 225.86L226.73 198.58C226.634 198.207 226.464 197.858 226.231 197.552C225.998 197.246 225.707 196.989 225.373 196.797C225.04 196.605 224.671 196.482 224.289 196.434C223.908 196.387 223.52 196.416 223.15 196.52ZM216.15 219.94C216.189 220.071 216.2 220.209 216.184 220.345C216.167 220.481 216.123 220.612 216.054 220.73C215.984 220.849 215.891 220.951 215.781 221.032C215.67 221.113 215.544 221.17 215.41 221.2L210.01 222.62C209.879 222.659 209.742 222.671 209.607 222.655C209.471 222.639 209.34 222.595 209.222 222.527C209.104 222.459 209.002 222.367 208.92 222.257C208.839 222.148 208.781 222.023 208.75 221.89L207.32 216.49C207.279 216.358 207.267 216.219 207.283 216.082C207.298 215.945 207.342 215.812 207.412 215.693C207.481 215.573 207.575 215.47 207.686 215.388C207.798 215.307 207.925 215.25 208.06 215.22L213.46 213.8C213.591 213.761 213.729 213.749 213.865 213.766C214.001 213.783 214.133 213.827 214.251 213.896C214.369 213.966 214.471 214.059 214.552 214.169C214.633 214.28 214.69 214.406 214.72 214.54L216.15 219.94ZM213.4 209.53C213.439 209.669 213.45 209.815 213.431 209.958C213.413 210.102 213.366 210.24 213.294 210.365C213.221 210.49 213.124 210.599 213.008 210.686C212.892 210.772 212.76 210.835 212.62 210.87L207.35 212.26C207.21 212.298 207.064 212.307 206.921 212.289C206.777 212.27 206.638 212.223 206.513 212.15C206.387 212.078 206.278 211.981 206.19 211.866C206.102 211.751 206.037 211.62 206 211.48L204.61 206.21C204.537 205.926 204.579 205.625 204.727 205.372C204.875 205.119 205.117 204.935 205.4 204.86L210.67 203.47C210.952 203.397 211.252 203.439 211.504 203.587C211.755 203.735 211.937 203.977 212.01 204.26L213.4 209.53ZM224.4 202.12C224.455 202.329 224.425 202.552 224.316 202.739C224.207 202.927 224.029 203.064 223.82 203.12L215 205.44C214.79 205.495 214.568 205.465 214.38 205.356C214.193 205.247 214.056 205.069 214 204.86L213.65 203.53C213.598 203.319 213.631 203.096 213.741 202.91C213.851 202.723 214.03 202.586 214.24 202.53L223.06 200.21C223.164 200.181 223.272 200.174 223.379 200.187C223.486 200.201 223.589 200.236 223.682 200.29C223.775 200.344 223.856 200.416 223.921 200.502C223.986 200.588 224.033 200.686 224.06 200.79L224.4 202.12Z"
            fill="#14BEAD"
        />
<path
            d="M153.67 212.81L152.35 212.27L144.74 209.14L139.62 207L132 203.9L130.67 203.35C130.314 203.203 129.932 203.128 129.546 203.128C129.16 203.129 128.779 203.206 128.423 203.355C128.067 203.504 127.744 203.721 127.472 203.995C127.201 204.268 126.986 204.593 126.84 204.95L126.49 205.79C126.331 206.184 126.31 206.62 126.432 207.028C126.554 207.435 126.81 207.788 127.16 208.03L130.16 210.03C131.968 211.261 133.643 212.675 135.16 214.25C135.379 214.125 135.622 214.051 135.874 214.034C136.125 214.017 136.376 214.056 136.61 214.15L141.93 216.34C142.167 216.433 142.381 216.578 142.554 216.765C142.727 216.952 142.856 217.176 142.93 217.42C145.116 217.359 147.302 217.536 149.45 217.95L152.96 218.59C153.378 218.668 153.811 218.598 154.184 218.394C154.558 218.19 154.849 217.864 155.01 217.47L155.36 216.63C155.63 215.899 155.605 215.091 155.289 214.378C154.974 213.665 154.393 213.102 153.67 212.81Z"
            fill="#14BEAD"
        />
<path
            d="M145.59 232.44C146.31 232.734 147.118 232.731 147.836 232.431C148.553 232.132 149.123 231.559 149.42 230.84L153.24 221.57L148.85 220.77C146.625 220.333 144.353 220.182 142.09 220.32L141.32 222.19C141.235 222.397 141.109 222.586 140.951 222.744C140.792 222.903 140.604 223.029 140.396 223.114C140.189 223.2 139.967 223.243 139.743 223.243C139.519 223.242 139.297 223.197 139.09 223.11L133.78 220.93C133.361 220.757 133.028 220.426 132.854 220.007C132.679 219.589 132.678 219.119 132.85 218.7L133.62 216.83C132.095 215.163 130.384 213.676 128.52 212.4L124.82 209.87L121 219.14C120.848 219.498 120.769 219.883 120.768 220.272C120.766 220.661 120.842 221.046 120.991 221.405C121.14 221.765 121.359 222.091 121.635 222.365C121.911 222.638 122.239 222.854 122.6 223L145.59 232.44Z"
            fill="#14BEAD"
        />
<path
            d="M150.44 203.28L139.7 198.85C139.411 198.731 139.1 198.67 138.787 198.67C138.474 198.671 138.164 198.734 137.875 198.855C137.586 198.975 137.324 199.152 137.104 199.374C136.883 199.596 136.708 199.86 136.59 200.15L135.69 202.33L138.11 203.33L138.56 202.23C138.607 202.116 138.676 202.012 138.764 201.924C138.851 201.837 138.955 201.767 139.069 201.72C139.183 201.672 139.306 201.648 139.43 201.648C139.553 201.648 139.676 201.672 139.79 201.72L148.36 205.25C148.474 205.297 148.578 205.366 148.666 205.454C148.753 205.541 148.823 205.645 148.87 205.759C148.918 205.873 148.942 205.996 148.942 206.12C148.942 206.243 148.917 206.366 148.87 206.48L148.42 207.57L150.84 208.57L151.74 206.38C151.859 206.091 151.92 205.782 151.919 205.469C151.918 205.157 151.856 204.848 151.735 204.56C151.614 204.272 151.437 204.01 151.215 203.791C150.993 203.571 150.729 203.397 150.44 203.28Z"
            fill="#14BEAD"
        />
<path
            d="M63.8195 192.546L52.8053 195.448C52.2072 195.606 51.85 196.218 52.0076 196.816L52.2038 197.561C52.3614 198.159 52.974 198.516 53.5722 198.359L64.5863 195.457C65.1845 195.299 65.5416 194.687 65.384 194.089L65.1878 193.344C65.0302 192.746 64.4176 192.389 63.8195 192.546Z"
            fill="#14BEAD"
        />
<path
            d="M69.63 196.52L49.75 201.76C49.3829 201.857 49.0385 202.024 48.7363 202.254C48.4342 202.484 48.1802 202.771 47.9889 203.098C47.7976 203.426 47.6728 203.789 47.6215 204.165C47.5702 204.541 47.5935 204.923 47.69 205.29L54.88 232.57C54.9765 232.937 55.1444 233.282 55.374 233.584C55.6037 233.886 55.8906 234.14 56.2183 234.331C56.5461 234.522 56.9084 234.647 57.2844 234.699C57.6605 234.75 58.043 234.727 58.41 234.63L78.29 229.39C79.0298 229.193 79.6616 228.711 80.0475 228.05C80.4335 227.388 80.5422 226.601 80.35 225.86L73.16 198.58C72.9627 197.84 72.4809 197.208 71.8196 196.823C71.1583 196.437 70.3712 196.328 69.63 196.52ZM62.63 219.94C62.6691 220.071 62.681 220.208 62.665 220.344C62.649 220.479 62.6055 220.61 62.5371 220.728C62.4688 220.846 62.377 220.949 62.2674 221.03C62.1578 221.111 62.0328 221.169 61.9 221.2L56.49 222.62C56.3593 222.659 56.222 222.671 56.0866 222.655C55.9511 222.639 55.8203 222.596 55.7023 222.527C55.5843 222.459 55.4815 222.367 55.4003 222.258C55.3191 222.148 55.2611 222.023 55.23 221.89L53.81 216.49C53.7693 216.359 53.7562 216.22 53.7714 216.084C53.7866 215.947 53.8298 215.815 53.8983 215.696C53.9668 215.577 54.0591 215.473 54.1695 215.391C54.28 215.309 54.4061 215.251 54.54 215.22L60 213.8C60.1314 213.761 60.2693 213.75 60.4053 213.766C60.5413 213.783 60.6725 213.827 60.7906 213.897C60.9088 213.966 61.0114 214.059 61.0922 214.17C61.1729 214.28 61.23 214.406 61.26 214.54L62.63 219.94ZM59.89 209.53C59.9633 209.811 59.9223 210.11 59.7762 210.361C59.6301 210.612 59.3906 210.795 59.11 210.87L53.83 212.26C53.6908 212.299 53.5451 212.31 53.4017 212.292C53.2582 212.273 53.1199 212.226 52.995 212.154C52.87 212.081 52.7609 211.984 52.6742 211.868C52.5874 211.752 52.5248 211.62 52.49 211.48L51.1 206.21C51.0622 206.07 51.0525 205.924 51.0713 205.781C51.09 205.637 51.137 205.498 51.2095 205.373C51.282 205.248 51.3785 205.138 51.4936 205.05C51.6086 204.962 51.74 204.897 51.88 204.86L57.16 203.47C57.4423 203.4 57.7409 203.443 57.9915 203.591C58.2421 203.739 58.4247 203.979 58.5 204.26L59.89 209.53ZM70.89 202.12C70.9419 202.331 70.9092 202.554 70.7989 202.74C70.6887 202.927 70.5095 203.064 70.3 203.12L61.48 205.44C61.3762 205.469 61.2678 205.476 61.1611 205.463C61.0543 205.449 60.9514 205.414 60.8583 205.36C60.7652 205.306 60.6838 205.234 60.6188 205.148C60.5539 205.062 60.5067 204.964 60.48 204.86L60.13 203.53C60.075 203.321 60.1051 203.098 60.2138 202.911C60.3225 202.723 60.5008 202.586 60.71 202.53L69.54 200.21C69.7495 200.155 69.9722 200.185 70.1596 200.294C70.347 200.403 70.4837 200.581 70.54 200.79L70.89 202.12Z"
            fill="#14BEAD"
        />
<path
            d="M0.149982 212.81L-1.18 212.27L-8.78001 209.14L-13.91 207L-21.51 203.87L-22.84 203.32C-23.1965 203.173 -23.5785 203.098 -23.9641 203.099C-24.3497 203.099 -24.7314 203.176 -25.0872 203.325C-25.443 203.474 -25.766 203.691 -26.0376 203.965C-26.3092 204.239 -26.5241 204.563 -26.67 204.92L-27.02 205.76C-27.1843 206.153 -27.2083 206.59 -27.0881 206.998C-26.9679 207.405 -26.7107 207.76 -26.36 208L-23.36 210C-21.5528 211.231 -19.8772 212.645 -18.36 214.22C-18.1415 214.095 -17.8976 214.022 -17.6465 214.004C-17.3954 213.987 -17.1436 214.027 -16.91 214.12L-11.6 216.31C-11.3615 216.401 -11.1472 216.546 -10.9738 216.733C-10.8003 216.921 -10.6724 217.145 -10.6 217.39C-8.41055 217.329 -6.22094 217.507 -4.07002 217.92L-0.560009 218.56C-0.149099 218.627 0.272427 218.553 0.6357 218.35C0.998974 218.146 1.28252 217.826 1.43999 217.44L1.79 216.6C2.05397 215.879 2.03101 215.083 1.72588 214.378C1.42075 213.673 0.856682 213.112 0.149982 212.81Z"
            fill="#14BEAD"
        />
</g>
<defs>
<clipPath id="clip0_1514_70457">
<rect
                width="792.1"
                height="537.97"
                fill="white"
                transform="translate(-334 -138)"
            />
</clipPath>
</defs>
</svg>
