<svg
    width="363"
    height="420"
    viewBox="0 0 363 420"
    fill="none"
    xmlns="http://www.w3.org/2000/svg"
>
<path
        d="M-155 195.082C-155 230.448 -124.703 258.88 -87.0171 258.88H50.4265C70.378 258.88 86.6348 274.135 86.6348 292.859V437.79C86.6348 473.156 116.931 501.588 154.618 501.588C192.304 501.588 222.6 473.156 222.6 437.79V195.082C222.6 178.439 215.95 162.49 202.649 150.007C189.348 137.525 171.613 131.284 154.618 131.284H-87.0171C-124.703 130.591 -155 159.716 -155 195.082Z"
        fill="white"
    />
<path
        d="M292.8 132.677C331.57 132.677 363 103.182 363 66.7987C363 30.4153 331.57 0.920715 292.8 0.920715C254.03 0.920715 222.601 30.4153 222.601 66.7987C222.601 103.182 254.03 132.677 292.8 132.677Z"
        fill="white"
    />
</svg>
