<svg
    width="358"
    height="372"
    viewBox="0 0 358 372"
    fill="none"
    xmlns="http://www.w3.org/2000/svg"
>
<path
        d="M206.252 371.845C243.82 371.845 274.022 343.324 274.022 307.847L274.022 178.461C274.022 159.679 290.228 144.375 310.117 144.375L464.074 144.375C501.642 144.375 531.844 115.854 531.844 80.3772C531.844 44.9002 501.642 16.3795 464.074 16.3795L206.252 16.3795C188.572 16.3795 171.63 22.6402 158.37 35.1614C145.111 47.6827 138.481 64.3778 138.481 80.3772L138.481 307.847C137.745 343.324 168.683 371.845 206.252 371.845Z"
        fill="white"
    />
<path
        d="M139.961 -49.7051C139.961 -86.2026 108.629 -115.79 69.9803 -115.79C31.3312 -115.79 -4.6488e-06 -86.2026 -2.99481e-06 -49.7051C-1.34082e-06 -13.2077 31.3313 16.3794 69.9803 16.3794C108.629 16.3794 139.961 -13.2077 139.961 -49.7051Z"
        fill="white"
    />
</svg>
