<svg
    width="96"
    height="24"
    viewBox="0 0 96 24"
    fill="none"
    xmlns="http://www.w3.org/2000/svg"
>
<g clip-path="url(#clip0_550_41155)">
<path
            d="M25.3759 19.0156V5.87755H28.1504V11.6687H28.3238L33.0637 5.87755H36.4164L31.5319 11.7551L36.4742 19.0156H33.1504L29.5377 13.6278L28.1793 15.2701V19.0156H25.3759Z"
            fill="white"
        />
<path
            d="M40.2314 19.1885C39.5955 19.1885 39.0464 19.0732 38.5551 18.8715C38.0637 18.641 37.6591 18.3241 37.399 17.8919C37.11 17.4598 36.9655 16.9124 36.9655 16.2785C36.9655 15.7311 37.0522 15.2701 37.2545 14.8956C37.4568 14.521 37.7169 14.2329 38.0637 14.0024C38.4105 13.7719 38.8152 13.599 39.2487 13.4838C39.6822 13.3685 40.1447 13.2821 40.636 13.2533C41.214 13.1957 41.6765 13.138 42.0233 13.0804C42.3701 13.0228 42.6302 12.9364 42.7747 12.8499C42.9192 12.7635 43.0059 12.5906 43.0059 12.3889V12.3601C43.0059 11.9568 42.8903 11.6398 42.6302 11.4094C42.3701 11.1789 42.0233 11.0636 41.5319 11.0636C41.0406 11.0636 40.636 11.1789 40.347 11.3805C40.058 11.611 39.8556 11.8703 39.7689 12.1873L37.2256 11.9856C37.3412 11.3805 37.6013 10.8619 37.977 10.4298C38.3527 9.99759 38.8441 9.65185 39.451 9.42136C40.058 9.19087 40.7516 9.07562 41.5319 9.07562C42.0811 9.07562 42.6013 9.13325 43.1215 9.2773C43.6129 9.39255 44.0753 9.59423 44.4799 9.88235C44.8846 10.1416 45.1736 10.4874 45.4048 10.9196C45.636 11.3517 45.7516 11.8415 45.7516 12.4178V19.0156H43.1505V17.6615H43.0637C42.9192 17.9784 42.688 18.2377 42.4279 18.4682C42.1678 18.6987 41.8499 18.8715 41.4741 19.0156C41.1562 19.1308 40.7227 19.1885 40.2314 19.1885ZM41.0406 17.3157C41.4452 17.3157 41.7921 17.2293 42.11 17.0852C42.4279 16.9124 42.6591 16.7107 42.8325 16.4226C43.0059 16.1344 43.0926 15.8463 43.0926 15.5006V14.4634C43.0059 14.521 42.8903 14.5786 42.7458 14.6074C42.6013 14.6651 42.4279 14.6939 42.2545 14.7227C42.0811 14.7515 41.8788 14.7803 41.7054 14.8091C41.5319 14.8379 41.3585 14.8667 41.214 14.8956C40.8961 14.9532 40.6071 15.0108 40.3759 15.126C40.1447 15.2413 39.9423 15.3565 39.8267 15.5294C39.7111 15.7023 39.6244 15.904 39.6244 16.1633C39.6244 16.5378 39.7689 16.8259 40.029 16.9988C40.2892 17.1717 40.6071 17.3157 41.0406 17.3157Z"
            fill="white"
        />
<path
            d="M47.5436 19.0156V9.16206H50.2025V10.8908H50.3182C50.4916 10.2857 50.8095 9.82473 51.2141 9.5078C51.6476 9.19087 52.139 9.04681 52.6881 9.04681C52.8326 9.04681 52.9771 9.04681 53.1216 9.07563C53.2661 9.10444 53.4106 9.10444 53.5263 9.13325V11.5246C53.4106 11.4958 53.2083 11.4382 53.006 11.4094C52.7748 11.3805 52.5725 11.3517 52.3702 11.3517C51.9656 11.3517 51.6187 11.4382 51.3008 11.611C50.9829 11.7839 50.7228 12.0144 50.5494 12.3313C50.376 12.6483 50.2893 12.994 50.2893 13.3974V19.0156H47.5436Z"
            fill="white"
        />
<path
            d="M55.925 7.89435C55.5204 7.89435 55.1736 7.7503 54.8846 7.49099C54.5956 7.23169 54.451 6.88595 54.451 6.5114C54.451 6.13685 54.5956 5.81993 54.8846 5.53181C55.1736 5.27251 55.5204 5.12845 55.925 5.12845C56.3297 5.12845 56.6765 5.27251 56.9655 5.53181C57.2545 5.79111 57.399 6.13685 57.399 6.5114C57.399 6.88595 57.2545 7.23169 56.9655 7.49099C56.6765 7.7503 56.3297 7.89435 55.925 7.89435ZM54.5378 19.0156V9.16206H57.2834V19.0156H54.5378Z"
            fill="white"
        />
<path
            d="M59.0754 19.0156V9.16206H61.7344V10.8908H61.85C62.0234 10.2857 62.3413 9.82473 62.746 9.5078C63.1795 9.19087 63.6708 9.04681 64.22 9.04681C64.3645 9.04681 64.509 9.04681 64.6535 9.07563C64.798 9.10444 64.9425 9.10444 65.0581 9.13325V11.5246C64.9425 11.4958 64.7402 11.4382 64.5379 11.4094C64.3067 11.3805 64.1044 11.3517 63.902 11.3517C63.4974 11.3517 63.1506 11.4382 62.8327 11.611C62.5148 11.7839 62.2546 12.0144 62.0812 12.3313C61.9078 12.6483 61.8211 12.994 61.8211 13.3974V19.0156H59.0754Z"
            fill="white"
        />
<path
            d="M68.0928 13.0804V19.0156H66.561V5.87755H68.0928V10.6891H68.2084C68.4397 10.1705 68.7865 9.7671 69.2489 9.47899C69.7113 9.19087 70.3472 9.018 71.0986 9.018C71.7634 9.018 72.3703 9.16206 72.8616 9.42137C73.3819 9.68067 73.7576 10.084 74.0466 10.6603C74.3356 11.2077 74.4801 11.8992 74.4801 12.7635V19.0156H72.9483V12.8499C72.9483 12.072 72.746 11.467 72.3414 11.0348C71.9368 10.6026 71.3876 10.401 70.6651 10.401C70.1738 10.401 69.7113 10.5162 69.3356 10.7179C68.931 10.9196 68.642 11.2365 68.4108 11.6399C68.1795 12.0432 68.0928 12.5042 68.0928 13.0804Z"
            fill="white"
        />
<path
            d="M83.0929 14.982V9.16206H84.6247V19.0156H83.0929V17.3445H82.9773C82.7461 17.8343 82.3993 18.2665 81.9079 18.6122C81.4166 18.958 80.8097 19.1308 80.0582 19.1308C79.4513 19.1308 78.9022 18.9868 78.4108 18.7275C77.9195 18.4682 77.5438 18.036 77.2837 17.4886C76.9946 16.9412 76.879 16.2497 76.879 15.4142V9.16206H78.4108V15.3277C78.4108 16.048 78.6131 16.6242 79.0178 17.0564C79.4224 17.4886 79.9426 17.6903 80.5785 17.6903C80.9542 17.6903 81.3299 17.6038 81.7345 17.4022C82.1392 17.2005 82.4571 16.9124 82.7172 16.509C82.9773 16.1056 83.0929 15.587 83.0929 14.982Z"
            fill="white"
        />
<path
            d="M87.1969 19.0156V5.87755H88.7287V10.7179H88.8443C88.9599 10.545 89.1044 10.3145 89.3067 10.0552C89.509 9.79592 89.7981 9.53661 90.1738 9.33493C90.5495 9.13325 91.0697 9.018 91.7056 9.018C92.5437 9.018 93.2663 9.21969 93.9021 9.65186C94.538 10.084 95.0293 10.6603 95.3761 11.4094C95.7229 12.1585 95.8963 13.0804 95.8963 14.0888C95.8963 15.126 95.7229 16.048 95.3761 16.7971C95.0293 17.575 94.538 18.1513 93.9021 18.5546C93.2663 18.958 92.5437 19.1885 91.7345 19.1885C91.0986 19.1885 90.5784 19.0732 90.2027 18.8715C89.827 18.6699 89.5379 18.4106 89.3356 18.1513C89.1333 17.892 88.9599 17.6615 88.8732 17.4886H88.6998V19.0156H87.1969ZM88.6998 14.0888C88.6998 14.8379 88.8154 15.5006 89.0177 16.048C89.22 16.5954 89.5668 17.0564 89.9715 17.3733C90.405 17.6903 90.8963 17.8631 91.5033 17.8631C92.1391 17.8631 92.6593 17.6903 93.0929 17.3733C93.5264 17.0276 93.8443 16.5954 94.0466 16.0192C94.2489 15.443 94.3645 14.8091 94.3645 14.1176C94.3645 13.4262 94.2489 12.7923 94.0466 12.2449C93.8443 11.6975 93.5264 11.2365 93.0929 10.9196C92.6593 10.6026 92.1391 10.4298 91.4744 10.4298C90.8674 10.4298 90.3472 10.5738 89.9137 10.8908C89.4801 11.2077 89.1622 11.6399 88.9599 12.1873C88.7576 12.7347 88.6998 13.3397 88.6998 14.0888Z"
            fill="white"
        />
<path
            d="M0 8.06723C0 9.53661 1.18498 10.7179 2.65897 10.7179H8.03471C8.81506 10.7179 9.4509 11.3517 9.4509 12.1297V18.1513C9.4509 19.6206 10.6359 20.8019 12.1099 20.8019C13.5839 20.8019 14.7688 19.6206 14.7688 18.1513V8.06723C14.7688 7.37575 14.5087 6.71308 13.9885 6.19448C13.4683 5.67587 12.7746 5.41657 12.1099 5.41657H2.65897C1.18498 5.38775 0 6.59784 0 8.06723Z"
            fill="white"
        />
<path
            d="M17.5145 5.47419C19.0309 5.47419 20.2601 4.24875 20.2601 2.73709C20.2601 1.22544 19.0309 0 17.5145 0C15.9981 0 14.7688 1.22544 14.7688 2.73709C14.7688 4.24875 15.9981 5.47419 17.5145 5.47419Z"
            fill="white"
        />
<path
            d="M67.8037 24C67.5725 24 67.3702 23.9424 67.2257 23.856C67.0523 23.7695 66.9367 23.6255 66.85 23.4526C66.7632 23.2797 66.7054 23.0781 66.7054 22.8476C66.7054 22.6171 66.7632 22.4154 66.85 22.2425C66.9367 22.0696 67.0812 21.9256 67.2257 21.8392C67.3991 21.7527 67.5725 21.6951 67.8037 21.6951C68.0349 21.6951 68.2372 21.7527 68.3818 21.8392C68.5552 21.9256 68.6708 22.0696 68.7575 22.2425C68.8442 22.4154 68.902 22.6171 68.902 22.8476C68.902 23.0781 68.8442 23.2797 68.7575 23.4526C68.6708 23.6255 68.5263 23.7695 68.3818 23.856C68.2372 23.9424 68.0349 24 67.8037 24ZM67.8037 23.5102C67.9193 23.5102 68.006 23.4814 68.0638 23.4238C68.1216 23.3662 68.1794 23.2797 68.2083 23.1933C68.2372 23.1069 68.2661 22.9628 68.2661 22.8476C68.2661 22.7035 68.2372 22.5883 68.2083 22.5018C68.1794 22.3866 68.1216 22.329 68.0638 22.2713C68.006 22.2137 67.9193 22.1849 67.8037 22.1849C67.6881 22.1849 67.6014 22.2137 67.5436 22.2713C67.4858 22.329 67.428 22.4154 67.3702 22.5018C67.3413 22.6171 67.3124 22.7323 67.3124 22.8476C67.3124 22.9916 67.3413 23.1069 67.3702 23.1933C67.3991 23.2797 67.4569 23.3662 67.5436 23.4238C67.6303 23.4814 67.717 23.5102 67.8037 23.5102Z"
            fill="white"
        />
<path d="M69.9425 20.9748V23.9712H69.3066V20.9748H69.9425Z" fill="white" />
<path
            d="M71.4742 24C71.243 24 71.0407 23.9424 70.8673 23.856C70.6939 23.7695 70.5783 23.6255 70.4916 23.4526C70.4048 23.2797 70.347 23.0781 70.347 22.8476C70.347 22.6171 70.4048 22.4154 70.4916 22.2425C70.5783 22.0696 70.6939 21.9256 70.8673 21.8392C71.0407 21.7527 71.2141 21.6951 71.4453 21.6951C71.5898 21.6951 71.7343 21.7239 71.8499 21.7527C71.9656 21.8103 72.0812 21.868 72.1968 21.9544C72.2835 22.0408 72.3702 22.1561 72.428 22.3001C72.4858 22.4442 72.5147 22.6171 72.5147 22.7899V22.9628H70.6072V22.5883H71.9077C71.9077 22.5018 71.8788 22.4154 71.8499 22.3578C71.821 22.3001 71.7632 22.2425 71.6765 22.1849C71.6187 22.1561 71.532 22.1273 71.4453 22.1273C71.3586 22.1273 71.2719 22.1561 71.1852 22.1849C71.0985 22.2137 71.0696 22.2713 71.0118 22.3578C70.9829 22.4154 70.954 22.5018 70.954 22.5883V22.9628C70.954 23.078 70.9829 23.1645 71.0118 23.2509C71.0407 23.3374 71.0985 23.395 71.1852 23.4238C71.2719 23.4526 71.3586 23.4814 71.4453 23.4814C71.5031 23.4814 71.5898 23.4814 71.6476 23.4526C71.7054 23.4238 71.7632 23.395 71.7921 23.3662C71.821 23.3374 71.8499 23.2797 71.8788 23.2221L72.4569 23.2509C72.428 23.395 72.3702 23.5102 72.2835 23.6255C72.1968 23.7407 72.0812 23.7983 71.9366 23.856C71.821 23.9712 71.6476 24 71.4742 24Z"
            fill="white"
        />
<path
            d="M73.5262 22.6747V23.9712H72.8904V20.9748H73.4973V22.1273H73.5262C73.584 21.9832 73.6707 21.8968 73.7574 21.8103C73.873 21.7239 74.0176 21.6951 74.191 21.6951C74.3355 21.6951 74.48 21.7239 74.5956 21.8103C74.7112 21.868 74.7979 21.9832 74.8557 22.0985C74.9135 22.2137 74.9424 22.3866 74.9424 22.5594V23.9712H74.3066V22.6459C74.3066 22.5018 74.2777 22.4154 74.191 22.3289C74.1332 22.2425 74.0176 22.2137 73.9019 22.2137C73.8152 22.2137 73.7285 22.2425 73.6707 22.2713C73.6129 22.3001 73.5551 22.3578 73.5262 22.4154C73.5551 22.473 73.5262 22.5594 73.5262 22.6747Z"
            fill="white"
        />
<path
            d="M76.4453 23.9712V20.9748H77.0812V22.3001H77.1101L78.1794 20.9748H78.9309L77.8326 22.3001L78.9598 23.9424H78.2083L77.3991 22.7035L77.0812 23.078V23.9136H76.4453V23.9712Z"
            fill="white"
        />
<path
            d="M80.1159 24C79.8847 24 79.6824 23.9424 79.509 23.856C79.3356 23.7695 79.22 23.6255 79.1333 23.4526C79.0466 23.2797 78.9888 23.0781 78.9888 22.8476C78.9888 22.6171 79.0466 22.4154 79.1333 22.2425C79.22 22.0696 79.3356 21.9256 79.509 21.8392C79.6824 21.7527 79.8558 21.6951 80.087 21.6951C80.2316 21.6951 80.3761 21.7239 80.4917 21.7527C80.6073 21.8103 80.7229 21.868 80.8385 21.9544C80.9252 22.0408 81.0119 22.1561 81.0697 22.3001C81.1275 22.4442 81.1564 22.6171 81.1564 22.7899V22.9628H79.2489V22.5883H80.5495C80.5495 22.5018 80.5206 22.4154 80.4917 22.3578C80.4628 22.3001 80.405 22.2425 80.3183 22.1849C80.2605 22.1561 80.1738 22.1273 80.087 22.1273C80.0003 22.1273 79.9136 22.1561 79.8269 22.1849C79.7402 22.2137 79.7113 22.2713 79.6535 22.3578C79.6246 22.4154 79.5957 22.5018 79.5957 22.5883V22.9628C79.5957 23.078 79.6246 23.1645 79.6535 23.2509C79.6824 23.3374 79.7402 23.395 79.8269 23.4238C79.9136 23.4526 80.0003 23.4814 80.087 23.4814C80.1448 23.4814 80.2316 23.4814 80.2894 23.4526C80.3472 23.4238 80.405 23.395 80.4339 23.3662C80.4628 23.3374 80.4917 23.2797 80.5206 23.2221L81.0986 23.2509C81.0697 23.395 81.0119 23.5102 80.9252 23.6255C80.8385 23.7407 80.7229 23.7983 80.5784 23.856C80.4628 23.9712 80.3183 24 80.1159 24Z"
            fill="white"
        />
<path
            d="M81.561 23.9712V21.7239H82.168V22.1273H82.1969C82.2547 21.9832 82.3125 21.8968 82.4281 21.8103C82.5437 21.7239 82.6593 21.6951 82.8327 21.6951C82.9772 21.6951 83.1217 21.7239 83.2373 21.8103C83.353 21.8968 83.4108 21.9832 83.4397 22.1273H83.4686C83.5264 22.012 83.5842 21.8968 83.7287 21.8103C83.8443 21.7239 83.9888 21.6951 84.1622 21.6951C84.3645 21.6951 84.5379 21.7527 84.6824 21.8968C84.827 22.0408 84.8848 22.2137 84.8848 22.473V23.9712H84.2778V22.5883C84.2778 22.473 84.2489 22.3578 84.1911 22.3001C84.1333 22.2425 84.0466 22.2137 83.931 22.2137C83.8154 22.2137 83.7287 22.2425 83.6709 22.329C83.6131 22.3866 83.5842 22.5018 83.5842 22.6171V23.9712H82.9772V22.5883C82.9772 22.473 82.9483 22.3866 82.8905 22.329C82.8327 22.2713 82.746 22.2425 82.6304 22.2425C82.5726 22.2425 82.4859 22.2713 82.457 22.3001C82.3992 22.329 82.3703 22.3866 82.3125 22.4442C82.2836 22.5018 82.2547 22.5883 82.2547 22.6747V24.0288H81.561V23.9712Z"
            fill="white"
        />
<path
            d="M85.9251 22.6747V23.9712H85.2893V21.7239H85.8963V22.1273H85.9251C85.983 21.9832 86.0697 21.8968 86.1853 21.8103C86.3009 21.7239 86.4454 21.6951 86.6188 21.6951C86.7633 21.6951 86.9078 21.7239 87.0234 21.8103C87.139 21.8968 87.2257 21.9832 87.2836 22.0985C87.3414 22.2137 87.3703 22.3866 87.3703 22.5594V23.9712H86.7344V22.6459C86.7344 22.5018 86.7055 22.4154 86.6188 22.329C86.561 22.2425 86.4454 22.2137 86.3298 22.2137C86.2431 22.2137 86.1853 22.2425 86.0986 22.2713C86.0408 22.3001 85.983 22.3578 85.9541 22.4154C85.9541 22.473 85.9251 22.5594 85.9251 22.6747Z"
            fill="white"
        />
<path
            d="M88.5264 24C88.3819 24 88.2663 23.9712 88.1507 23.9136C88.0351 23.856 87.9483 23.7983 87.8905 23.6831C87.8327 23.5679 87.8038 23.4526 87.8038 23.3085C87.8038 23.1933 87.8327 23.0781 87.8616 22.9916C87.9194 22.9052 87.9772 22.8476 88.0351 22.7899C88.1218 22.7323 88.2085 22.7035 88.2952 22.6747C88.3819 22.6459 88.4975 22.6171 88.6131 22.6171C88.7576 22.6171 88.8443 22.5883 88.931 22.5883C89.0177 22.5883 89.0755 22.5594 89.1044 22.5306C89.1333 22.5018 89.1622 22.473 89.1622 22.4154C89.1622 22.329 89.1333 22.2425 89.0755 22.2137C89.0177 22.1561 88.931 22.1273 88.8154 22.1273C88.6998 22.1273 88.6131 22.1561 88.5553 22.2137C88.4975 22.2713 88.4397 22.329 88.4108 22.3866L87.8327 22.329C87.8616 22.1849 87.9194 22.0697 88.0061 21.9832C88.0929 21.8968 88.2085 21.8103 88.353 21.7527C88.4975 21.6951 88.642 21.6663 88.8154 21.6663C88.931 21.6663 89.0466 21.6951 89.1622 21.7239C89.2778 21.7527 89.3645 21.8103 89.4801 21.868C89.5669 21.9256 89.6536 22.012 89.6825 22.0985C89.7114 22.1849 89.7692 22.3001 89.7692 22.4442V23.9424H89.1911V23.6255H89.1622C89.1333 23.6831 89.0755 23.7695 89.0177 23.7983C88.9599 23.856 88.8732 23.8848 88.7865 23.9136C88.7287 24 88.6131 24 88.5264 24ZM88.6998 23.5679C88.7865 23.5679 88.8732 23.539 88.931 23.5102C88.9888 23.4814 89.0466 23.4238 89.1044 23.3662C89.1333 23.3085 89.1622 23.2221 89.1622 23.1645V22.934C89.1333 22.934 89.1044 22.9628 89.0755 22.9628C89.0466 22.9628 89.0177 22.9916 88.9599 22.9916C88.931 22.9916 88.8732 23.0204 88.8443 23.0204C88.8154 23.0204 88.7576 23.0204 88.7287 23.0492C88.642 23.0492 88.5842 23.0781 88.5264 23.1069C88.4686 23.1357 88.4397 23.1645 88.4108 23.1933C88.3819 23.2221 88.353 23.2797 88.353 23.3374C88.353 23.4238 88.3819 23.4814 88.4397 23.539C88.5264 23.539 88.5842 23.5679 88.6998 23.5679Z"
            fill="white"
        />
<path
            d="M90.2605 23.9712V20.9748H90.8963V23.9712H90.2605ZM90.8385 23.3085V22.5594H90.9252L91.6478 21.7239H92.3703L91.4166 22.8476H91.2721L90.8385 23.3085ZM91.6767 23.9712L91.0119 22.9916L91.4166 22.5594L92.3992 23.9712H91.6767Z"
            fill="white"
        />
<path
            d="M93.5842 24C93.353 24 93.1507 23.9424 92.9773 23.856C92.8039 23.7695 92.6882 23.6255 92.6015 23.4526C92.5148 23.2797 92.457 23.0781 92.457 22.8476C92.457 22.6171 92.5148 22.4154 92.6015 22.2425C92.6882 22.0696 92.8039 21.9256 92.9773 21.8392C93.1507 21.7527 93.3241 21.6951 93.5553 21.6951C93.6998 21.6951 93.8443 21.7239 93.9599 21.7527C94.0755 21.8103 94.1911 21.868 94.3067 21.9544C94.3935 22.0408 94.4802 22.1561 94.538 22.3001C94.5958 22.4442 94.6247 22.6171 94.6247 22.7899V22.9628H92.7171V22.5883H94.0177C94.0177 22.5018 93.9888 22.4154 93.9599 22.3578C93.931 22.3001 93.8732 22.2425 93.7865 22.1849C93.7287 22.1561 93.642 22.1273 93.5553 22.1273C93.4686 22.1273 93.3819 22.1561 93.2952 22.1849C93.2085 22.2137 93.1796 22.2713 93.1218 22.3578C93.0929 22.4154 93.064 22.5018 93.064 22.5883V22.9628C93.064 23.078 93.0929 23.1645 93.1218 23.2509C93.1507 23.3374 93.2085 23.395 93.2952 23.4238C93.3819 23.4526 93.4686 23.4814 93.5553 23.4814C93.6131 23.4814 93.6998 23.4814 93.7576 23.4526C93.8154 23.4238 93.8732 23.395 93.9021 23.3662C93.931 23.3374 93.9599 23.2797 93.9888 23.2221L94.5669 23.2509C94.538 23.395 94.4802 23.5102 94.3935 23.6255C94.3068 23.7407 94.1911 23.7983 94.0466 23.856C93.931 23.9712 93.7865 24 93.5842 24Z"
            fill="white"
        />
<path
            d="M95.0293 23.9712V21.7239H95.6362V22.1273H95.6651C95.694 21.9832 95.7807 21.8968 95.8675 21.8103C95.9542 21.7527 96.0698 21.6951 96.2143 21.6951C96.2432 21.6951 96.2721 21.6951 96.301 21.6951C96.3299 21.6951 96.3588 21.6951 96.3877 21.7239V22.2713C96.3588 22.2713 96.3299 22.2425 96.2721 22.2425C96.2143 22.2425 96.1854 22.2425 96.1276 22.2425C96.0409 22.2425 95.9542 22.2713 95.8963 22.3001C95.8385 22.329 95.7807 22.3866 95.7229 22.473C95.6651 22.5594 95.6651 22.6171 95.6651 22.7035V23.9712H95.0293Z"
            fill="white"
        />
</g>
<defs>
<clipPath id="clip0_550_41155">
<rect width="96" height="24" fill="white" />
</clipPath>
</defs>
</svg>
