<svg
    width="24"
    height="24"
    viewBox="0 0 24 24"
    fill="none"
    xmlns="http://www.w3.org/2000/svg"
>
<path
        fill-rule="evenodd"
        clip-rule="evenodd"
        d="M13.788 3.80402C13.332 1.93202 10.668 1.93202 10.212 3.80402C10.1439 4.08532 10.0104 4.34657 9.82224 4.56652C9.63412 4.78646 9.39673 4.95888 9.12938 5.06975C8.86204 5.18062 8.5723 5.2268 8.28373 5.20453C7.99517 5.18227 7.71594 5.09219 7.46877 4.94162C5.82237 3.93842 3.93837 5.82242 4.94157 7.46882C5.58957 8.53202 5.01477 9.91922 3.80517 10.2132C1.93197 10.668 1.93197 13.3332 3.80517 13.7868C4.08654 13.855 4.34784 13.9886 4.56778 14.1769C4.78772 14.3652 4.96009 14.6027 5.07086 14.8702C5.18162 15.1377 5.22764 15.4276 5.20517 15.7162C5.18271 16.0048 5.09239 16.2841 4.94157 16.5312C3.93837 18.1776 5.82237 20.0616 7.46877 19.0584C7.7159 18.9076 7.99515 18.8173 8.28379 18.7948C8.57243 18.7724 8.8623 18.8184 9.12978 18.9291C9.39727 19.0399 9.63482 19.2123 9.82308 19.4322C10.0113 19.6522 10.145 19.9135 10.2132 20.1948C10.668 22.068 13.3332 22.068 13.7868 20.1948C13.8552 19.9136 13.989 19.6525 14.1773 19.4327C14.3656 19.2129 14.6031 19.0406 14.8705 18.9299C15.1379 18.8192 15.4276 18.7731 15.7162 18.7954C16.0048 18.8178 16.284 18.9079 16.5312 19.0584C18.1776 20.0616 20.0616 18.1776 19.0584 16.5312C18.9078 16.284 18.8177 16.0048 18.7954 15.7163C18.7731 15.4277 18.8191 15.1379 18.9299 14.8705C19.0406 14.6031 19.2128 14.3656 19.4326 14.1773C19.6524 13.989 19.9135 13.8552 20.1948 13.7868C22.068 13.332 22.068 10.6668 20.1948 10.2132C19.9134 10.1451 19.6521 10.0114 19.4322 9.82314C19.2122 9.63488 19.0398 9.39733 18.9291 9.12984C18.8183 8.86235 18.7723 8.57249 18.7948 8.28385C18.8172 7.99521 18.9076 7.71595 19.0584 7.46882C20.0616 5.82242 18.1776 3.93842 16.5312 4.94162C16.284 5.09244 16.0048 5.18276 15.7161 5.20523C15.4275 5.22769 15.1376 5.18167 14.8702 5.07091C14.6027 4.96015 14.3651 4.78778 14.1769 4.56784C13.9886 4.3479 13.8549 4.0866 13.7868 3.80522L13.788 3.80402ZM12 15.6C12.9547 15.6 13.8704 15.2207 14.5456 14.5456C15.2207 13.8705 15.6 12.9548 15.6 12C15.6 11.0452 15.2207 10.1296 14.5456 9.45444C13.8704 8.77931 12.9547 8.40002 12 8.40002C11.0452 8.40002 10.1295 8.77931 9.45438 9.45444C8.77925 10.1296 8.39997 11.0452 8.39997 12C8.39997 12.9548 8.77925 13.8705 9.45438 14.5456C10.1295 15.2207 11.0452 15.6 12 15.6Z"
        fill="#ED4543"
    />
</svg>
