<svg
    width="166"
    height="40"
    viewBox="0 0 166 40"
    fill="none"
    xmlns="http://www.w3.org/2000/svg"
>
<g clip-path="url(#clip0_851_47120)">
<path
            d="M18.855 22.9554C21.4835 22.9554 23.6144 20.866 23.6144 18.2885C23.6144 15.711 21.4835 13.6216 18.855 13.6216C16.2264 13.6216 14.0956 15.711 14.0956 18.2885C14.0956 20.866 16.2264 22.9554 18.855 22.9554Z"
            fill="#09B8A7"
        />
<path
            d="M31.3709 4.84957C31.3709 6.18914 30.8421 7.48551 29.8726 8.43617L28.0658 10.2079C27.0081 11.245 25.4216 11.6339 24.0114 11.245C22.8657 10.8993 21.4555 10.5104 20.0012 10.0782C17.6215 9.38684 15.7706 10.1214 14.9774 10.5104C14.713 10.64 14.4045 10.5968 14.2282 10.4239L14.1841 10.3807C13.9197 10.1214 13.9197 9.73254 14.1841 9.47327L16.7401 6.96696L21.4114 2.38647L22.5131 1.30617C22.9538 0.874048 23.4826 0.485138 24.0555 0.225865C26.0827 -0.68159 28.3742 -0.163044 29.8285 1.26296C30.8421 2.21362 31.3709 3.50999 31.3709 4.84957Z"
            fill="#09B8A7"
        />
<path
            d="M32.5608 30.5609C31.1946 30.5609 29.8726 30.0423 28.9031 29.0917L26.7878 27.0175C25.8623 26.11 25.5538 24.8136 25.9064 23.6469C26.2589 22.4802 26.6996 20.9246 27.1844 19.3689C27.8895 17.0355 27.1403 15.2206 26.7437 14.4427C26.6115 14.1835 26.6556 13.881 26.8318 13.7081L26.8759 13.6649C27.1403 13.4056 27.5369 13.4056 27.8013 13.6649L30.3573 16.1712L35.0727 20.7949L36.1744 21.8752C36.6151 22.3073 37.0117 22.8259 37.2761 23.3876C38.2015 25.3754 37.6727 27.6224 36.2184 29.0484C35.2489 30.0423 33.9269 30.5609 32.5608 30.5609Z"
            fill="#09B8A7"
        />
<path
            d="M6.33972 31.7275C6.33972 30.3879 6.86854 29.0916 7.83805 28.1409L9.55673 26.4556C10.7025 25.3321 12.3331 24.9432 13.8755 25.3753C14.9772 25.6778 16.3433 26.1099 17.7094 26.4988C20.0891 27.1902 21.94 26.4556 22.7332 26.0667C22.9977 25.9371 23.3061 25.9803 23.4824 26.1531L23.5265 26.1963C23.7909 26.4556 23.7909 26.8445 23.5265 27.1038L20.9705 29.6101L16.2992 34.1906L15.1975 35.2709C14.7568 35.703 14.228 36.0919 13.6551 36.3512C11.628 37.2586 9.33639 36.7401 7.88212 35.3141C6.86855 34.3634 6.33972 33.0671 6.33972 31.7275Z"
            fill="#09B8A7"
        />
<path
            d="M5.14986 6.01636C6.51599 6.01636 7.83805 6.5349 8.80756 7.48557L11.1432 9.77582C11.8924 10.5104 12.2008 11.5907 11.8924 12.6278C11.5398 13.8378 11.011 15.523 10.5262 17.2083C9.82113 19.5418 10.5703 21.3567 10.9669 22.1345C11.0991 22.3938 11.0551 22.6962 10.8788 22.8691L10.8347 22.9123C10.5703 23.1716 10.1737 23.1716 9.90927 22.9123L7.35329 20.406L2.63795 15.7823L1.53624 14.702C1.09555 14.2699 0.698932 13.7513 0.43452 13.1896C-0.490921 11.2018 0.0379025 8.95478 1.49217 7.52878C2.46168 6.5349 3.78373 6.01636 5.14986 6.01636Z"
            fill="#09B8A7"
        />
<path
            d="M103.511 9.25727C102.938 8.22018 102.101 7.39915 100.999 6.83739C99.8976 6.23242 98.5756 5.97314 96.9891 5.97314H91.7009C90.5551 5.97314 89.6296 6.8806 89.6296 8.00412V24.079C89.6296 25.289 90.5991 26.2396 91.8331 26.2396C93.0229 26.2396 93.9924 25.289 93.9924 24.1223V20.8381C93.9924 20.1899 94.5213 19.6714 95.1823 19.6714H96.8569C98.4434 19.6714 99.8095 19.3689 100.911 18.8072C102.013 18.2454 102.894 17.4244 103.467 16.3873C104.04 15.3502 104.349 14.1835 104.349 12.8007C104.349 11.4179 104.084 10.2511 103.511 9.25727ZM99.4569 14.5724C99.1925 15.0909 98.7518 15.4798 98.223 15.7823C97.6942 16.0848 96.9891 16.2144 96.1518 16.2144H94.8297C94.345 16.2144 93.9924 15.8255 93.9924 15.3934V10.0351C93.9924 9.7326 94.2569 9.47333 94.5653 9.47333H96.1077C96.945 9.47333 97.6501 9.60297 98.223 9.90545C98.7959 10.1647 99.1925 10.5968 99.4569 11.0722C99.7214 11.5907 99.8536 12.1525 99.8536 12.8439C99.8536 13.4921 99.7214 14.0538 99.4569 14.5724Z"
            fill="#1A1A1A"
        />
<path
            d="M60.0594 19.7578C60.0594 24.0358 57.856 26.1532 52.3033 26.1532C49.4829 26.1532 47.9846 25.7211 46.6625 24.9001C45.8693 24.4247 45.2964 23.7333 44.9439 22.9123C44.3269 21.5727 45.3845 20.0603 46.8829 20.0603H47.2354C48.0287 20.0603 48.6897 20.5356 49.1304 21.1838C49.527 21.8752 50.4524 22.2209 52.2592 22.2209C53.6254 22.2209 54.022 22.0913 54.639 21.7888C55.3881 21.4431 55.7407 20.8813 55.7407 20.0603C55.7407 19.0664 55.3881 18.5047 54.639 18.2454C54.3305 18.1158 53.8898 18.0293 52.1711 17.8997C49.4389 17.7269 48.0727 17.4244 47.1032 16.949C45.4286 16.128 44.5472 14.4859 44.5472 12.0661C44.5472 9.7326 45.2523 8.13375 46.6625 7.18308C47.9405 6.36205 49.3948 5.92993 52.1711 5.92993C54.9474 5.92993 56.4458 6.36205 57.7678 7.18308C58.517 7.65842 59.0899 8.3066 59.4865 9.12763C60.1035 10.4672 59.0458 11.9796 57.5475 11.9796H57.2831C56.4898 11.9796 55.7407 11.5907 55.3881 10.8993C54.9915 10.1215 54.022 9.7326 52.0389 9.7326C50.5406 9.7326 50.0558 9.90545 49.527 10.2944C49.0863 10.5968 48.91 11.0722 48.91 11.8068C48.91 12.671 49.2626 13.2328 50.0117 13.4488C50.4084 13.5785 50.805 13.7081 52.3033 13.7513C55.1678 13.881 56.5339 14.1835 57.4593 14.6588C59.178 15.523 60.0594 17.2083 60.0594 19.7578Z"
            fill="#1A1A1A"
        />
<path
            d="M64.5983 26.11C63.3644 26.11 62.3508 25.1161 62.3508 23.9062V8.17696C62.3508 6.96702 63.3644 5.97314 64.5983 5.97314C65.8322 5.97314 66.8458 6.96702 66.8458 8.17696V23.9062C66.8458 25.1161 65.8763 26.11 64.5983 26.11Z"
            fill="#1A1A1A"
        />
<path
            d="M85.9716 20.1035L81.3004 8.04733C80.8156 6.79418 79.5817 5.97314 78.2156 5.97314C76.8494 5.97314 75.6155 6.79418 75.1748 8.04733L73.1477 13.276L71.6053 17.2947L69.3137 23.1716C68.7849 24.5976 69.8425 26.11 71.3849 26.11C72.3104 26.11 73.1477 25.5483 73.4562 24.684L74.3816 22.1777C74.5138 21.7888 74.8664 21.5727 75.263 21.5727H81.1682C81.5648 21.5727 81.9173 21.832 82.0495 22.1777L82.358 22.9987L82.975 24.684C83.2835 25.5483 84.1208 26.1532 85.0462 26.1532C86.5886 26.1532 87.6903 24.6408 87.1174 23.2148L85.9716 20.1035ZM76.7172 17.6836C76.3206 17.6836 76.0562 17.3379 76.1884 16.949L76.7172 15.4366L77.819 12.4118C77.9512 12.0661 78.4359 12.0661 78.5681 12.4118L80.1546 16.9058C80.2868 17.2515 80.0224 17.6404 79.6258 17.6404H76.7172V17.6836Z"
            fill="#1A1A1A"
        />
<path
            d="M109.989 39.6786C109.548 39.6786 109.152 39.5922 108.843 39.4194C108.535 39.2465 108.27 38.9872 108.094 38.6415C107.918 38.2958 107.83 37.9069 107.83 37.4748C107.83 37.0427 107.918 36.6538 108.094 36.3081C108.27 35.9624 108.535 35.7031 108.843 35.5303C109.152 35.3574 109.548 35.271 109.989 35.271C110.43 35.271 110.826 35.3574 111.135 35.5303C111.443 35.7031 111.708 35.9624 111.884 36.3081C112.06 36.6538 112.148 37.0427 112.148 37.4748C112.148 37.9069 112.06 38.2958 111.884 38.6415C111.708 38.9872 111.443 39.2465 111.135 39.4194C110.826 39.5922 110.43 39.6786 109.989 39.6786ZM109.989 38.7712C110.209 38.7712 110.342 38.728 110.518 38.5983C110.65 38.4687 110.738 38.3391 110.826 38.123C110.915 37.9069 110.915 37.6909 110.915 37.4316C110.915 37.1723 110.87 36.9563 110.826 36.7402C110.782 36.5241 110.65 36.3945 110.518 36.2649C110.386 36.1352 110.209 36.092 109.989 36.092C109.769 36.092 109.592 36.1352 109.46 36.2649C109.328 36.3945 109.196 36.5241 109.152 36.7402C109.108 36.9563 109.064 37.1723 109.064 37.4316C109.064 37.6909 109.108 37.9069 109.152 38.123C109.24 38.3391 109.328 38.4687 109.46 38.5983C109.637 38.728 109.813 38.7712 109.989 38.7712Z"
            fill="#606060"
        />
<path d="M114.176 33.845V39.5922H112.942V33.845H114.176Z" fill="#606060" />
<path
            d="M117.172 39.6786C116.732 39.6786 116.335 39.5922 115.983 39.4194C115.674 39.2465 115.41 38.9872 115.233 38.6415C115.057 38.2958 114.969 37.9069 114.969 37.4748C114.969 37.0427 115.057 36.6538 115.233 36.3081C115.41 35.9624 115.674 35.7031 115.983 35.5303C116.291 35.3574 116.688 35.2278 117.128 35.2278C117.437 35.2278 117.701 35.271 117.922 35.3574C118.186 35.4438 118.406 35.5735 118.583 35.7463C118.759 35.9192 118.935 36.1352 119.023 36.4377C119.111 36.697 119.2 37.0427 119.2 37.3884V37.7341H115.454V36.9995H118.01C118.01 36.8266 117.966 36.6538 117.878 36.5241C117.789 36.3945 117.701 36.3081 117.569 36.2217C117.437 36.1352 117.261 36.092 117.084 36.092C116.908 36.092 116.732 36.1352 116.6 36.2217C116.467 36.3081 116.335 36.4377 116.247 36.5674C116.159 36.697 116.115 36.8698 116.115 37.0427V37.7341C116.115 37.9502 116.159 38.123 116.247 38.2958C116.335 38.4687 116.423 38.5551 116.6 38.6415C116.732 38.728 116.908 38.7712 117.128 38.7712C117.261 38.7712 117.393 38.7712 117.481 38.728C117.569 38.6848 117.701 38.6415 117.789 38.5551C117.878 38.4687 117.922 38.3823 117.966 38.2958L119.111 38.3823C119.067 38.6415 118.935 38.9008 118.759 39.0737C118.583 39.2897 118.362 39.4194 118.098 39.549C117.833 39.6354 117.525 39.6786 117.172 39.6786Z"
            fill="#606060"
        />
<path
            d="M121.182 37.1291V39.6354H119.948V33.845H121.138V36.0488H121.182C121.271 35.7895 121.447 35.5735 121.667 35.4438C121.887 35.3142 122.152 35.2278 122.504 35.2278C122.813 35.2278 123.077 35.3142 123.298 35.4438C123.518 35.5735 123.694 35.7463 123.827 36.0056C123.959 36.2649 124.003 36.5241 124.003 36.8698V39.6354H122.769V37.0859C122.769 36.8266 122.681 36.6105 122.549 36.4809C122.416 36.3513 122.196 36.2649 121.976 36.2649C121.799 36.2649 121.667 36.3081 121.535 36.3513C121.403 36.4377 121.315 36.5241 121.226 36.6538C121.226 36.7834 121.182 36.913 121.182 37.1291Z"
            fill="#606060"
        />
<path
            d="M126.911 39.6354V33.845H128.145V36.3945H128.233L130.349 33.845H131.847L129.688 36.4377L131.891 39.6354H130.393L128.806 37.2587L128.189 37.9933V39.6354H126.911Z"
            fill="#606060"
        />
<path
            d="M134.139 39.6786C133.698 39.6786 133.301 39.5922 132.949 39.4194C132.64 39.2465 132.376 38.9872 132.2 38.6415C132.023 38.2958 131.935 37.9069 131.935 37.4748C131.935 37.0427 132.023 36.6538 132.2 36.3081C132.376 35.9624 132.64 35.7031 132.949 35.5303C133.257 35.3574 133.654 35.2278 134.095 35.2278C134.403 35.2278 134.667 35.271 134.888 35.3574C135.152 35.4438 135.373 35.5735 135.549 35.7463C135.725 35.9192 135.901 36.1352 135.989 36.4377C136.078 36.697 136.166 37.0427 136.166 37.3884V37.7341H132.464V36.9995H135.02C135.02 36.8266 134.976 36.6538 134.888 36.5241C134.8 36.3945 134.712 36.3081 134.579 36.2217C134.447 36.1352 134.271 36.092 134.095 36.092C133.918 36.092 133.742 36.1352 133.61 36.2217C133.478 36.3081 133.345 36.4377 133.257 36.5674C133.169 36.697 133.125 36.8698 133.125 37.0427V37.7341C133.125 37.9502 133.169 38.123 133.257 38.2958C133.345 38.4687 133.434 38.5551 133.61 38.6415C133.742 38.728 133.918 38.7712 134.139 38.7712C134.271 38.7712 134.403 38.7712 134.491 38.728C134.579 38.6848 134.712 38.6415 134.8 38.5551C134.888 38.4687 134.932 38.3823 134.976 38.2958L136.122 38.3823C136.078 38.6415 135.945 38.9008 135.769 39.0737C135.593 39.2897 135.373 39.4194 135.108 39.549C134.844 39.6354 134.491 39.6786 134.139 39.6786Z"
            fill="#606060"
        />
<path
            d="M136.959 39.6354V35.3142H138.105V36.092H138.149C138.237 35.8328 138.413 35.6599 138.59 35.4871C138.766 35.3142 139.074 35.271 139.339 35.271C139.647 35.271 139.912 35.3574 140.132 35.4871C140.352 35.6167 140.484 35.8328 140.573 36.092H140.617C140.705 35.8328 140.881 35.6599 141.101 35.4871C141.322 35.3142 141.63 35.271 141.939 35.271C142.335 35.271 142.688 35.4006 142.952 35.6599C143.217 35.9192 143.349 36.2649 143.349 36.7402V39.6354H142.115V36.9563C142.115 36.697 142.071 36.5242 141.939 36.4377C141.807 36.3081 141.63 36.2649 141.454 36.2649C141.234 36.2649 141.057 36.3513 140.925 36.4809C140.793 36.6106 140.749 36.7834 140.749 37.0427V39.6786H139.559V36.9995C139.559 36.7834 139.515 36.6106 139.383 36.4809C139.251 36.3513 139.118 36.3081 138.898 36.3081C138.766 36.3081 138.634 36.3513 138.545 36.3945C138.457 36.4809 138.369 36.5674 138.281 36.6538C138.193 36.7402 138.193 36.9131 138.193 37.0859V39.6786H136.959V39.6354Z"
            fill="#606060"
        />
<path
            d="M145.552 37.1291V39.6354H144.318V35.3142H145.464V36.092H145.508C145.596 35.8328 145.772 35.6599 145.993 35.4871C146.213 35.3574 146.522 35.271 146.83 35.271C147.139 35.271 147.403 35.3574 147.623 35.4871C147.844 35.6167 148.02 35.7895 148.152 36.0488C148.284 36.3081 148.328 36.5674 148.328 36.9131V39.6786H147.183V37.1291C147.183 36.8698 147.095 36.6538 146.962 36.5241C146.83 36.3945 146.61 36.3081 146.389 36.3081C146.213 36.3081 146.081 36.3513 145.949 36.3945C145.817 36.4809 145.728 36.5674 145.64 36.697C145.596 36.7834 145.552 36.9131 145.552 37.1291Z"
            fill="#606060"
        />
<path
            d="M150.62 39.6786C150.356 39.6786 150.092 39.6354 149.871 39.549C149.651 39.4626 149.475 39.2897 149.342 39.1169C149.21 38.944 149.166 38.6848 149.166 38.4255C149.166 38.1662 149.21 37.9934 149.298 37.8205C149.386 37.6477 149.519 37.518 149.651 37.4316C149.827 37.3452 150.003 37.2588 150.18 37.2155C150.356 37.1723 150.576 37.1291 150.797 37.1291C151.061 37.0859 151.237 37.0859 151.414 37.0427C151.59 36.9995 151.678 36.9995 151.766 36.9563C151.854 36.9131 151.854 36.8266 151.854 36.7402C151.854 36.5674 151.81 36.4377 151.678 36.3081C151.546 36.2217 151.414 36.1785 151.193 36.1785C150.973 36.1785 150.797 36.2217 150.664 36.3081C150.532 36.3945 150.444 36.5242 150.4 36.6538L149.254 36.5674C149.298 36.3081 149.431 36.092 149.607 35.876C149.783 35.7031 150.003 35.5303 150.268 35.4438C150.532 35.3574 150.841 35.271 151.193 35.271C151.458 35.271 151.678 35.3142 151.898 35.3574C152.119 35.4006 152.339 35.4871 152.515 35.6167C152.692 35.7463 152.824 35.876 152.912 36.092C153 36.2649 153.044 36.4809 153.044 36.7402V39.6354H151.898V39.0305H151.854C151.766 39.1601 151.678 39.2897 151.59 39.3761C151.502 39.4626 151.326 39.549 151.149 39.6354C150.973 39.7218 150.841 39.6786 150.62 39.6786ZM150.973 38.8576C151.149 38.8576 151.326 38.8144 151.458 38.7712C151.59 38.6848 151.722 38.5983 151.766 38.4687C151.854 38.3391 151.898 38.2094 151.898 38.0798V37.6045C151.854 37.6477 151.81 37.6477 151.722 37.6909C151.678 37.6909 151.59 37.7341 151.502 37.7341C151.414 37.7341 151.326 37.7773 151.237 37.7773C151.149 37.7773 151.061 37.8205 151.017 37.8205C150.885 37.8205 150.753 37.8637 150.62 37.9069C150.532 37.9501 150.444 37.9934 150.356 38.0798C150.268 38.1662 150.268 38.2526 150.268 38.3823C150.268 38.5551 150.312 38.6848 150.444 38.7712C150.576 38.8576 150.753 38.8576 150.973 38.8576Z"
            fill="#606060"
        />
<path
            d="M154.013 39.6354V33.845H155.247V39.5922H154.013V39.6354ZM155.159 38.3822V36.9562H155.335L156.746 35.3142H158.156L156.261 37.4748H155.952L155.159 38.3822ZM156.79 39.6354L155.512 37.7341L156.305 36.8698L158.2 39.5922H156.79V39.6354Z"
            fill="#606060"
        />
<path
            d="M160.536 39.6786C160.095 39.6786 159.699 39.5922 159.346 39.4194C159.038 39.2465 158.773 38.9872 158.597 38.6415C158.421 38.2958 158.333 37.9069 158.333 37.4748C158.333 37.0427 158.421 36.6538 158.597 36.3081C158.773 35.9624 159.038 35.7031 159.346 35.5303C159.655 35.3574 160.051 35.2278 160.492 35.2278C160.8 35.2278 161.065 35.271 161.285 35.3574C161.55 35.4438 161.77 35.5735 161.946 35.7463C162.122 35.9192 162.299 36.1352 162.387 36.4377C162.475 36.697 162.563 37.0427 162.563 37.3884V37.7341H158.861V36.9995H161.417C161.417 36.8266 161.373 36.6538 161.285 36.5241C161.197 36.3945 161.109 36.3081 160.977 36.2217C160.844 36.1352 160.668 36.092 160.492 36.092C160.316 36.092 160.139 36.1352 160.007 36.2217C159.875 36.3081 159.743 36.4377 159.655 36.5674C159.566 36.697 159.522 36.8698 159.522 37.0427V37.7341C159.522 37.9502 159.566 38.123 159.655 38.2958C159.743 38.4687 159.831 38.5551 160.007 38.6415C160.139 38.728 160.316 38.7712 160.536 38.7712C160.668 38.7712 160.8 38.7712 160.889 38.728C160.977 38.6848 161.109 38.6415 161.197 38.5551C161.285 38.4687 161.329 38.3823 161.373 38.2958L162.519 38.3823C162.475 38.6415 162.343 38.9008 162.167 39.0737C161.99 39.2897 161.77 39.4194 161.505 39.549C161.241 39.6354 160.933 39.6786 160.536 39.6786Z"
            fill="#606060"
        />
<path
            d="M163.356 39.6354V35.3142H164.546V36.0488H164.59C164.678 35.7895 164.81 35.5735 164.986 35.4438C165.163 35.3142 165.383 35.2278 165.648 35.2278C165.692 35.2278 165.78 35.2278 165.824 35.2278C165.912 35.2278 165.956 35.2278 166 35.271V36.3513C165.956 36.3513 165.868 36.3081 165.78 36.3081C165.692 36.3081 165.603 36.3081 165.515 36.3081C165.339 36.3081 165.163 36.3513 165.031 36.4377C164.898 36.5241 164.766 36.6106 164.678 36.7402C164.59 36.8698 164.546 37.0427 164.546 37.2155V39.6786H163.356V39.6354Z"
            fill="#606060"
        />
<path
            d="M107.918 26.11V5.80029H110.298V26.11H107.918ZM110.165 20.5356L110.121 17.6404H110.606L117.393 10.8561H120.345L113.118 18.0293H112.898L110.165 20.5356ZM117.789 26.11L111.708 18.5911L113.427 16.949L120.83 26.11H117.789Z"
            fill="#1A1A1A"
        />
<path
            d="M128.63 26.4126C127.132 26.4126 125.854 26.0669 124.752 25.4187C123.651 24.7705 122.857 23.8631 122.241 22.6963C121.668 21.5296 121.359 20.1468 121.359 18.5912C121.359 17.0355 121.668 15.6527 122.241 14.486C122.813 13.2761 123.651 12.3686 124.664 11.6772C125.722 10.9858 126.956 10.6833 128.322 10.6833C129.115 10.6833 129.908 10.813 130.702 11.0723C131.495 11.3315 132.2 11.7637 132.861 12.3686C133.522 12.9736 134.007 13.7514 134.403 14.7021C134.8 15.6527 134.976 16.8627 134.976 18.2887V19.2826H123.034V17.2516H132.641C132.641 16.3874 132.464 15.6095 132.112 14.9614C131.759 14.27 131.275 13.7514 130.658 13.3625C130.041 12.9736 129.291 12.7575 128.41 12.7575C127.441 12.7575 126.647 12.9736 125.942 13.4489C125.237 13.9243 124.708 14.486 124.356 15.2206C124.003 15.9552 123.783 16.7331 123.783 17.5973V18.9369C123.783 20.1036 124.003 21.0543 124.4 21.8753C124.796 22.6531 125.369 23.2581 126.119 23.6902C126.868 24.1223 127.705 24.2952 128.675 24.2952C129.291 24.2952 129.864 24.2088 130.393 24.0359C130.922 23.8631 131.363 23.6038 131.715 23.2581C132.068 22.9124 132.376 22.4803 132.553 21.9185L134.844 22.5667C134.58 23.3445 134.183 23.9927 133.61 24.5977C133.037 25.1594 132.332 25.6348 131.495 25.9372C130.658 26.2397 129.688 26.4126 128.63 26.4126Z"
            fill="#1A1A1A"
        />
<path
            d="M138.105 26.1101V10.8562H140.396V13.1897H140.573C140.837 12.455 141.366 11.8069 142.115 11.3747C142.864 10.8994 143.701 10.6833 144.627 10.6833C144.803 10.6833 145.024 10.6833 145.288 10.6833C145.552 10.6833 145.729 10.6833 145.905 10.7266V13.1032C145.817 13.1032 145.64 13.06 145.376 13.0168C145.112 12.9736 144.803 12.9736 144.451 12.9736C143.701 12.9736 143.04 13.1464 142.423 13.4489C141.851 13.7514 141.366 14.1835 141.013 14.7021C140.661 15.2206 140.484 15.8688 140.484 16.5602V26.1965H138.105V26.1101Z"
            fill="#1A1A1A"
        />
<path
            d="M148.065 10.8561H150.444V27.1903C150.444 28.141 150.268 28.962 149.96 29.6102C149.651 30.3016 149.122 30.8201 148.505 31.209C147.844 31.5979 147.007 31.7708 146.037 31.7708C145.949 31.7708 145.861 31.7708 145.817 31.7708C145.729 31.7708 145.641 31.7708 145.553 31.7708V29.6102C145.641 29.6102 145.729 29.6102 145.773 29.6102C145.817 29.6102 145.905 29.6102 145.993 29.6102C146.743 29.6102 147.271 29.3941 147.58 28.962C147.888 28.5299 148.065 27.9681 148.065 27.1903V10.8561ZM149.21 8.3498C148.726 8.3498 148.329 8.17695 148.021 7.87447C147.668 7.57198 147.536 7.18307 147.536 6.75095C147.536 6.31883 147.712 5.92992 148.021 5.62743C148.373 5.32495 148.77 5.1521 149.21 5.1521C149.651 5.1521 150.092 5.32495 150.4 5.62743C150.753 5.92992 150.885 6.31883 150.885 6.75095C150.885 7.18307 150.709 7.57198 150.4 7.87447C150.092 8.17695 149.695 8.3498 149.21 8.3498Z"
            fill="#1A1A1A"
        />
<path
            d="M158.729 26.4558C157.76 26.4558 156.834 26.2829 156.041 25.894C155.248 25.5483 154.587 24.9866 154.146 24.2952C153.661 23.6038 153.441 22.7395 153.441 21.7457C153.441 20.8814 153.617 20.1468 153.97 19.6283C154.322 19.0665 154.807 18.6776 155.38 18.3319C155.953 18.0294 156.614 17.7701 157.319 17.6405C158.024 17.5109 158.729 17.3812 159.478 17.2516C160.404 17.122 161.197 17.0355 161.77 16.9923C162.343 16.9491 162.783 16.8195 163.048 16.6898C163.312 16.517 163.444 16.2577 163.444 15.912V15.8256C163.444 14.8317 163.18 14.0971 162.651 13.5354C162.122 12.9736 161.285 12.7143 160.183 12.7143C159.038 12.7143 158.156 12.9736 157.495 13.4489C156.834 13.9243 156.393 14.4428 156.129 15.0046L153.881 14.2267C154.278 13.3193 154.807 12.5847 155.512 12.0661C156.173 11.5476 156.922 11.2019 157.715 10.9858C158.509 10.7698 159.302 10.6833 160.095 10.6833C160.58 10.6833 161.153 10.7266 161.814 10.8562C162.475 10.9858 163.092 11.2019 163.709 11.5476C164.326 11.8933 164.81 12.455 165.251 13.1464C165.648 13.881 165.868 14.8317 165.868 16.0417V26.0669H163.488V23.9927H163.356C163.18 24.3384 162.916 24.6841 162.563 25.073C162.21 25.4619 161.682 25.7644 161.065 26.0237C160.448 26.2829 159.654 26.4558 158.729 26.4558ZM159.082 24.3384C160.007 24.3384 160.8 24.1655 161.461 23.7766C162.122 23.3877 162.607 22.9556 162.916 22.3506C163.268 21.7889 163.4 21.1839 163.4 20.5357V18.3751C163.312 18.5047 163.092 18.5912 162.739 18.6776C162.387 18.764 161.99 18.8504 161.549 18.9369C161.109 19.0233 160.668 19.0665 160.271 19.1097C159.875 19.1529 159.522 19.1961 159.258 19.2394C158.641 19.3258 158.068 19.4554 157.539 19.6283C157.01 19.8011 156.57 20.0604 156.261 20.4061C155.953 20.7518 155.776 21.2271 155.776 21.8321C155.776 22.6531 156.085 23.2581 156.702 23.6902C157.319 24.1223 158.156 24.3384 159.082 24.3384Z"
            fill="#1A1A1A"
        />
</g>
<defs>
<clipPath id="clip0_851_47120">
<rect width="166" height="40" fill="white" />
</clipPath>
</defs>
</svg>
