<svg
    width="149"
    height="28"
    viewBox="0 0 149 28"
    fill="none"
    xmlns="http://www.w3.org/2000/svg"
>
<g clip-path="url(#clip0_1514_70277)">
<path
            d="M14.0103 17.5245C15.9581 17.5245 17.5371 15.9466 17.5371 14.0003C17.5371 12.0539 15.9581 10.4761 14.0103 10.4761C12.0624 10.4761 10.4834 12.0539 10.4834 14.0003C10.4834 15.9466 12.0624 17.5245 14.0103 17.5245Z"
            fill="white"
        />
<path
            d="M23.3161 3.83839C23.3162 4.34223 23.2166 4.84112 23.0231 5.30636C22.8295 5.7716 22.5458 6.19402 22.1883 6.54931L20.8318 7.90478C20.4437 8.29287 19.9583 8.56954 19.4265 8.70581C18.8946 8.84208 18.3359 8.83293 17.8088 8.67933C16.96 8.43147 15.8903 8.13327 14.8439 7.80021C13.6014 7.41679 12.2577 7.53784 11.1039 8.13714C11.0136 8.18716 10.9094 8.20629 10.8073 8.1916C10.7051 8.17692 10.6105 8.12923 10.538 8.05581L10.5187 8.03645C10.4745 7.99254 10.4394 7.94035 10.4155 7.88286C10.3916 7.82537 10.3793 7.76372 10.3793 7.70146C10.3793 7.6392 10.3916 7.57755 10.4155 7.52006C10.4394 7.46257 10.4745 7.41037 10.5187 7.36646L12.4294 5.45332L15.9175 1.96785L16.7314 1.16231C17.2647 0.616569 17.9487 0.242023 18.6961 0.0864868C19.4434 -0.0690489 20.2202 0.00148281 20.9273 0.289078C21.6343 0.576673 22.2396 1.06828 22.6657 1.70116C23.0919 2.33403 23.3197 3.07945 23.32 3.84226L23.3161 3.83839Z"
            fill="white"
        />
<path
            d="M24.1843 23.2985C23.68 23.2995 23.1804 23.2004 22.7147 23.0069C22.249 22.8134 21.8264 22.5295 21.4713 22.1716L19.9211 20.6225C19.5918 20.2923 19.3573 19.8799 19.2421 19.4282C19.1269 18.9765 19.1352 18.5022 19.2661 18.0548C19.5258 17.1718 19.8707 15.9984 20.2234 14.8327C20.6042 13.5904 20.4817 12.2484 19.8823 11.0955C19.8341 11.0048 19.816 10.9012 19.8307 10.7995C19.8453 10.6979 19.8919 10.6035 19.9637 10.5301V10.5107C20.008 10.4665 20.0605 10.4313 20.1184 10.4074C20.1763 10.3834 20.2383 10.3711 20.3009 10.3711C20.3635 10.3711 20.4255 10.3834 20.4834 10.4074C20.5412 10.4313 20.5938 10.4665 20.6381 10.5107L22.5488 12.42L26.0369 15.9055L26.8508 16.7187C27.3969 17.2517 27.7718 17.9352 27.9274 18.682C28.0831 19.4288 28.0125 20.205 27.7247 20.9115C27.4369 21.618 26.9449 22.2228 26.3115 22.6487C25.6782 23.0745 24.9322 23.3021 24.1688 23.3024L24.1843 23.2985Z"
            fill="white"
        />
<path
            d="M4.7088 24.1676C4.7082 23.6641 4.80719 23.1653 5.00007 22.7001C5.19295 22.2349 5.47593 21.8123 5.83274 21.4567L7.10784 20.1826C7.522 19.7703 8.03951 19.4768 8.60614 19.3331C9.17278 19.1893 9.76768 19.2005 10.3285 19.3654C11.1579 19.6094 12.1733 19.9076 13.181 20.2135C14.4242 20.5937 15.7671 20.4713 16.921 19.8727C17.0112 19.8249 17.1143 19.807 17.2153 19.8216C17.3164 19.8362 17.4101 19.8826 17.483 19.9541C17.5273 19.9983 17.5624 20.0508 17.5864 20.1086C17.6104 20.1665 17.6227 20.2284 17.6227 20.291C17.6227 20.3536 17.6104 20.4155 17.5864 20.4734C17.5624 20.5312 17.5273 20.5837 17.483 20.6279L15.5723 22.5372L12.0842 26.0227L11.2742 26.8359C10.9388 27.1758 10.545 27.4526 10.1115 27.6531C9.52727 27.9176 8.88606 28.0317 8.24638 27.985C7.6067 27.9383 6.98891 27.7322 6.44938 27.3857C5.90986 27.0391 5.46579 26.563 5.15769 26.0009C4.84959 25.4388 4.68727 24.8085 4.68555 24.1676H4.7088Z"
            fill="white"
        />
<path
            d="M3.84083 4.70553C4.85842 4.70561 5.8343 5.1096 6.5538 5.82863L8.28235 7.55975C8.55787 7.83459 8.75434 8.17843 8.85117 8.55522C8.948 8.93202 8.94161 9.3279 8.83269 9.70138C8.56915 10.6076 8.18933 11.8934 7.80564 13.1869C7.42541 14.4233 7.54506 15.7593 8.13895 16.9086C8.1887 16.9982 8.20768 17.1016 8.19298 17.2031C8.17828 17.3045 8.13071 17.3983 8.05756 17.4701H8.03818C7.99424 17.5143 7.942 17.5493 7.88447 17.5732C7.82694 17.5971 7.76524 17.6094 7.70294 17.6094C7.64063 17.6094 7.57893 17.5971 7.5214 17.5732C7.46387 17.5493 7.41163 17.5143 7.36769 17.4701L5.45311 15.5609L1.96501 12.0754L1.16275 11.2853C0.820163 10.9515 0.541687 10.5577 0.341107 10.1235C0.0774547 9.53966 -0.0359188 8.8992 0.0113004 8.2604C0.0585197 7.6216 0.264833 7.00474 0.61147 6.46593C0.958108 5.92712 1.43407 5.48347 1.99605 5.17534C2.55803 4.86721 3.18819 4.70438 3.82921 4.70166L3.84083 4.70553Z"
            fill="white"
        />
<path
            d="M76.9011 9.44636C76.4677 8.66159 75.8126 8.02178 75.0175 7.6068C74.096 7.14193 73.0729 6.9143 72.041 6.94456H68.1266C67.7154 6.94456 67.3211 7.10777 67.0304 7.39828C66.7396 7.6888 66.5763 8.08282 66.5763 8.49366V20.6657C66.5763 21.0995 66.7485 21.5156 67.0551 21.8227C67.3617 22.1298 67.7777 22.3029 68.2118 22.3039C68.6384 22.3039 69.0475 22.1346 69.3491 21.8332C69.6508 21.5318 69.8202 21.123 69.8202 20.6967V18.2027C69.8202 17.9654 69.9146 17.7378 70.0824 17.5701C70.2503 17.4023 70.4781 17.308 70.7155 17.308H71.948C72.9934 17.3384 74.0307 17.1152 74.971 16.6574C75.7728 16.2494 76.4372 15.6152 76.8817 14.8334C77.3342 14.0026 77.5613 13.068 77.5406 12.1224C77.5571 11.1907 77.3371 10.2701 76.9011 9.44636ZM73.8974 13.4895C73.6934 13.8786 73.3739 14.1951 72.9828 14.3957C72.5002 14.6286 71.968 14.7402 71.4325 14.721H70.4636C70.3803 14.7216 70.2977 14.7056 70.2206 14.6741C70.1435 14.6426 70.0734 14.5962 70.0144 14.5375C69.9553 14.4789 69.9084 14.4091 69.8764 14.3323C69.8444 14.2554 69.828 14.173 69.828 14.0898V10.0389C69.828 9.9218 69.8745 9.8095 69.9574 9.72671C70.0402 9.64391 70.1526 9.5974 70.2698 9.5974H71.4325C71.9674 9.58052 72.4987 9.69068 72.9828 9.91884C73.3748 10.1122 73.6961 10.4238 73.9013 10.8096C74.1103 11.2248 74.2141 11.6849 74.2036 12.1495C74.2112 12.6143 74.1062 13.0741 73.8974 13.4895Z"
            fill="white"
        />
<path
            d="M44.6203 17.4276C44.6203 20.6575 42.9848 22.2686 38.8572 22.2686C36.7721 22.2686 35.6404 21.9549 34.6521 21.3275C34.0846 20.968 33.6357 20.4494 33.3615 19.8365C33.2603 19.5996 33.2198 19.3413 33.2437 19.085C33.2676 18.8286 33.355 18.5822 33.4981 18.368C33.6412 18.1539 33.8355 17.9788 34.0634 17.8585C34.2913 17.7383 34.5455 17.6767 34.8032 17.6794H35.0513C35.3348 17.6884 35.611 17.7711 35.8529 17.9191C36.0948 18.0671 36.294 18.2754 36.431 18.5236C36.7372 19.0387 37.4232 19.2982 38.7564 19.2982C39.3631 19.3482 39.9724 19.2388 40.5237 18.9806C40.779 18.8725 40.9942 18.6876 41.1393 18.4516C41.2845 18.2156 41.3525 17.9403 41.3337 17.6639C41.3337 16.928 41.0624 16.4711 40.5237 16.2968C40.295 16.2 39.9656 16.1186 38.6789 16.045C36.6325 15.9134 35.652 15.6578 34.9272 15.3092C33.6793 14.6741 33.0553 13.4439 33.0553 11.6185C33.0553 9.86801 33.5811 8.63518 34.6327 7.92002C35.5745 7.27714 36.6674 6.97119 38.7138 6.97119C40.7601 6.97119 41.8802 7.29263 42.8685 7.93551C43.4236 8.29193 43.8648 8.79998 44.1397 9.39941C44.2416 9.63612 44.2827 9.89448 44.2595 10.1511C44.2362 10.4077 44.1493 10.6545 44.0065 10.869C43.8637 11.0836 43.6697 11.2592 43.4418 11.3799C43.214 11.5006 42.9597 11.5627 42.7018 11.5604H42.5623C42.2778 11.5664 41.9971 11.4941 41.751 11.3513C41.5049 11.2086 41.3029 11.0009 41.1671 10.751C40.8764 10.1585 40.1516 9.86414 38.6711 9.86414C37.5666 9.86414 37.21 10.0074 36.8031 10.2901C36.6359 10.4259 36.5052 10.601 36.4227 10.7997C36.3401 10.9985 36.3084 11.2146 36.3302 11.4287C36.2996 11.7001 36.3634 11.9738 36.5109 12.2037C36.6584 12.4336 36.8807 12.6058 37.1403 12.6912C37.6964 12.8608 38.2758 12.9419 38.8572 12.9314C40.9965 13.0398 41.9926 13.2683 42.6941 13.6091C43.9808 14.221 44.6229 15.4938 44.6203 17.4276Z"
            fill="white"
        />
<path
            d="M48.0116 22.2023C47.7924 22.2028 47.5753 22.1601 47.3727 22.0766C47.17 21.9932 46.9858 21.8706 46.8307 21.7159C46.6755 21.5612 46.5524 21.3775 46.4684 21.1752C46.3844 20.9729 46.3412 20.756 46.3412 20.537V8.63989C46.3422 8.19788 46.5187 7.77431 46.8318 7.46212C47.145 7.14993 47.5692 6.97461 48.0116 6.97461C48.4536 6.97461 48.8775 7.15006 49.19 7.46236C49.5026 7.77466 49.6781 8.19823 49.6781 8.63989V20.5254C49.6802 20.7452 49.6386 20.9632 49.5557 21.1668C49.4728 21.3704 49.3503 21.5556 49.1953 21.7116C49.0403 21.8675 48.8559 21.9912 48.6527 22.0755C48.4495 22.1597 48.2316 22.2028 48.0116 22.2023Z"
            fill="white"
        />
<path
            d="M63.8783 17.6716L60.4212 8.54355C60.2459 8.07984 59.9329 7.68075 59.5242 7.39973C59.1155 7.11872 58.6307 6.9692 58.1346 6.97121C57.6433 6.9703 57.1633 7.11772 56.7573 7.39415C56.3513 7.67058 56.0384 8.06311 55.8596 8.52031L54.3519 12.4821L53.1892 15.5222L51.5072 19.9875C51.4131 20.2348 51.3805 20.5012 51.4121 20.7639C51.4438 21.0266 51.5388 21.2776 51.689 21.4955C51.8392 21.7134 52.0401 21.8916 52.2744 22.0148C52.5087 22.138 52.7694 22.2025 53.0342 22.2027C53.3736 22.204 53.7049 22.1 53.9826 21.9051C54.2603 21.7101 54.4706 21.4339 54.5845 21.1145L55.2588 19.2091C55.3078 19.0706 55.3987 18.9508 55.5188 18.8662C55.6389 18.7815 55.7824 18.7363 55.9293 18.7366H60.3243C60.4708 18.7365 60.6137 18.7819 60.7331 18.8666C60.8526 18.9512 60.9427 19.0709 60.991 19.2091L61.2157 19.8326L61.6653 21.1068C61.7784 21.4273 61.9883 21.7049 62.266 21.9012C62.5437 22.0975 62.8754 22.2029 63.2156 22.2027C63.4828 22.2042 63.7463 22.1407 63.9835 22.0177C64.2206 21.8947 64.4243 21.716 64.5769 21.4968C64.7295 21.2776 64.8264 21.0246 64.8593 20.7597C64.8922 20.4947 64.8602 20.2257 64.7659 19.9759L63.8783 17.6716ZM57.0184 15.8359C56.9519 15.8413 56.8851 15.8294 56.8245 15.8014C56.7639 15.7734 56.7115 15.7302 56.6726 15.6761C56.6336 15.6219 56.6092 15.5586 56.6019 15.4923C56.5946 15.426 56.6046 15.359 56.6308 15.2976L57.0184 14.1629L57.8207 11.8857C57.8404 11.8274 57.8779 11.7767 57.928 11.7408C57.978 11.7049 58.0381 11.6856 58.0997 11.6856C58.1613 11.6856 58.2214 11.7049 58.2714 11.7408C58.3215 11.7767 58.359 11.8274 58.3788 11.8857L59.5763 15.2976C59.6026 15.359 59.6125 15.426 59.6052 15.4923C59.5979 15.5586 59.5736 15.6219 59.5346 15.6761C59.4956 15.7302 59.4433 15.7734 59.3827 15.8014C59.3221 15.8294 59.2553 15.8413 59.1888 15.8359H57.0184Z"
            fill="white"
        />
<path
            d="M80.1954 22.2031V6.84375H81.9666V22.2031H80.1954ZM81.8465 18.005L81.8155 15.813H82.1643L87.2026 10.6816H89.3924L84.0168 16.1035H83.8696L81.8465 18.005ZM87.5204 22.2031L83.0169 16.5024L84.2765 15.2709L89.7722 22.2031H87.5204Z"
            fill="white"
        />
<path
            d="M95.5817 22.4631C94.5705 22.4804 93.575 22.2119 92.7099 21.6885C91.9049 21.1931 91.2613 20.4746 90.8573 19.6205C90.4053 18.6513 90.1825 17.5913 90.2062 16.5223C90.1841 15.4447 90.4068 14.3762 90.8573 13.397C91.2544 12.5368 91.8839 11.8045 92.675 11.2825C93.483 10.7625 94.4269 10.493 95.3879 10.5079C95.9936 10.5087 96.5949 10.6108 97.1669 10.81C97.7623 11.0167 98.3067 11.3481 98.7636 11.782C99.2814 12.277 99.6791 12.8837 99.9263 13.5558C100.232 14.426 100.376 15.3447 100.353 16.2667V17.0412H91.4658V15.4921H98.5505C98.5613 14.89 98.4285 14.2939 98.1629 13.7533C97.9185 13.2565 97.54 12.838 97.07 12.545C96.5663 12.2426 95.987 12.0895 95.3996 12.1035C94.7506 12.0867 94.1122 12.2692 93.5702 12.6263C93.0642 12.9652 92.6564 13.4314 92.3882 13.9779C92.1139 14.5329 91.9733 15.1443 91.9774 15.7632V16.7856C91.9548 17.5467 92.11 18.3025 92.4308 18.9931C92.7051 19.5662 93.1452 20.0438 93.6943 20.3641C94.2689 20.6858 94.9193 20.8476 95.5778 20.8327C96.0084 20.8381 96.4368 20.7714 96.8452 20.6352C97.2109 20.5091 97.5443 20.3042 97.8218 20.0349C98.1062 19.7531 98.3246 19.4118 98.4613 19.0357L100.174 19.5159C99.9957 20.0893 99.6836 20.6123 99.2636 21.0418C98.8216 21.498 98.2843 21.851 97.6901 22.0758C97.0178 22.336 96.3026 22.4674 95.5817 22.4631Z"
            fill="white"
        />
<path
            d="M102.593 22.2038V10.6824H104.306V12.4251H104.426C104.64 11.8475 105.041 11.3581 105.565 11.0348C106.121 10.6798 106.769 10.4954 107.429 10.5042C107.557 10.5042 107.72 10.5042 107.914 10.5042C108.108 10.5042 108.259 10.5042 108.36 10.5236V12.3244C108.298 12.3244 108.162 12.2857 107.949 12.2547C107.727 12.2199 107.503 12.203 107.278 12.2043C106.757 12.1948 106.242 12.3145 105.778 12.5529C105.353 12.7741 104.996 13.1059 104.744 13.5133C104.485 13.9322 104.351 14.4156 104.356 14.9075V22.2038H102.593Z"
            fill="white"
        />
<path
            d="M109.995 10.6816H111.766V23.0434C111.782 23.6772 111.658 24.3067 111.402 24.8869C111.172 25.3946 110.789 25.8173 110.305 26.0952C109.741 26.4005 109.105 26.5489 108.464 26.525H108.104V24.8752H108.433C108.654 24.8947 108.877 24.8618 109.083 24.779C109.289 24.6962 109.473 24.566 109.619 24.3989C109.898 24.0039 110.035 23.526 110.007 23.0434L109.995 10.6816ZM110.867 8.74523C110.703 8.7481 110.539 8.71844 110.386 8.65796C110.233 8.59748 110.094 8.50736 109.976 8.39281C109.86 8.28418 109.768 8.15306 109.705 8.00753C109.642 7.86201 109.61 7.70515 109.61 7.54661C109.61 7.38808 109.642 7.23122 109.705 7.08569C109.768 6.94016 109.86 6.80905 109.976 6.70042C110.217 6.47413 110.535 6.34814 110.865 6.34814C111.196 6.34814 111.514 6.47413 111.755 6.70042C111.87 6.80905 111.962 6.94016 112.025 7.08569C112.088 7.23122 112.121 7.38808 112.121 7.54661C112.121 7.70515 112.088 7.86201 112.025 8.00753C111.962 8.15306 111.87 8.28418 111.755 8.39281C111.639 8.51022 111.501 8.60326 111.348 8.66645C111.196 8.72963 111.032 8.76169 110.867 8.76072V8.74523Z"
            fill="white"
        />
<path
            d="M117.937 22.4632C117.253 22.4816 116.575 22.3494 115.948 22.0759C115.37 21.8167 114.878 21.3974 114.53 20.8676C114.166 20.2974 113.982 19.6307 114.003 18.9545C113.977 18.3917 114.112 17.8332 114.39 17.3434C114.648 16.9348 115.007 16.5998 115.433 16.3714C115.889 16.131 116.375 15.9538 116.879 15.8447C117.406 15.7285 117.937 15.6317 118.475 15.562C119.173 15.4729 119.743 15.4032 120.181 15.3567C120.514 15.3387 120.84 15.2558 121.142 15.1127C121.244 15.0514 121.327 14.9626 121.381 14.8565C121.435 14.7503 121.458 14.6311 121.448 14.5124V14.4543C121.467 14.1407 121.424 13.8264 121.32 13.5299C121.216 13.2333 121.054 12.9604 120.843 12.7271C120.596 12.5066 120.306 12.3383 119.992 12.2325C119.677 12.1267 119.345 12.0855 119.014 12.1113C118.316 12.0693 117.624 12.2585 117.045 12.6496C116.616 12.9572 116.268 13.3637 116.03 13.8347L114.332 13.2344C114.589 12.5954 115.004 12.0319 115.538 11.5963C116.025 11.21 116.587 10.9279 117.189 10.7675C117.767 10.6142 118.362 10.5348 118.96 10.5312C119.389 10.5386 119.817 10.5827 120.239 10.6629C120.735 10.757 121.21 10.9394 121.642 11.2012C122.121 11.4999 122.511 11.9228 122.77 12.425C123.102 13.1048 123.258 13.8573 123.223 14.6131V22.2037H121.452V20.6546H121.359C121.204 20.9543 121.001 21.2265 120.758 21.4602C120.437 21.772 120.058 22.018 119.642 22.1844C119.098 22.3919 118.518 22.4868 117.937 22.4632ZM118.208 20.8715C118.825 20.8918 119.437 20.7503 119.983 20.461C120.438 20.2114 120.817 19.8434 121.08 19.396C121.328 18.9799 121.462 18.5056 121.467 18.0212V16.414C121.327 16.5366 121.158 16.6207 120.975 16.6579C120.689 16.7385 120.397 16.8006 120.103 16.8438C119.774 16.8981 119.456 16.9407 119.15 16.9794L118.402 17.0723C117.965 17.1295 117.534 17.2267 117.115 17.3628C116.749 17.4755 116.419 17.6794 116.154 17.9553C115.9 18.2519 115.77 18.6345 115.789 19.0242C115.772 19.2961 115.826 19.5678 115.948 19.8119C116.069 20.056 116.252 20.2639 116.479 20.4145C116.995 20.742 117.597 20.9055 118.208 20.8831V20.8715Z"
            fill="white"
        />
<path
            d="M130.676 7.3667H129.808C129.018 7.3667 128.377 8.0065 128.377 8.79574V21.084C128.377 21.8732 129.018 22.513 129.808 22.513H130.676C131.466 22.513 132.106 21.8732 132.106 21.084V8.79574C132.106 8.0065 131.466 7.3667 130.676 7.3667Z"
            fill="white"
        />
<path
            d="M130.676 7.55964C130.838 7.55964 130.999 7.59159 131.149 7.65368C131.299 7.71576 131.435 7.80676 131.55 7.92148C131.665 8.0362 131.756 8.17239 131.818 8.32228C131.88 8.47216 131.912 8.63281 131.912 8.79505V21.0833C131.912 21.4109 131.782 21.7252 131.55 21.9569C131.318 22.1885 131.004 22.3187 130.676 22.3187H129.808C129.48 22.3187 129.165 22.1885 128.934 21.9569C128.702 21.7252 128.571 21.4109 128.571 21.0833V8.79505C128.571 8.63281 128.603 8.47216 128.666 8.32228C128.728 8.17239 128.819 8.0362 128.934 7.92148C129.048 7.80676 129.185 7.71576 129.335 7.65368C129.485 7.59159 129.645 7.55964 129.808 7.55964H130.676ZM130.676 7.17236H129.808C129.377 7.17339 128.965 7.34467 128.661 7.64877C128.356 7.95286 128.185 8.365 128.184 8.79505V21.0833C128.185 21.5133 128.356 21.9255 128.661 22.2296C128.965 22.5337 129.377 22.705 129.808 22.706H130.676C131.106 22.705 131.519 22.5337 131.823 22.2296C132.127 21.9255 132.299 21.5133 132.3 21.0833V8.79505C132.299 8.365 132.127 7.95286 131.823 7.64877C131.519 7.34467 131.106 7.17339 130.676 7.17236Z"
            fill="white"
        />
<path
            d="M137.811 22.5125C137.214 22.5125 136.64 22.2755 136.218 21.8537C135.795 21.4318 135.557 20.8595 135.556 20.2624V9.62009C135.555 9.32359 135.613 9.02989 135.726 8.75576C135.839 8.48164 136.005 8.23245 136.215 8.02243C136.424 7.81242 136.673 7.64568 136.947 7.53175C137.221 7.41781 137.514 7.35891 137.811 7.3584H141.361C145.814 7.3584 148.826 10.4101 148.826 14.9412C148.826 19.4724 145.834 22.5125 141.381 22.5125H137.811ZM139.912 11.0027C139.748 11.0036 139.59 11.0684 139.473 11.1834C139.356 11.2983 139.288 11.4544 139.284 11.6184V18.2486C139.284 18.4153 139.35 18.5753 139.468 18.6936C139.585 18.8119 139.745 18.8788 139.912 18.8798H141.357C142.364 18.8763 143.332 18.4947 144.07 17.811C144.423 17.4253 144.695 16.9723 144.868 16.4791C145.041 15.9859 145.113 15.4628 145.078 14.9412C145.055 11.1111 141.741 11.0027 141.361 11.0027H139.912Z"
            fill="white"
        />
<path
            d="M141.361 7.55964C145.678 7.55964 148.612 10.5571 148.612 14.9411C148.612 19.3251 145.678 22.3187 141.361 22.3187H137.811C137.265 22.3187 136.741 22.1022 136.354 21.7166C135.968 21.3311 135.75 20.808 135.749 20.2623V9.61994C135.749 9.07352 135.966 8.54947 136.353 8.16309C136.74 7.77671 137.264 7.55964 137.811 7.55964H141.361ZM139.911 19.0733H141.357C142.38 19.0733 145.291 18.5505 145.268 14.9411C145.244 11.3317 142.38 10.8089 141.357 10.8089H139.911C139.696 10.8099 139.489 10.8951 139.336 11.0463C139.182 11.1976 139.094 11.4029 139.09 11.6183V18.2484C139.09 18.4665 139.176 18.6758 139.33 18.8304C139.484 18.9849 139.693 19.0723 139.911 19.0733ZM141.357 7.17236H137.807C137.158 7.17339 136.535 7.43159 136.076 7.89037C135.617 8.34916 135.359 8.97112 135.358 9.61994V20.2623C135.359 20.9107 135.617 21.5323 136.076 21.9905C136.536 22.4486 137.158 22.706 137.807 22.706H141.357C145.857 22.706 148.996 19.5148 148.996 14.9411C148.996 10.3674 145.857 7.17236 141.357 7.17236ZM139.911 18.6861C139.796 18.685 139.685 18.6386 139.603 18.5568C139.521 18.4749 139.475 18.3642 139.473 18.2484V11.6183C139.478 11.5049 139.525 11.3976 139.607 11.3188C139.689 11.2401 139.798 11.1961 139.911 11.1962H141.357C141.718 11.1962 144.845 11.3007 144.88 14.945C144.911 15.4376 144.843 15.9315 144.679 16.3972C144.515 16.8629 144.259 17.2909 143.927 17.6559C143.226 18.3014 142.31 18.662 141.357 18.6667L139.911 18.6861Z"
            fill="white"
        />
</g>
<defs>
<clipPath id="clip0_1514_70277">
<rect width="149" height="28" fill="white" />
</clipPath>
</defs>
</svg>
