<svg
    width="341"
    height="351"
    viewBox="0 0 341 351"
    fill="none"
    xmlns="http://www.w3.org/2000/svg"
>
<path
        d="M334.817 329.796C363.101 301.512 363.101 255.758 334.817 228.306L201.716 94.3725C186.742 79.3986 186.742 55.2739 201.716 40.3L336.481 -95.2971C364.765 -123.581 364.765 -169.335 336.481 -196.787C308.197 -225.071 262.443 -225.071 234.991 -196.787L21.1971 17.0073C7.88693 30.3174 0.399994 47.787 0.399994 67.7522C0.399994 87.7174 8.71884 105.187 21.1971 118.497L233.328 329.796C261.612 357.248 307.365 357.248 334.817 329.796Z"
        fill="white"
    />
<path
        d="M380.571 145.118C336.924 145.118 301.542 109.735 301.542 66.0886C301.542 22.4421 336.924 -12.9404 380.571 -12.9404C424.217 -12.9404 459.6 22.4421 459.6 66.0886C459.6 109.735 424.217 145.118 380.571 145.118Z"
        fill="white"
    />
</svg>
