<svg width="98" height="24" viewBox="0 0 98 24" fill="none" xmlns="http://www.w3.org/2000/svg">
    <g clip-path="url(#clip0_465_40732)">
        <path d="M4.7745 20.9761C3.69227 19.8939 3.69227 18.1432 4.7745 17.0929L9.86734 11.9682C10.4403 11.3952 10.4403 10.4722 9.86734 9.89922L4.71084 4.71089C3.62861 3.62866 3.62861 1.878 4.71084 0.827601C5.79307 -0.254627 7.54373 -0.254627 8.59413 0.827601L16.7745 9.00797C17.2838 9.51726 17.5703 10.1857 17.5703 10.9496C17.5703 11.7135 17.252 12.382 16.7745 12.8913L8.65779 20.9761C7.57556 22.0265 5.8249 22.0265 4.7745 20.9761Z" fill="white"/>
        <path d="M32.7215 7.83026C32.6578 7.25731 32.435 6.81169 31.9894 6.49339C31.5437 6.17508 30.9708 6.01593 30.2387 6.01593C29.7294 6.01593 29.3156 6.07959 28.9655 6.23874C28.6153 6.36606 28.3607 6.55705 28.1697 6.81169C28.0106 7.0345 27.9151 7.32097 27.9151 7.63927C27.9151 7.89392 27.9469 8.11673 28.0742 8.30771C28.2016 8.49869 28.3607 8.65784 28.5835 8.81699C28.8063 8.94431 29.0291 9.07163 29.3156 9.16713C29.6021 9.26262 29.8886 9.35811 30.2069 9.42177L31.5119 9.74007C32.1485 9.86739 32.7214 10.0584 33.2626 10.313C33.8037 10.5358 34.2493 10.8541 34.6313 11.1724C35.0132 11.5226 35.3315 11.9364 35.5225 12.382C35.7453 12.8594 35.8408 13.4005 35.8408 14.0053C35.8408 14.8966 35.618 15.6605 35.1724 16.2971C34.7268 16.9337 34.0902 17.443 33.2307 17.7931C32.4031 18.1433 31.3846 18.3342 30.2069 18.3342C29.0291 18.3342 28.0106 18.1433 27.1512 17.7931C26.2917 17.443 25.6233 16.9019 25.114 16.2016C24.6366 15.5013 24.3819 14.6101 24.3501 13.5915H27.3103C27.3421 14.069 27.4695 14.4828 27.7241 14.8011C27.9787 15.1194 28.297 15.374 28.7108 15.5332C29.1246 15.6923 29.6021 15.7878 30.1432 15.7878C30.6525 15.7878 31.1299 15.7242 31.5119 15.565C31.8939 15.4059 32.1803 15.2149 32.4031 14.9284C32.626 14.6419 32.7215 14.3555 32.7215 14.0053C32.7215 13.687 32.626 13.4005 32.435 13.1777C32.244 12.9549 31.9575 12.7639 31.6074 12.6048C31.2254 12.4456 30.7798 12.3183 30.2705 12.191L28.679 11.809C27.4695 11.5226 26.4827 11.0451 25.7825 10.4085C25.0822 9.7719 24.7321 8.91248 24.7321 7.86209C24.7321 6.97084 24.9549 6.20691 25.4323 5.57031C25.9098 4.9337 26.5464 4.39259 27.4058 4.04246C28.2334 3.66049 29.1883 3.50134 30.2387 3.50134C31.3209 3.50134 32.244 3.69232 33.0716 4.04246C33.8673 4.42442 34.5039 4.9337 34.9496 5.57031C35.3952 6.20691 35.618 7.00267 35.6498 7.86209H32.7215V7.83026Z" fill="white"/>
        <path d="M37.4324 18.1751V3.66046H40.4562V18.1751H37.4324ZM40.1379 15.0239V11.3952H40.5836L44.0849 7.25728H47.5544L42.8753 12.7321H42.1751L40.1379 15.0239ZM44.2122 18.1751L40.9974 13.4323L43.0027 11.2997L47.7454 18.1751H44.2122Z" fill="white"/>
        <path d="M50.1008 5.88859C49.6551 5.88859 49.2732 5.72944 48.9549 5.44297C48.6366 5.15649 48.4774 4.77453 48.4774 4.36074C48.4774 3.94694 48.6366 3.59681 48.9549 3.27851C49.2732 2.99204 49.6551 2.83289 50.1008 2.83289C50.5464 2.83289 50.9283 2.99204 51.2466 3.27851C51.565 3.56498 51.7241 3.94694 51.7241 4.36074C51.7241 4.77453 51.565 5.15649 51.2466 5.44297C50.9283 5.72944 50.5464 5.88859 50.1008 5.88859ZM48.5729 18.1751V7.28912H51.5968V18.1751H48.5729Z" fill="white"/>
        <path d="M56.5942 3.66046V18.1751H53.5703V3.66046H56.5942Z" fill="white"/>
        <path d="M61.5915 3.66046V18.1751H58.5676V3.66046H61.5915Z" fill="white"/>
        <path d="M66.3979 11.6181V18.1751H64.7109V3.66052H66.3979V8.97617H66.5253C66.7799 8.40323 67.1619 7.95761 67.6711 7.6393C68.1804 7.321 68.8807 7.13002 69.7083 7.13002C70.4404 7.13002 71.1088 7.28917 71.6499 7.57564C72.2229 7.86211 72.6367 8.30774 72.955 8.94434C73.2733 9.54912 73.4324 10.313 73.4324 11.268V18.1751H71.7454V11.3634C71.7454 10.504 71.5226 9.83559 71.077 9.35814C70.6314 8.88068 70.0266 8.65787 69.2308 8.65787C68.6897 8.65787 68.1804 8.78519 67.7666 9.008C67.321 9.23081 67.0027 9.58095 66.7481 10.0266C66.5253 10.4404 66.3979 10.9815 66.3979 11.6181Z" fill="white"/>
        <path d="M82.9497 13.7189V7.28918H84.6367V18.1751H82.9497V16.329H82.8224C82.5677 16.8701 82.1858 17.3475 81.6447 17.7295C81.1035 18.1115 80.4351 18.3024 79.6075 18.3024C78.9391 18.3024 78.3343 18.1433 77.7932 17.8568C77.2521 17.5703 76.8383 17.0929 76.5518 16.4881C76.2335 15.8833 76.1062 15.1194 76.1062 14.1963V7.28918H77.7932V14.1009C77.7932 14.8966 78.016 15.5332 78.4616 16.0107C78.9073 16.4881 79.4802 16.7109 80.1805 16.7109C80.5943 16.7109 81.0081 16.6154 81.4537 16.3926C81.8993 16.1698 82.2494 15.8515 82.5359 15.4059C82.7905 14.9603 82.9497 14.3873 82.9497 13.7189Z" fill="white"/>
        <path d="M87.4696 18.1751V3.66052H89.1566V9.008H89.2839C89.4113 8.81702 89.5704 8.56238 89.7932 8.27591C90.016 7.98944 90.3343 7.70296 90.7481 7.48015C91.1619 7.25734 91.7349 7.13002 92.4351 7.13002C93.3582 7.13002 94.154 7.35283 94.8542 7.83028C95.5545 8.30774 96.0956 8.94434 96.4776 9.77193C96.8595 10.5995 97.0505 11.6181 97.0505 12.7321C97.0505 13.878 96.8595 14.8966 96.4776 15.7242C96.0956 16.5518 95.5545 17.2202 94.8542 17.6658C94.154 18.1115 93.3582 18.3661 92.467 18.3661C91.7667 18.3661 91.1937 18.2388 90.78 18.016C90.3662 17.7931 90.0479 17.5067 89.825 17.2202C89.6022 16.9337 89.4113 16.6791 89.3158 16.4881H89.1248V18.1751H87.4696ZM89.0929 12.7321C89.0929 13.5597 89.2203 14.2918 89.4431 14.8966C89.6977 15.5332 90.0479 16.0107 90.4935 16.3608C90.9709 16.7109 91.5121 16.9019 92.1805 16.9019C92.8808 16.9019 93.4537 16.7109 93.9311 16.3608C94.4086 15.9788 94.7587 15.5014 94.9815 14.8648C95.2044 14.2282 95.3317 13.5279 95.3317 12.764C95.3317 12 95.2044 11.2998 94.9815 10.695C94.7587 10.0902 94.4086 9.58095 93.9311 9.23081C93.4537 8.88068 92.8807 8.6897 92.1487 8.6897C91.4802 8.6897 90.9073 8.84885 90.4298 9.19898C89.9524 9.54912 89.6022 10.0266 89.3794 10.6313C89.1566 11.2361 89.0929 11.9046 89.0929 12.7321Z" fill="white"/>
        <path d="M65.4112 24C65.1566 24 64.9338 23.9364 64.7746 23.8409C64.5836 23.7454 64.4563 23.5862 64.3608 23.3953C64.2653 23.2043 64.2017 22.9815 64.2017 22.7268C64.2017 22.4722 64.2653 22.2494 64.3608 22.0584C64.4563 21.8674 64.6155 21.7083 64.7746 21.6128C64.9656 21.5173 65.1566 21.4536 65.4112 21.4536C65.6659 21.4536 65.8887 21.5173 66.0478 21.6128C66.2388 21.7083 66.3661 21.8674 66.4616 22.0584C66.5571 22.2494 66.6208 22.4722 66.6208 22.7268C66.6208 22.9815 66.5571 23.2043 66.4616 23.3953C66.3661 23.5862 66.207 23.7454 66.0478 23.8409C65.8887 23.9364 65.6659 24 65.4112 24ZM65.4112 23.4589C65.5385 23.4589 65.634 23.4271 65.6977 23.3634C65.7613 23.2998 65.825 23.2043 65.8568 23.1088C65.8887 22.9815 65.9205 22.8541 65.9205 22.7268C65.9205 22.5995 65.8887 22.4403 65.8568 22.3449C65.825 22.2175 65.7613 22.1539 65.6977 22.0902C65.634 22.0266 65.5385 21.9947 65.4112 21.9947C65.2839 21.9947 65.1884 22.0266 65.1247 22.0902C65.0611 22.1539 64.9974 22.2494 64.9338 22.3449C64.9019 22.4722 64.8701 22.5995 64.8701 22.7268C64.8701 22.8541 64.9019 23.0133 64.9338 23.1088C64.9656 23.2361 65.0292 23.2998 65.1247 23.3634C65.2202 23.4271 65.3157 23.4589 65.4112 23.4589Z" fill="white"/>
        <path d="M67.7667 20.6578V23.9682H67.0664V20.6578H67.7667Z" fill="white"/>
        <path d="M69.4537 24C69.199 24 68.9762 23.9364 68.7852 23.8409C68.5942 23.7454 68.4669 23.5862 68.3714 23.3953C68.2759 23.2043 68.2123 22.9815 68.2123 22.7268C68.2123 22.4722 68.2759 22.2494 68.3714 22.0584C68.4669 21.8674 68.5942 21.7083 68.7852 21.6128C68.9762 21.5173 69.1672 21.4536 69.4218 21.4536C69.581 21.4536 69.7401 21.4854 69.8675 21.5173C69.9948 21.5809 70.1221 21.6446 70.2494 21.7401C70.3767 21.8356 70.4404 21.9629 70.5041 22.122C70.5677 22.2812 70.5995 22.4722 70.5995 22.6632V22.8541H68.4988V22.4403H69.9311C69.9311 22.3449 69.8993 22.2494 69.8675 22.1857C69.8356 22.122 69.772 22.0584 69.6765 21.9947C69.6128 21.9629 69.5173 21.9311 69.4218 21.9311C69.3263 21.9311 69.2308 21.9629 69.1354 21.9947C69.0717 22.0266 69.008 22.122 68.9444 22.1857C68.9125 22.2812 68.8807 22.3449 68.8807 22.4403V22.8541C68.8807 22.9815 68.9125 23.077 68.9444 23.1724C68.9762 23.2679 69.0399 23.3316 69.1354 23.3634C69.2308 23.4271 69.3263 23.4271 69.4218 23.4271C69.4855 23.4271 69.581 23.4271 69.6446 23.3953C69.7083 23.3634 69.772 23.3316 69.8038 23.2998C69.8356 23.2679 69.8675 23.2043 69.8993 23.1406L70.5359 23.1724C70.5041 23.3316 70.4404 23.4589 70.3449 23.5862C70.2494 23.7136 70.1221 23.7772 69.9629 23.8409C69.8038 23.9045 69.6446 24 69.4537 24Z" fill="white"/>
        <path d="M71.7136 22.5358V23.9682H71.0133V20.6578H71.6817V21.931H71.7136C71.7772 21.7719 71.8727 21.6764 71.9682 21.5809C72.0955 21.4854 72.2547 21.4536 72.4457 21.4536C72.6048 21.4536 72.764 21.4854 72.8913 21.5809C73.0186 21.6446 73.1141 21.7719 73.1778 21.8992C73.2414 22.0265 73.2733 22.2175 73.2733 22.4085V23.9682H72.573V22.504C72.573 22.3448 72.5412 22.2175 72.4457 22.1539C72.382 22.0584 72.2547 22.0265 72.1274 22.0265C72.0319 22.0265 71.9364 22.0584 71.8727 22.0902C71.8091 22.122 71.7454 22.1857 71.7136 22.2493C71.7454 22.3448 71.7136 22.4085 71.7136 22.5358Z" fill="white"/>
        <path d="M74.9285 23.9682V20.6578H75.6287V22.122H75.6606L76.8383 20.6578H77.6659L76.4563 22.122L77.6977 23.9363H76.8701L75.9789 22.5677L75.6287 22.9814V23.9045H74.9285V23.9682Z" fill="white"/>
        <path d="M78.9709 24C78.7162 24 78.4934 23.9364 78.3024 23.8409C78.1115 23.7454 77.9841 23.5862 77.8886 23.3953C77.7932 23.2043 77.7295 22.9815 77.7295 22.7268C77.7295 22.4722 77.7932 22.2494 77.8886 22.0584C77.9841 21.8674 78.1115 21.7083 78.3024 21.6128C78.4934 21.5173 78.6844 21.4536 78.939 21.4536C79.0982 21.4536 79.2573 21.4854 79.3847 21.5173C79.512 21.5809 79.6393 21.6446 79.7666 21.7401C79.8939 21.8356 79.9576 21.9629 80.0213 22.122C80.0849 22.2812 80.1167 22.4722 80.1167 22.6632V22.8541H78.016V22.4403H79.4483C79.4483 22.3449 79.4165 22.2494 79.3847 22.1857C79.3528 22.122 79.2892 22.0584 79.1937 21.9947C79.0982 21.9311 79.0345 21.9311 78.939 21.9311C78.8435 21.9311 78.7481 21.9629 78.6526 21.9947C78.5571 22.0266 78.5252 22.122 78.4616 22.1857C78.4298 22.2812 78.3979 22.3449 78.3979 22.4403V22.8541C78.3979 22.9815 78.4298 23.077 78.4616 23.1724C78.4934 23.2679 78.5571 23.3316 78.6526 23.3634C78.7481 23.4271 78.8435 23.4271 78.939 23.4271C79.0027 23.4271 79.0982 23.4271 79.1618 23.3953C79.2255 23.3634 79.2892 23.3316 79.321 23.2998C79.3528 23.2679 79.3847 23.2043 79.4165 23.1406L80.0531 23.1724C80.0213 23.3316 79.9576 23.4589 79.8621 23.5862C79.7666 23.7136 79.6393 23.7772 79.4801 23.8409C79.3528 23.9682 79.1937 24 78.9709 24Z" fill="white"/>
        <path d="M80.5624 23.9682V21.4854H81.2308V21.9311H81.2626C81.3263 21.7719 81.39 21.6764 81.5173 21.5809C81.6446 21.4854 81.7719 21.4536 81.9629 21.4536C82.1221 21.4536 82.2812 21.4854 82.4085 21.5809C82.5358 21.6764 82.5995 21.7719 82.6313 21.9311H82.6632C82.7268 21.8037 82.7905 21.6764 82.9496 21.5809C83.1088 21.4854 83.2361 21.4536 83.4271 21.4536C83.6499 21.4536 83.8409 21.5173 84 21.6764C84.1592 21.8356 84.2229 22.0266 84.2229 22.313V23.9682H83.5226V22.4403C83.5226 22.313 83.4908 22.1857 83.4271 22.122C83.3634 22.0584 83.2679 22.0266 83.1406 22.0266C83.0133 22.0266 82.9178 22.0584 82.8541 22.1539C82.7905 22.2175 82.7587 22.3449 82.7587 22.4722V23.9682H82.0902V22.4403C82.0902 22.313 82.0584 22.2175 81.9947 22.1539C81.9311 22.0902 81.8356 22.0584 81.7083 22.0584C81.6446 22.0584 81.5491 22.0902 81.5173 22.122C81.4536 22.1539 81.4218 22.2175 81.3581 22.2812C81.2945 22.3449 81.2945 22.4403 81.2945 22.5358V24.0319H80.5624V23.9682Z" fill="white"/>
        <path d="M85.3687 22.5358V23.9682H84.6685V21.4854H85.3369V21.9311H85.3687C85.4324 21.7719 85.5279 21.6764 85.6552 21.5809C85.7825 21.4854 85.9417 21.4536 86.1327 21.4536C86.2918 21.4536 86.451 21.4854 86.5783 21.5809C86.7056 21.6446 86.8011 21.7719 86.8647 21.8992C86.9284 22.0266 86.9602 22.2175 86.9602 22.4085V23.9682H86.26V22.504C86.26 22.3449 86.2281 22.2494 86.1327 22.1539C86.069 22.0584 85.9417 22.0266 85.8144 22.0266C85.7189 22.0266 85.6552 22.0584 85.5597 22.0902C85.496 22.122 85.4324 22.1857 85.4006 22.2494C85.3687 22.313 85.3687 22.4085 85.3687 22.5358Z" fill="white"/>
        <path d="M88.2335 24C88.0743 24 87.947 23.9682 87.8197 23.9045C87.6924 23.8408 87.5969 23.7772 87.5332 23.6499C87.4696 23.5544 87.4377 23.3952 87.4377 23.2361C87.4377 23.1088 87.4696 22.9814 87.5014 22.8859C87.5651 22.7905 87.6287 22.7268 87.6924 22.6631C87.756 22.5995 87.8834 22.5676 87.9789 22.5358C88.0743 22.504 88.2017 22.4721 88.329 22.4721C88.4881 22.4721 88.5836 22.4403 88.6791 22.4403C88.7746 22.4403 88.8383 22.4085 88.8701 22.3767C88.9019 22.3448 88.9338 22.313 88.9338 22.2493C88.9338 22.1538 88.9019 22.0584 88.8383 22.0265C88.7746 21.9629 88.6791 21.931 88.5518 21.931C88.4245 21.931 88.329 21.9629 88.2653 22.0265C88.2017 22.0902 88.138 22.1538 88.1062 22.2175L87.4696 22.1538C87.5014 21.9947 87.5651 21.8674 87.6605 21.7719C87.756 21.6764 87.8834 21.5809 88.0425 21.5172C88.2017 21.4536 88.3608 21.4218 88.5518 21.4218C88.6791 21.4218 88.8064 21.4536 88.9338 21.4854C89.0611 21.5172 89.1566 21.5809 89.2839 21.6446C89.3794 21.7082 89.4749 21.8037 89.5067 21.8992C89.5704 21.9947 89.6022 22.122 89.6022 22.2812V23.9363H88.9656V23.5862H88.9338C88.9019 23.6499 88.8383 23.7454 88.7746 23.7772C88.7109 23.809 88.6155 23.8727 88.52 23.9045C88.4563 24 88.329 24 88.2335 24ZM88.4245 23.5225C88.52 23.5225 88.6155 23.4907 88.6791 23.4589C88.7428 23.4271 88.8064 23.3634 88.8701 23.2997C88.9338 23.2361 88.9338 23.1406 88.9338 23.0769V22.8223C88.9019 22.8223 88.8701 22.8541 88.8383 22.8541C88.8064 22.8541 88.7746 22.8859 88.7109 22.8859C88.6791 22.8859 88.6155 22.9178 88.5836 22.9178C88.5518 22.9178 88.4881 22.9178 88.4563 22.9496C88.3608 22.9496 88.2972 22.9814 88.2335 23.0133C88.1698 23.0451 88.138 23.0769 88.1062 23.1088C88.0743 23.1406 88.0425 23.2042 88.0425 23.2679C88.0425 23.3634 88.0743 23.4271 88.138 23.4907C88.2335 23.4907 88.2971 23.5225 88.4245 23.5225Z" fill="white"/>
        <path d="M90.1433 23.9682V20.6578H90.8436V23.9682H90.1433ZM90.7799 23.2361V22.4085H90.8754L91.6712 21.4854H92.4669L91.4165 22.7268H91.2574L90.7799 23.2361ZM91.703 23.9682L90.9709 22.886L91.4165 22.4085L92.4988 23.9682H91.703Z" fill="white"/>
        <path d="M93.8038 24C93.5491 24 93.3263 23.9364 93.1353 23.8409C92.9443 23.7454 92.817 23.5862 92.7215 23.3953C92.626 23.2043 92.5624 22.9815 92.5624 22.7268C92.5624 22.4722 92.626 22.2494 92.7215 22.0584C92.817 21.8674 92.9443 21.7083 93.1353 21.6128C93.3263 21.5173 93.5173 21.4536 93.7719 21.4536C93.9311 21.4536 94.0902 21.4854 94.2175 21.5173C94.3449 21.5809 94.4722 21.6446 94.5995 21.7401C94.7268 21.8356 94.7905 21.9629 94.8541 22.122C94.9178 22.2812 94.9496 22.4722 94.9496 22.6632V22.8541H92.8489V22.4403H94.2812C94.2812 22.3449 94.2494 22.2494 94.2175 22.1857C94.1857 22.122 94.1221 22.0584 94.0266 21.9947C93.9629 21.9629 93.8674 21.9311 93.7719 21.9311C93.6764 21.9311 93.5809 21.9629 93.4855 21.9947C93.4218 22.0266 93.3581 22.122 93.2945 22.1857C93.2626 22.2812 93.2308 22.3449 93.2308 22.4403V22.8541C93.2308 22.9815 93.2626 23.077 93.2945 23.1724C93.3263 23.2679 93.39 23.3316 93.4855 23.3634C93.5809 23.4271 93.6764 23.4271 93.7719 23.4271C93.8356 23.4271 93.9311 23.4271 93.9947 23.3953C94.0584 23.3634 94.122 23.3316 94.1539 23.2998C94.1857 23.2679 94.2175 23.2043 94.2494 23.1406L94.886 23.1724C94.8541 23.3316 94.7905 23.4589 94.695 23.5862C94.5995 23.7136 94.4722 23.7772 94.313 23.8409C94.1539 23.9045 94.0266 24 93.8038 24Z" fill="white"/>
        <path d="M95.3953 23.9682V21.4854H96.0637V21.9311H96.0955C96.1274 21.7719 96.2228 21.6764 96.3183 21.5809C96.4138 21.5173 96.5411 21.4536 96.7003 21.4536C96.7321 21.4536 96.764 21.4536 96.7958 21.4536C96.8276 21.4536 96.8594 21.4536 96.8913 21.4854V22.0902C96.8594 22.0902 96.8276 22.0584 96.764 22.0584C96.7003 22.0584 96.6685 22.0584 96.6048 22.0584C96.5093 22.0584 96.4138 22.0902 96.3502 22.122C96.2865 22.1539 96.2228 22.2175 96.1592 22.313C96.1274 22.3767 96.0955 22.4722 96.0955 22.5677V23.9682H95.3953Z" fill="white"/>
        <path d="M3.02387 13.9098C4.69391 13.9098 6.04775 12.556 6.04775 10.8859C6.04775 9.21589 4.69391 7.86206 3.02387 7.86206C1.35383 7.86206 0 9.21589 0 10.8859C0 12.556 1.35383 13.9098 3.02387 13.9098Z" fill="white"/>
    </g>
    <defs>
        <clipPath id="clip0_465_40732">
            <rect width="97.2" height="24" fill="white"/>
        </clipPath>
    </defs>
</svg>
