<svg
    width="338"
    height="471"
    viewBox="0 0 338 471"
    fill="none"
    xmlns="http://www.w3.org/2000/svg"
>
<path
        d="M2.49992 548.75C-25.8334 520.417 -25.8334 474.583 2.49992 447.083L135.833 312.917C150.833 297.917 150.833 273.75 135.833 258.75L0.83325 122.917C-27.5001 94.5833 -27.5001 48.75 0.83325 21.25C29.1666 -7.08333 74.9999 -7.08333 102.5 21.25L316.667 235.417C330 248.75 337.5 266.25 337.5 286.25C337.5 306.25 329.167 323.75 316.667 337.083L104.167 548.75C75.8332 576.25 29.9999 576.25 2.49992 548.75Z"
        fill="white"
    />
<path
        d="M-43.3333 363.75C0.389191 363.75 35.8333 328.306 35.8333 284.584C35.8333 240.861 0.389191 205.417 -43.3333 205.417C-87.0559 205.417 -122.5 240.861 -122.5 284.584C-122.5 328.306 -87.0559 363.75 -43.3333 363.75Z"
        fill="white"
    />
</svg>
