<svg
    width="74"
    height="78"
    viewBox="0 0 74 78"
    fill="none"
    xmlns="http://www.w3.org/2000/svg"
>
<path
        d="M12.5838 20.1939C12.5838 20.1939 3.73544 18.8601 1.47943 26.9619C-0.776574 35.0638 5.16808 65.9342 11.1676 71.2751C17.3593 76.7642 52.6704 78.3231 59.4714 77.9169C66.2723 77.5107 70.4495 74.7442 65.1306 63.3983C59.8117 52.0524 37.4218 17.636 12.5838 20.1939Z"
        fill="#00AAA4"
    />
<path
        d="M22.453 44.5271C22.258 45.7052 22.0015 46.8724 21.6845 48.0237C21.4505 48.9186 21.1571 49.797 20.8063 50.6529C19.198 54.5282 18.1386 54.7093 18.1386 54.7093C11.4804 54.7807 14.5762 48.6714 14.5762 48.6714C14.9824 47.7767 15.3666 46.8819 15.7234 46.0037C17.4469 41.7663 18.8667 37.4116 19.9719 32.9727L22.453 44.5271Z"
        fill="#59CCC5"
    />
<path
        d="M21.6845 48.0239C21.4505 48.9188 21.1571 49.7972 20.8063 50.6531C19.198 54.5284 18.1386 54.7096 18.1386 54.7096C11.4804 54.7809 14.5762 48.6716 14.5762 48.6716C14.9824 47.7769 15.3666 46.8822 15.7234 46.0039L21.6845 48.0239Z"
        fill="#94DED9"
    />
<path
        d="M69.4005 68.3378C66.2223 69.4685 35.3354 62.6841 31.8169 61.8936C28.2984 61.1032 26.487 58.6606 25.466 56.4046C24.9408 55.1588 24.5132 53.8742 24.1871 52.5622C23.704 50.9814 14.96 8.27648 14.96 8.27648L15.8108 6.30591C15.8766 6.16868 15.9425 6.01499 16.0139 5.8558C17.1117 3.44062 19.45 2.46905 20.954 1.80488C22.3263 1.18461 23.8358 1.53042 25.6691 2.23851L26.1302 2.41965C28.1886 3.23752 63.7632 20.0505 64.6634 22.2077C65.5636 24.3649 73.3745 56.7559 73.8905 60.7519C74.4065 64.7479 72.5786 67.2125 69.4005 68.3378Z"
        fill="#B5EAE5"
    />
<path
        d="M58.6797 67.2846C58.6797 67.2846 60.8753 66.0825 61.7042 62.8C62.075 61.4519 62.2597 60.0594 62.2531 58.6613C62.2499 58.5647 62.2683 58.4686 62.3071 58.38C62.3459 58.2915 62.404 58.2128 62.4772 58.1496C62.5503 58.0865 62.6367 58.0405 62.7299 58.015C62.8232 57.9896 62.9209 57.9853 63.016 58.0026L66.7102 58.8424C66.7102 58.8424 65.8539 66.2197 63.4167 67.9927C63.4332 67.9982 60.3648 67.5755 58.6797 67.2846Z"
        fill="#94DED9"
    />
<path
        d="M39.0342 63.4586C39.0342 63.4586 41.905 61.724 43.1784 57.3822C43.7312 55.5463 44.1802 53.6807 44.5232 51.7943C44.5386 51.6979 44.5755 51.6061 44.631 51.5258C44.6866 51.4455 44.7594 51.3787 44.8442 51.3302C44.929 51.2818 45.0235 51.2529 45.1209 51.2459C45.2183 51.2388 45.3161 51.2536 45.407 51.2893L48.9035 52.6177C48.9035 52.6177 48.0856 60.983 43.4145 64.3698L39.0342 63.4586Z"
        fill="#94DED9"
    />
<path
        d="M33.6826 33.8184C33.6826 33.8184 34.9561 40.8114 38.6228 42.5021C42.2895 44.1927 73.2642 57.1798 73.2642 57.1798L68.9389 38.7914L33.6826 33.8184Z"
        fill="#94DED9"
    />
<path
        d="M42.8545 44.334C42.8545 44.334 42.9423 46.3485 43.3046 46.7547C43.6669 47.1609 45.5716 48.4014 46.4389 47.8854C47.3061 47.3694 47.3006 45.9862 47.3006 45.9862L43.2991 44.5206L42.8545 44.334Z"
        fill="#94DED9"
    />
<path
        d="M25.6907 2.23851L24.9222 5.05989C23.023 3.90719 20.9756 5.05989 20.9756 5.05989L15.4316 8.01849C15.4479 7.2583 15.6556 6.51449 16.0354 5.8558C17.2442 4.04561 18.9637 2.63558 20.9756 1.80488C22.3314 1.18461 23.8409 1.53042 25.6907 2.23851Z"
        fill="#00728B"
    />
<path
        d="M35.4123 52.8102C34.0345 56.6526 30.1099 58.4969 27.7276 58.0358C27.2524 57.9359 26.8034 57.7378 26.4092 57.4542C26.015 57.1707 25.6845 56.8079 25.4387 56.3891C24.9135 55.1434 24.4859 53.8587 24.1597 52.5467C23.6767 50.9659 14.9326 8.26101 14.9326 8.26101C16.8816 7.08333 18.8936 6.01319 20.9596 5.0554C20.9596 5.0554 22.5405 4.3528 23.6163 7.04244C24.6922 9.73208 36.3839 50.1206 35.4123 52.8102Z"
        fill="#0096A5"
    />
<path
        d="M20.1632 11.4875C20.1632 11.4875 21.261 10.6641 24.7191 10.4885L23.3633 6.00391C23.3633 6.00391 20.1412 9.18207 20.1632 11.4875Z"
        fill="#00728B"
    />
<path
        d="M14.9658 8.26595C14.9639 6.9255 15.4189 5.62444 16.2558 4.5773C17.6939 2.77689 20.3396 0.367188 24.1929 0.367188C30.3407 0.367188 59.9103 8.01894 64.3399 18.8214C65.2786 21.1158 73.6713 47.2547 72.7547 49.4065C71.838 51.5582 60.6458 46.113 55.3653 44.0711C42.488 39.0376 35.2205 38.7357 33.6835 33.8175C32.1466 28.8993 25.2139 3.66062 23.7813 2.77689C23.2311 2.41483 22.5851 2.22601 21.9266 2.23482C21.2681 2.24363 20.6274 2.44965 20.0871 2.82629C19.0316 3.44605 18.0642 4.20484 17.2109 5.08229C16.8345 5.50846 16.556 6.01182 16.3948 6.55706C16.2336 7.10229 16.1936 7.67619 16.2777 8.2385C16.2834 8.38974 16.2369 8.53834 16.1459 8.6593C16.055 8.78027 15.9251 8.86621 15.7782 8.90268C15.6816 8.92695 15.5807 8.92881 15.4833 8.90812C15.3859 8.88742 15.2945 8.84472 15.2161 8.78328C15.1377 8.72183 15.0744 8.64328 15.031 8.55361C14.9876 8.46395 14.9653 8.36555 14.9658 8.26595Z"
        fill="white"
    />
<path
        d="M63.7793 50.2188L63.9275 52.5187L67.6326 53.4353L67.5173 51.1684L63.7793 50.2188Z"
        fill="#00CEAF"
    />
<path
        d="M67.3422 51.4591C67.3422 51.4591 68.5608 51.6951 68.6211 50.1253C68.6815 48.5554 67.9734 42.9511 67.5233 41.8917C67.0732 40.8323 62.6326 39.8827 61.7543 39.9705C60.8761 40.0583 60.8486 41.0683 60.8486 41.0683C60.8486 41.0683 61.2054 47.6552 61.8751 49.1647C62.5447 50.6742 66.3706 51.3548 67.3422 51.4591Z"
        fill="#00728B"
    />
<path
        d="M67.2377 45.9261C67.3465 45.9755 67.4409 46.0518 67.512 46.1478C67.583 46.2439 67.6284 46.3565 67.6439 46.475C67.7811 47.3367 68.083 49.4226 67.8525 49.9111C67.6219 50.3996 65.2671 49.7958 64.1144 49.2195C63.9291 49.1302 63.7708 48.9931 63.656 48.8223C63.5412 48.6516 63.474 48.4533 63.4612 48.2479C63.4173 47.5892 63.3405 46.4805 63.2417 45.6406C63.228 45.5305 63.2407 45.4188 63.2789 45.3146C63.3171 45.2105 63.3796 45.1169 63.4612 45.0418C63.5428 44.9666 63.6411 44.912 63.748 44.8825C63.855 44.853 63.9674 44.8495 64.076 44.8722C65.1635 45.1134 66.223 45.4665 67.2377 45.9261Z"
        fill="#FACA05"
    />
<path
        d="M45.8135 44.5215L46.1318 46.8104L49.8973 47.4472L49.6119 45.1966L45.8135 44.5215Z"
        fill="#00CEAF"
    />
<path
        d="M49.4587 45.4985C49.4587 45.4985 50.6937 45.6412 50.6388 44.0713C50.5839 42.5014 49.4587 36.9685 48.9482 35.942C48.4377 34.9156 43.9257 34.2953 43.0529 34.4545C42.1802 34.6137 42.2351 35.6346 42.2351 35.6346C42.2351 35.6346 43.0749 42.1666 43.8818 43.6322C44.6887 45.0978 48.4871 45.471 49.4587 45.4985Z"
        fill="#00728B"
    />
<path
        d="M48.6398 39.8402C48.8174 39.9016 48.9762 40.0075 49.1012 40.1478C49.2261 40.2881 49.313 40.4581 49.3534 40.6416C49.5565 41.5802 49.9023 43.3861 49.7212 43.8472C49.54 44.3083 47.4048 43.957 46.1423 43.5124C45.8874 43.4184 45.6634 43.256 45.4949 43.0429C45.3264 42.8299 45.2199 42.5745 45.1872 42.3048C45.1049 41.6461 44.9731 40.6581 44.8359 39.928C44.8154 39.8164 44.8219 39.7015 44.8548 39.5929C44.8877 39.4842 44.946 39.385 45.0249 39.3034C45.1038 39.2219 45.201 39.1603 45.3084 39.1238C45.4159 39.0873 45.5305 39.077 45.6428 39.0937C46.6629 39.2485 47.6663 39.4984 48.6398 39.8402Z"
        fill="#FACA05"
    />
<path
        d="M51.0996 54.7095C51.3785 54.6266 51.637 54.486 51.8582 54.2969C52.0795 54.1078 52.2586 53.8744 52.384 53.6117C52.8348 52.7339 53.0252 51.7454 52.9329 50.7629C52.9478 50.5509 52.9168 50.3381 52.842 50.1392C52.7672 49.9402 52.6502 49.7598 52.4993 49.6102L48.108 48.4355C48.0098 48.4381 47.9137 48.465 47.8284 48.5138C47.7431 48.5627 47.6713 48.632 47.6195 48.7155C47.4658 48.9954 47.2353 51.1252 46.9279 51.8168C46.6205 52.5084 47.3066 53.5843 47.3066 53.5843L51.0996 54.7095Z"
        fill="#0096A5"
    />
<path
        d="M68.2212 61.8133C68.4896 61.7014 68.7317 61.5347 68.9321 61.324C69.1325 61.1132 69.2867 60.863 69.3849 60.5893C69.7462 59.6717 69.8377 58.6699 69.6484 57.702C69.6395 57.4906 69.5861 57.2835 69.4915 57.0943C69.3968 56.9051 69.2633 56.7381 69.0995 56.6042L64.5929 55.8906C64.4951 55.9041 64.4022 55.9418 64.3226 56.0002C64.2431 56.0587 64.1794 56.1361 64.1373 56.2255C64.0111 56.5219 64.0056 58.6571 63.7751 59.3817C63.5445 60.1062 64.324 61.0997 64.324 61.0997L68.2212 61.8133Z"
        fill="#0096A5"
    />
<path
        d="M51.6441 52.7383C51.2839 54.2512 50.8124 55.7355 50.2335 57.1789C49.7114 58.3502 49.1288 59.4934 48.4879 60.6041C47.3901 62.5033 46.1276 64.2653 45.1286 64.7209L40.1885 63.7054C42.0271 62.6503 43.5798 61.1616 44.7115 59.3691C44.9666 58.966 45.194 58.546 45.3921 58.1121C46.7534 55.1315 47.7414 52.623 48.1037 51.6844C48.1513 51.5712 48.2402 51.4804 48.3524 51.4305C48.4645 51.3805 48.5915 51.3751 48.7075 51.4154L51.3148 52.1894C51.4286 52.2228 51.5257 52.2978 51.5867 52.3995C51.6478 52.5012 51.6682 52.6222 51.6441 52.7383Z"
        fill="#FACA05"
    />
<path
        d="M68.7091 59.3911C68.5761 60.9755 68.308 62.5456 67.9077 64.0843C67.719 64.6523 67.4821 65.2032 67.1996 65.731C66.5849 66.8672 65.7341 67.8607 64.6692 68.1736L59.9102 67.46C59.9102 67.46 61.4361 67.0868 62.8303 64.9515C63.169 64.4293 63.4611 63.8783 63.7031 63.3048C64.28 61.8388 64.7139 60.3204 64.9985 58.7709C65.0344 58.592 65.139 58.4343 65.2899 58.3317C65.4408 58.229 65.6258 58.1897 65.8054 58.222L68.1328 58.6281C68.308 58.6579 68.4653 58.7534 68.5724 58.8952C68.6795 59.0371 68.7284 59.2144 68.7091 59.3911Z"
        fill="#FACA05"
    />
<path
        d="M14.9655 52.2555C14.9655 52.2555 15.476 54.8463 18.1437 54.7201C18.1437 54.7201 13.5274 56.0375 11.6831 55.4227C9.83876 54.8079 8.67508 53.6113 8.23047 50.1367L14.9655 52.2555Z"
        fill="#BBEAE7"
    />
<path
        d="M23.6108 7.04196C22.3648 6.4217 21.2724 9.23759 21.267 9.23759C19.3293 12.5914 18.1547 16.9772 16.2664 30.4309C13.9939 46.6346 14.96 52.2554 14.96 52.2554C14.96 52.2554 10.1351 53.194 8.8013 52.0578C7.46745 50.9215 8.01087 37.9948 9.73444 29.1245C11.1671 21.7746 12.962 12.9921 16.8263 6.64126C18.5993 3.73755 22.8313 4.05591 23.6108 4.59384C24.3902 5.13177 23.5449 6.90474 23.6108 7.04196Z"
        fill="#BBEAE7"
    />
<path
        d="M27.8866 32.8145C27.8866 32.8145 22.4963 34.1977 20.1689 38.5066C20.1689 38.5066 23.1824 54.7762 25.4714 56.4064C27.7603 58.0367 31.8387 55.5501 32.9694 53.4972C34.1002 51.4443 33.3317 49.7866 32.8048 47.4593C32.1131 44.3909 29.0667 32.8254 29.0667 32.8254L27.8866 32.8145Z"
        fill="#94DED9"
    />
<path
        d="M30.4179 4.56694L30.4509 4.67123C30.4784 4.77125 30.5283 4.86372 30.5968 4.94169C30.6652 5.01965 30.7505 5.08107 30.8461 5.12133C32.6684 5.89529 42.3237 9.97915 49.5473 12.7621C54.954 14.8479 58.5548 16.0555 60.3278 16.6538C60.4495 16.6929 60.5796 16.6978 60.7038 16.668C60.8281 16.6381 60.9418 16.5747 61.0324 16.4846C61.1231 16.3945 61.1872 16.2813 61.2178 16.1572C61.2485 16.0331 61.2444 15.903 61.2061 15.7811C61.1809 15.6956 61.1387 15.6161 61.0821 15.5473C61.0255 15.4784 60.9557 15.4217 60.8767 15.3804C56.8682 13.2255 52.7266 11.3279 48.4769 9.69921C41.7803 7.13582 34.2054 4.64927 31.3017 3.70516C31.1809 3.66785 31.0524 3.66378 30.9296 3.69339C30.8067 3.723 30.6941 3.78519 30.6037 3.87341C30.5132 3.96162 30.4482 4.0726 30.4155 4.19465C30.3828 4.31671 30.3837 4.44532 30.4179 4.56694Z"
        fill="#B5EAE5"
    />
<path
        d="M48.4879 60.6042C47.3901 62.5034 46.1276 64.2654 45.1286 64.721L40.1885 63.7055C42.0271 62.6503 43.5798 61.1617 44.7115 59.3691L48.4879 60.6042Z"
        fill="#ECA03A"
    />
<path
        d="M67.1996 65.7423C66.5849 66.8786 65.7341 67.8721 64.6692 68.185L59.9102 67.4714C59.9102 67.4714 61.4361 67.0981 62.8303 64.9629C62.8303 64.9629 65.8823 65.7972 67.1996 65.7423Z"
        fill="#ECA03A"
    />
</svg>
