<svg
    width="24"
    height="24"
    viewBox="0 0 24 24"
    fill="none"
    xmlns="http://www.w3.org/2000/svg"
>
<path
        fill-rule="evenodd"
        clip-rule="evenodd"
        d="M10.2895 4.80005H22.1158C22.5067 4.80005 22.7999 5.191 22.7999 5.58195V16.9195C22.7999 17.4082 22.409 17.7014 22.018 17.7014H10.9737C10.5828 17.7014 10.0941 17.5059 9.80086 17.2127L8.53027 15.9421L8.43253 16.0399V18.972C8.43253 19.4607 8.04158 19.8516 7.55289 19.8516H2.07959C1.5909 19.8516 1.19995 19.4607 1.19995 18.972V15.5512C1.19995 14.1829 2.27506 13.1077 3.54565 13.1077H8.43253C8.82348 13.1077 9.21443 13.3032 9.50764 13.5964L12.2443 16.2353C12.342 16.0399 12.342 15.9421 12.342 15.7467C12.342 15.3557 12.1466 14.9648 11.9511 14.7693C11.6579 14.3783 10.6805 13.4987 10.6805 13.4987C10.5828 13.401 9.80086 12.6191 9.50764 12.4236V5.58195C9.50764 5.09326 9.89859 4.80005 10.2895 4.80005ZM14.2968 12.5213V9.39372C14.2968 8.90503 14.8833 8.51408 15.2742 8.80729L18.3041 10.3711C18.7928 10.5666 18.7928 11.2507 18.3041 11.5439L15.2742 13.1077C14.7855 13.401 14.2968 13.01 14.2968 12.5213Z"
        fill="#0384C6"
    />
<path
        d="M5.40259 11.7394C6.69808 11.7394 7.74829 10.6892 7.74829 9.39367C7.74829 8.09818 6.69808 7.04797 5.40259 7.04797C4.10709 7.04797 3.05688 8.09818 3.05688 9.39367C3.05688 10.6892 4.10709 11.7394 5.40259 11.7394Z"
        fill="#0384C6"
    />
</svg>
