<svg
    width="420"
    height="303"
    viewBox="0 0 420 303"
    fill="none"
    xmlns="http://www.w3.org/2000/svg"
>
<path
        fill-rule="evenodd"
        clip-rule="evenodd"
        d="M505.364 240.726C514.727 250.082 520 262.772 520 275.999C520 289.226 514.727 302.024 505.364 311.379C491.159 325.682 469.205 330.306 449.403 321.596C443.7 319.122 438.749 315.358 434.337 310.949L423.79 300.41L278.723 155.448L253.863 130.606C251.496 128.24 251.496 124.261 253.863 121.895L254.079 121.68C256.016 119.745 259.029 119.314 261.397 120.605C269.037 124.691 287.225 131.896 310.039 125.014L310.05 125.011L310.05 125.011L310.057 125.009L310.066 125.006C323.832 120.922 337.597 116.839 348.674 113.615C362.664 109.528 377.73 113.4 388.062 123.724L505.364 240.726ZM316.895 1.70874C340.342 11.4142 351.477 38.2762 341.764 61.7068C332.052 85.1373 305.17 96.2638 281.723 86.5583C258.275 76.8528 247.141 49.9908 256.853 26.5602C266.566 3.12964 293.447 -7.99673 316.895 1.70874ZM466.625 8.86917C471.037 4.46005 474.804 -0.486755 477.279 -6.18634C485.996 -25.9735 481.368 -47.9115 467.163 -61.9991C457.8 -71.3551 444.994 -76.6245 431.757 -76.6245C418.52 -76.6245 405.821 -71.3551 396.458 -61.9991L376.226 -41.7818C367.51 -33.0711 364.281 -20.274 367.725 -8.44467C368.976 -4.26459 370.355 0.41217 371.825 5.40005L371.828 5.41013L371.829 5.41461C374.406 14.1534 377.263 23.8463 380.208 33.4956C387.096 56.2939 379.885 74.4681 375.796 82.1033C374.505 84.4692 374.935 87.4803 376.872 89.416L377.087 89.6311C379.455 91.9969 383.437 91.9969 385.804 89.6311L410.664 64.7896L456.078 19.408L466.625 8.86917ZM344.479 -33.1789C342.542 -31.2432 339.529 -30.813 337.161 -32.1035C329.521 -36.19 311.333 -43.3951 288.519 -36.5126C275.389 -32.5337 262.152 -28.6623 251.391 -25.5436C236.54 -21.1345 220.397 -25.3285 209.42 -36.19L192.847 -52.7511C183.484 -62.107 178.211 -74.7966 178.211 -88.0239C178.211 -101.251 183.484 -114.048 192.847 -123.404C207.053 -137.599 229.114 -142.331 248.808 -133.621C254.512 -131.147 259.462 -127.383 263.874 -122.974L274.421 -112.435L319.835 -67.0538L344.695 -42.2122C347.062 -39.8463 347.062 -35.8674 344.695 -33.5015L344.479 -33.1789ZM221.578 -1.237C219.211 -3.60287 215.229 -3.60287 212.861 -1.237L187.894 23.7121L25.608 185.881L15.0616 196.42C10.6493 200.829 6.8827 205.776 4.40752 211.476C-4.30945 231.155 0.318075 253.201 14.6311 267.396C23.9938 276.752 36.8002 282.021 50.0371 282.021C63.2739 282.021 75.9727 276.752 85.3354 267.396L224.699 128.025C231.91 120.712 234.708 109.959 231.802 100.065L231.352 98.5199C227.943 86.8088 223.299 70.8536 218.457 54.8984C211.57 32.1001 218.78 13.926 222.87 6.29074C224.161 3.92487 223.731 0.913757 221.794 -1.02194L221.578 -1.237Z"
        fill="url(#paint0_linear_917_53482)"
    />
<defs>
<linearGradient
            id="paint0_linear_917_53482"
            x1="520"
            y1="326"
            x2="148.587"
            y2="-45.5872"
            gradientUnits="userSpaceOnUse"
        >
<stop offset="0.250866" stop-color="#00ADAF" />
<stop offset="1" stop-color="#89DDD5" stop-opacity="0" />
</linearGradient>
</defs>
</svg>
